<?xml version="1.0" encoding="utf-8" standalone="no"?>
<!DOCTYPE svg PUBLIC "-//W3C//DTD SVG 1.1//EN"
  "http://www.w3.org/Graphics/SVG/1.1/DTD/svg11.dtd">
<svg xmlns:xlink="http://www.w3.org/1999/xlink" width="534.832844pt" height="551.173625pt" viewBox="0 0 534.832844 551.173625" xmlns="http://www.w3.org/2000/svg" version="1.1">
 <metadata>
  <rdf:RDF xmlns:dc="http://purl.org/dc/elements/1.1/" xmlns:cc="http://creativecommons.org/ns#" xmlns:rdf="http://www.w3.org/1999/02/22-rdf-syntax-ns#">
   <cc:Work>
    <dc:type rdf:resource="http://purl.org/dc/dcmitype/StillImage"/>
    <dc:date>2026-04-11T12:11:44.436098</dc:date>
    <dc:format>image/svg+xml</dc:format>
    <dc:creator>
     <cc:Agent>
      <dc:title>Matplotlib v3.10.8, https://matplotlib.org/</dc:title>
     </cc:Agent>
    </dc:creator>
   </cc:Work>
  </rdf:RDF>
 </metadata>
 <defs>
  <style type="text/css">*{stroke-linejoin: round; stroke-linecap: butt}</style>
 </defs>
 <g id="figure_1">
  <g id="patch_1">
   <path d="M 0 551.173625 
L 534.832844 551.173625 
L 534.832844 0 
L 0 0 
z
" style="fill: #ffffff"/>
  </g>
  <g id="axes_1">
   <g id="patch_2">
    <path d="M 43.504844 510.372375 
L 527.632844 510.372375 
L 527.632844 26.244375 
L 43.504844 26.244375 
z
" style="fill: #fffdf8"/>
   </g>
   <g id="matplotlib.axis_1">
    <g id="xtick_1">
     <g id="line2d_1">
      <path d="M 110.920358 510.372375 
L 110.920358 26.244375 
" clip-path="url(#p72033f6834)" style="fill: none; stroke: #cccccc; stroke-opacity: 0.25; stroke-width: 0.8; stroke-linecap: round"/>
     </g>
     <g id="line2d_2"/>
     <g id="text_1">
      <!-- −4 -->
      <g style="fill: #262626" transform="translate(103.509342 523.293312) scale(0.13 -0.13)">
       <defs>
        <path id="LiberationSans-2212" d="M 316 1900 
L 316 2356 
L 3425 2356 
L 3425 1900 
L 316 1900 
z
" transform="scale(0.015625)"/>
        <path id="LiberationSans-34" d="M 2753 997 
L 2753 0 
L 2222 0 
L 2222 997 
L 147 997 
L 147 1434 
L 2163 4403 
L 2753 4403 
L 2753 1441 
L 3372 1441 
L 3372 997 
L 2753 997 
z
M 2222 3769 
Q 2216 3750 2134 3603 
Q 2053 3456 2013 3397 
L 884 1734 
L 716 1503 
L 666 1441 
L 2222 1441 
L 2222 3769 
z
" transform="scale(0.015625)"/>
       </defs>
       <use xlink:href="#LiberationSans-2212"/>
       <use xlink:href="#LiberationSans-34" transform="translate(58.398438 0)"/>
      </g>
     </g>
    </g>
    <g id="xtick_2">
     <g id="line2d_3">
      <path d="M 196.554273 510.372375 
L 196.554273 26.244375 
" clip-path="url(#p72033f6834)" style="fill: none; stroke: #cccccc; stroke-opacity: 0.25; stroke-width: 0.8; stroke-linecap: round"/>
     </g>
     <g id="line2d_4"/>
     <g id="text_2">
      <!-- −2 -->
      <g style="fill: #262626" transform="translate(189.143257 523.293312) scale(0.13 -0.13)">
       <defs>
        <path id="LiberationSans-32" d="M 322 0 
L 322 397 
Q 481 763 711 1042 
Q 941 1322 1194 1548 
Q 1447 1775 1695 1969 
Q 1944 2163 2144 2356 
Q 2344 2550 2467 2762 
Q 2591 2975 2591 3244 
Q 2591 3606 2378 3806 
Q 2166 4006 1788 4006 
Q 1428 4006 1195 3811 
Q 963 3616 922 3263 
L 347 3316 
Q 409 3844 795 4156 
Q 1181 4469 1788 4469 
Q 2453 4469 2811 4155 
Q 3169 3841 3169 3263 
Q 3169 3006 3051 2753 
Q 2934 2500 2703 2247 
Q 2472 1994 1819 1463 
Q 1459 1169 1246 933 
Q 1034 697 941 478 
L 3238 478 
L 3238 0 
L 322 0 
z
" transform="scale(0.015625)"/>
       </defs>
       <use xlink:href="#LiberationSans-2212"/>
       <use xlink:href="#LiberationSans-32" transform="translate(58.398438 0)"/>
      </g>
     </g>
    </g>
    <g id="xtick_3">
     <g id="line2d_5">
      <path d="M 282.188188 510.372375 
L 282.188188 26.244375 
" clip-path="url(#p72033f6834)" style="fill: none; stroke: #cccccc; stroke-opacity: 0.25; stroke-width: 0.8; stroke-linecap: round"/>
     </g>
     <g id="line2d_6"/>
     <g id="text_3">
      <!-- 0 -->
      <g style="fill: #262626" transform="translate(278.573579 523.293312) scale(0.13 -0.13)">
       <defs>
        <path id="LiberationSans-30" d="M 3309 2203 
Q 3309 1100 2920 518 
Q 2531 -63 1772 -63 
Q 1013 -63 631 515 
Q 250 1094 250 2203 
Q 250 3338 620 3903 
Q 991 4469 1791 4469 
Q 2569 4469 2939 3897 
Q 3309 3325 3309 2203 
z
M 2738 2203 
Q 2738 3156 2517 3584 
Q 2297 4013 1791 4013 
Q 1272 4013 1045 3591 
Q 819 3169 819 2203 
Q 819 1266 1048 831 
Q 1278 397 1778 397 
Q 2275 397 2506 840 
Q 2738 1284 2738 2203 
z
" transform="scale(0.015625)"/>
       </defs>
       <use xlink:href="#LiberationSans-30"/>
      </g>
     </g>
    </g>
    <g id="xtick_4">
     <g id="line2d_7">
      <path d="M 367.822103 510.372375 
L 367.822103 26.244375 
" clip-path="url(#p72033f6834)" style="fill: none; stroke: #cccccc; stroke-opacity: 0.25; stroke-width: 0.8; stroke-linecap: round"/>
     </g>
     <g id="line2d_8"/>
     <g id="text_4">
      <!-- 2 -->
      <g style="fill: #262626" transform="translate(364.207494 523.293312) scale(0.13 -0.13)">
       <use xlink:href="#LiberationSans-32"/>
      </g>
     </g>
    </g>
    <g id="xtick_5">
     <g id="line2d_9">
      <path d="M 453.456018 510.372375 
L 453.456018 26.244375 
" clip-path="url(#p72033f6834)" style="fill: none; stroke: #cccccc; stroke-opacity: 0.25; stroke-width: 0.8; stroke-linecap: round"/>
     </g>
     <g id="line2d_10"/>
     <g id="text_5">
      <!-- 4 -->
      <g style="fill: #262626" transform="translate(449.841409 523.293312) scale(0.13 -0.13)">
       <use xlink:href="#LiberationSans-34"/>
      </g>
     </g>
    </g>
    <g id="text_6">
     <!-- X [m] -->
     <g style="fill: #262626" transform="translate(268.068063 540.861125) scale(0.15 -0.15)">
      <defs>
       <path id="LiberationSans-58" d="M 3475 0 
L 2153 1925 
L 803 0 
L 144 0 
L 1819 2288 
L 272 4403 
L 931 4403 
L 2156 2675 
L 3347 4403 
L 4006 4403 
L 2500 2309 
L 4134 0 
L 3475 0 
z
" transform="scale(0.015625)"/>
       <path id="LiberationSans-20" transform="scale(0.015625)"/>
       <path id="LiberationSans-5b" d="M 456 -1328 
L 456 4638 
L 1728 4638 
L 1728 4234 
L 1000 4234 
L 1000 -925 
L 1728 -925 
L 1728 -1328 
L 456 -1328 
z
" transform="scale(0.015625)"/>
       <path id="LiberationSans-6d" d="M 2400 0 
L 2400 2144 
Q 2400 2634 2265 2821 
Q 2131 3009 1781 3009 
Q 1422 3009 1212 2734 
Q 1003 2459 1003 1959 
L 1003 0 
L 444 0 
L 444 2659 
Q 444 3250 425 3381 
L 956 3381 
Q 959 3366 962 3297 
Q 966 3228 970 3139 
Q 975 3050 981 2803 
L 991 2803 
Q 1172 3163 1406 3303 
Q 1641 3444 1978 3444 
Q 2363 3444 2586 3291 
Q 2809 3138 2897 2803 
L 2906 2803 
Q 3081 3144 3329 3294 
Q 3578 3444 3931 3444 
Q 4444 3444 4676 3166 
Q 4909 2888 4909 2253 
L 4909 0 
L 4353 0 
L 4353 2144 
Q 4353 2634 4218 2821 
Q 4084 3009 3734 3009 
Q 3366 3009 3161 2736 
Q 2956 2463 2956 1959 
L 2956 0 
L 2400 0 
z
" transform="scale(0.015625)"/>
       <path id="LiberationSans-5d" d="M 50 -1328 
L 50 -925 
L 778 -925 
L 778 4234 
L 50 4234 
L 50 4638 
L 1322 4638 
L 1322 -1328 
L 50 -1328 
z
" transform="scale(0.015625)"/>
      </defs>
      <use xlink:href="#LiberationSans-58"/>
      <use xlink:href="#LiberationSans-20" transform="translate(66.699219 0)"/>
      <use xlink:href="#LiberationSans-5b" transform="translate(94.482422 0)"/>
      <use xlink:href="#LiberationSans-6d" transform="translate(122.265625 0)"/>
      <use xlink:href="#LiberationSans-5d" transform="translate(205.566406 0)"/>
     </g>
    </g>
   </g>
   <g id="matplotlib.axis_2">
    <g id="ytick_1">
     <g id="line2d_11">
      <path d="M 43.504844 445.778434 
L 527.632844 445.778434 
" clip-path="url(#p72033f6834)" style="fill: none; stroke: #cccccc; stroke-opacity: 0.25; stroke-width: 0.8; stroke-linecap: round"/>
     </g>
     <g id="line2d_12"/>
     <g id="text_7">
      <!-- −4 -->
      <g style="fill: #262626" transform="translate(25.182813 450.488903) scale(0.13 -0.13)">
       <use xlink:href="#LiberationSans-2212"/>
       <use xlink:href="#LiberationSans-34" transform="translate(58.398438 0)"/>
      </g>
     </g>
    </g>
    <g id="ytick_2">
     <g id="line2d_13">
      <path d="M 43.504844 360.144519 
L 527.632844 360.144519 
" clip-path="url(#p72033f6834)" style="fill: none; stroke: #cccccc; stroke-opacity: 0.25; stroke-width: 0.8; stroke-linecap: round"/>
     </g>
     <g id="line2d_14"/>
     <g id="text_8">
      <!-- −2 -->
      <g style="fill: #262626" transform="translate(25.182813 364.854988) scale(0.13 -0.13)">
       <use xlink:href="#LiberationSans-2212"/>
       <use xlink:href="#LiberationSans-32" transform="translate(58.398438 0)"/>
      </g>
     </g>
    </g>
    <g id="ytick_3">
     <g id="line2d_15">
      <path d="M 43.504844 274.510604 
L 527.632844 274.510604 
" clip-path="url(#p72033f6834)" style="fill: none; stroke: #cccccc; stroke-opacity: 0.25; stroke-width: 0.8; stroke-linecap: round"/>
     </g>
     <g id="line2d_16"/>
     <g id="text_9">
      <!-- 0 -->
      <g style="fill: #262626" transform="translate(32.775625 279.221073) scale(0.13 -0.13)">
       <use xlink:href="#LiberationSans-30"/>
      </g>
     </g>
    </g>
    <g id="ytick_4">
     <g id="line2d_17">
      <path d="M 43.504844 188.876689 
L 527.632844 188.876689 
" clip-path="url(#p72033f6834)" style="fill: none; stroke: #cccccc; stroke-opacity: 0.25; stroke-width: 0.8; stroke-linecap: round"/>
     </g>
     <g id="line2d_18"/>
     <g id="text_10">
      <!-- 2 -->
      <g style="fill: #262626" transform="translate(32.775625 193.587158) scale(0.13 -0.13)">
       <use xlink:href="#LiberationSans-32"/>
      </g>
     </g>
    </g>
    <g id="ytick_5">
     <g id="line2d_19">
      <path d="M 43.504844 103.242774 
L 527.632844 103.242774 
" clip-path="url(#p72033f6834)" style="fill: none; stroke: #cccccc; stroke-opacity: 0.25; stroke-width: 0.8; stroke-linecap: round"/>
     </g>
     <g id="line2d_20"/>
     <g id="text_11">
      <!-- 4 -->
      <g style="fill: #262626" transform="translate(32.775625 107.953242) scale(0.13 -0.13)">
       <use xlink:href="#LiberationSans-34"/>
      </g>
     </g>
    </g>
    <g id="text_12">
     <!-- Y [m] -->
     <g style="fill: #262626" transform="translate(18.070313 285.677906) rotate(-90) scale(0.15 -0.15)">
      <defs>
       <path id="LiberationSans-59" d="M 2428 1825 
L 2428 0 
L 1834 0 
L 1834 1825 
L 141 4403 
L 797 4403 
L 2138 2306 
L 3472 4403 
L 4128 4403 
L 2428 1825 
z
" transform="scale(0.015625)"/>
      </defs>
      <use xlink:href="#LiberationSans-59"/>
      <use xlink:href="#LiberationSans-20" transform="translate(64.949219 0)"/>
      <use xlink:href="#LiberationSans-5b" transform="translate(92.732422 0)"/>
      <use xlink:href="#LiberationSans-6d" transform="translate(120.515625 0)"/>
      <use xlink:href="#LiberationSans-5d" transform="translate(203.816406 0)"/>
     </g>
    </g>
   </g>
   <g id="patch_3">
    <path d="M 282.11951 274.477378 
L 284.759603 271.924717 
L 287.363645 269.26831 
L 290.010632 266.641147 
L 292.677187 264.037576 
L 295.352347 261.44608 
L 298.02237 258.852057 
L 300.677835 256.246046 
L 303.309065 253.618498 
L 305.911523 250.966073 
L 308.476687 248.27978 
L 311.008796 245.563172 
L 313.499287 242.810042 
L 315.947475 240.020346 
L 318.352803 237.19357 
L 320.717712 234.332113 
L 323.039976 231.435203 
L 325.322376 228.505967 
L 327.567141 225.545388 
L 329.778808 222.557963 
L 331.96106 219.547332 
L 334.114068 216.513451 
L 336.238046 213.458118 
L 338.334321 210.382491 
L 340.404607 207.287638 
L 342.454255 204.177628 
L 344.488232 201.055287 
L 346.517755 197.928022 
L 348.551818 194.800543 
L 350.602793 191.679316 
L 352.685153 188.574958 
L 354.807118 185.490895 
L 356.98603 182.43659 
L 359.232122 179.425059 
L 361.553872 176.460542 
L 363.966907 173.550744 
L 366.490667 170.719773 
L 369.129433 167.980087 
L 371.894938 165.342819 
L 374.800754 162.833574 
L 377.850563 160.47376 
L 381.045307 158.281789 
L 384.385201 156.281509 
L 387.871315 154.498568 
L 391.496413 152.964479 
L 395.24705 151.708016 
L 399.098092 150.755724 
L 403.017857 150.119507 
L 406.975728 149.803346 
L 410.938822 149.797395 
L 414.882307 150.082427 
L 418.781819 150.647611 
L 422.618646 151.46413 
L 426.382171 152.507879 
L 430.067127 153.757321 
L 433.667262 155.192203 
L 437.181464 156.781269 
L 440.616626 158.503838 
L 443.978442 160.351218 
L 447.262845 162.311978 
L 450.475145 164.367106 
L 453.619922 166.508082 
L 456.708266 168.721291 
L 459.738165 171.01157 
L 462.709662 173.366588 
L 465.627809 175.778425 
L 468.498772 178.245709 
L 471.32315 180.770497 
L 474.091737 183.351075 
L 476.815109 185.976011 
L 479.488729 188.655539 
L 482.111139 191.382508 
L 484.687136 194.153493 
L 487.211923 196.972776 
L 489.687471 199.837402 
L 492.110183 202.748655 
L 494.481258 205.703239 
L 496.796927 208.705179 
L 499.052696 211.751648 
L 501.25657 214.840721 
L 503.396219 217.980831 
L 505.468517 221.164571 
L 507.477831 224.393055 
L 509.418467 227.671593 
L 511.283231 231.001682 
L 513.063346 234.37934 
L 514.765963 237.802342 
L 516.377978 241.280492 
L 517.895411 244.809294 
L 519.305887 248.386822 
L 520.61326 252.007381 
L 521.815389 255.675167 
L 522.898744 259.392322 
L 523.85596 263.155975 
L 524.67325 266.961118 
L 525.349886 270.803383 
L 525.874094 274.680116 
L 526.242791 278.583353 
L 526.444716 282.506243 
L 526.481667 286.439194 
L 526.349834 290.379682 
L 526.042536 294.315459 
L 525.564014 298.236508 
L 524.912939 302.137518 
L 524.091796 306.008685 
L 523.103067 309.84153 
L 521.950862 313.628091 
L 520.64015 317.360188 
L 519.180048 321.031956 
L 517.576596 324.64164 
L 515.832961 328.186113 
L 513.954453 331.658868 
L 511.948136 335.057464 
L 509.81765 338.380103 
L 507.568561 341.622075 
L 505.206948 344.781452 
L 502.734226 347.857979 
L 500.150437 350.84823 
L 497.459777 353.744112 
L 494.668068 356.54524 
L 491.775055 359.248189 
L 488.783477 361.84872 
L 485.693034 364.342122 
L 482.503642 366.723816 
L 479.215942 368.985365 
L 475.832289 371.118848 
L 472.352769 373.116302 
L 468.778966 374.967793 
L 465.118459 376.661032 
L 461.376727 378.189769 
L 457.558011 379.543084 
L 453.673272 380.713058 
L 449.731114 381.692196 
L 445.743357 382.476517 
L 441.721774 383.063966 
L 437.676557 383.452915 
L 433.61691 383.642251 
L 429.555336 383.63129 
L 425.503867 383.424142 
L 421.472736 383.023033 
L 417.47603 382.436911 
L 413.519871 381.675968 
L 409.613167 380.747226 
L 405.762338 379.664299 
L 401.969226 378.436266 
L 398.230792 377.072589 
L 394.559409 375.579305 
L 390.957947 373.978378 
L 387.423278 372.277518 
L 383.94393 370.487683 
L 380.522726 368.609046 
L 377.163479 366.658948 
L 373.856854 364.641242 
L 370.598911 362.561579 
L 367.394662 360.42724 
L 364.235241 358.248542 
L 361.112087 356.021246 
L 358.032691 353.753061 
L 354.991617 351.453405 
L 351.982098 349.119838 
L 349.004521 346.757498 
L 346.056574 344.369896 
L 343.137228 341.96157 
L 340.238349 339.533977 
L 337.362505 337.086431 
L 334.504816 334.625398 
L 331.664125 332.145783 
L 328.842658 329.655463 
L 326.033909 327.153711 
L 323.238946 324.638942 
L 320.456615 322.115825 
L 317.688156 319.584058 
L 314.927019 317.045398 
L 312.178941 314.499116 
L 309.437628 311.950737 
L 306.701967 309.393023 
L 303.976025 306.833768 
L 301.254322 304.271815 
L 298.538614 301.706009 
L 295.826845 299.139389 
L 293.118501 296.569258 
L 290.413112 293.997244 
L 287.711618 291.423602 
L 285.014792 288.850603 
L 282.318694 286.277517 
L 279.625807 283.704861 
L 276.933348 281.134815 
L 274.242346 278.566569 
L 271.550914 276.002218 
L 268.857985 273.439752 
L 266.167367 270.884436 
L 263.472639 268.335756 
L 260.774957 265.791273 
L 258.075347 263.255396 
L 255.369658 260.726841 
L 252.661057 258.205564 
L 249.946976 255.695249 
L 247.228356 253.194182 
L 244.502543 250.705318 
L 241.769237 248.227928 
L 239.028053 245.762571 
L 236.277705 243.310058 
L 233.521749 240.873217 
L 230.754232 238.454444 
L 227.976311 236.050486 
L 225.18807 233.667251 
L 222.386514 231.303541 
L 219.572198 228.960469 
L 216.745166 226.641888 
L 213.904432 224.34874 
L 211.046871 222.083295 
L 208.170128 219.845466 
L 205.280326 217.640222 
L 202.370871 215.473555 
L 199.439579 213.341613 
L 196.490261 211.253045 
L 193.513841 209.208921 
L 190.51447 207.208084 
L 187.494247 205.262953 
L 184.445509 203.373397 
L 181.370609 201.542844 
L 178.269077 199.780926 
L 175.139628 198.091626 
L 171.983291 196.482094 
L 168.795226 194.957853 
L 165.578516 193.524598 
L 162.332092 192.190636 
L 159.060448 190.960975 
L 155.768851 189.850646 
L 152.452036 188.866199 
L 149.109316 188.013285 
L 145.756877 187.299526 
L 142.394247 186.740808 
L 139.019842 186.336616 
L 135.649035 186.096455 
L 132.287475 186.028376 
L 128.936192 186.136874 
L 125.601821 186.422078 
L 122.298322 186.885186 
L 119.029975 187.529582 
L 115.795454 188.351967 
L 112.603321 189.346048 
L 109.464795 190.506559 
L 106.385143 191.830459 
L 103.36599 193.311798 
L 100.414917 194.942653 
L 97.539502 196.715789 
L 94.743811 198.626024 
L 92.033284 200.665096 
L 89.411088 202.830607 
L 86.875682 205.115619 
L 84.434301 207.509259 
L 82.096025 210.001762 
L 79.864362 212.593729 
L 77.734989 215.283448 
L 75.710646 218.062012 
L 73.794673 220.92227 
L 71.988996 223.858657 
L 70.294172 226.867918 
L 68.71367 229.935753 
L 67.257123 233.058737 
L 65.920549 236.241492 
L 64.704247 239.476185 
L 63.61173 242.754551 
L 62.645009 246.072694 
L 61.804383 249.430785 
L 61.087627 252.82009 
L 60.500393 256.227763 
L 60.04649 259.65693 
L 59.721938 263.106821 
L 59.527121 266.567373 
L 59.463323 270.030152 
L 59.534742 273.492117 
L 59.740349 276.954039 
L 60.077918 280.408212 
L 60.548476 283.849411 
L 61.150654 287.277679 
L 61.880854 290.68912 
L 62.734111 294.078596 
L 63.708111 297.440027 
L 64.800885 300.769045 
L 66.011192 304.06441 
L 67.333979 307.324321 
L 68.763595 310.54056 
L 70.300167 313.707131 
L 71.942411 316.822792 
L 73.689086 319.88626 
L 75.532442 322.888885 
L 77.475946 325.821161 
L 79.521998 328.686515 
L 81.66443 331.479979 
L 83.901359 334.193161 
L 86.231586 336.82041 
L 88.657038 339.355216 
L 91.173605 341.791801 
L 93.779445 344.120187 
L 96.474901 346.331983 
L 99.258003 348.419609 
L 102.124256 350.37172 
L 105.074601 352.17547 
L 108.102873 353.822767 
L 111.203035 355.297554 
L 114.371833 356.589984 
L 117.603528 357.691279 
L 120.887289 358.593432 
L 124.214381 359.283085 
L 127.576539 359.756298 
L 130.959079 360.009389 
L 134.351509 360.040988 
L 137.74197 359.853407 
L 141.11783 359.448358 
L 144.471982 358.829996 
L 147.799545 358.008338 
L 151.092469 356.997858 
L 154.343518 355.810801 
L 157.550636 354.460525 
L 160.711641 352.960176 
L 163.827217 351.32337 
L 166.898777 349.564749 
L 169.926921 347.696302 
L 172.913575 345.730148 
L 175.857712 343.679558 
L 178.762243 341.548258 
L 181.635132 339.348623 
L 184.473169 337.090285 
L 187.280976 334.77316 
L 190.063094 332.412746 
L 192.814212 330.006005 
L 195.54375 327.563169 
L 198.248925 325.081755 
L 200.937445 322.570969 
L 203.604642 320.033722 
L 206.256595 317.469714 
L 208.89549 314.885197 
L 211.520384 312.280855 
L 214.135258 309.660158 
L 216.739086 307.024431 
L 219.335335 304.375261 
L 221.924476 301.715257 
L 224.507366 299.04592 
L 227.085204 296.36849 
L 229.65876 293.683609 
L 232.230304 290.993035 
L 234.800863 288.298307 
L 237.371208 285.601352 
L 239.942152 282.9023 
L 242.515322 280.203418 
L 245.090591 277.504408 
L 247.67027 274.807582 
L 250.253931 272.113026 
L 252.8438 269.422536 
L 255.439364 266.736672 
L 258.04225 264.056244 
L 260.653057 261.382325 
L 263.272812 258.715557 
L 265.902758 256.05718 
L 268.543066 253.408224 
L 271.195491 250.769543 
L 273.860161 248.143022 
L 276.537848 245.528019 
L 279.230093 242.927317 
L 281.936638 240.339589 
L 284.66121 237.768131 
L 287.400981 235.214142 
L 290.157666 232.677537 
L 292.931519 230.159515 
L 295.723827 227.659561 
L 298.536345 225.18153 
L 301.368001 222.723066 
L 304.22385 220.289735 
L 307.099351 217.880981 
L 309.998744 215.497319 
L 312.924041 213.140845 
L 315.875586 210.81567 
L 318.853676 208.522993 
L 321.858485 206.264313 
L 324.892794 204.039415 
L 327.960629 201.85498 
L 331.057023 199.712419 
L 334.184545 197.611177 
L 337.348632 195.55425 
L 340.548472 193.550245 
L 343.783165 191.596893 
L 347.058448 189.700316 
L 350.37308 187.865138 
L 353.729501 186.096712 
L 357.125528 184.401846 
L 360.55902 182.775444 
L 364.040167 181.228338 
L 367.565587 179.770335 
L 371.130056 178.404389 
L 374.737898 177.132211 
L 378.389286 175.968832 
L 382.077881 174.914807 
L 385.804883 173.978528 
L 389.564683 173.166804 
L 393.355739 172.483617 
L 397.172614 171.93723 
L 401.007343 171.528328 
L 404.8586 171.260594 
L 408.720733 171.140149 
L 412.587489 171.168965 
L 416.450735 171.352907 
L 420.299637 171.688035 
L 424.132825 172.16964 
L 427.943277 172.800891 
L 431.728767 173.574293 
L 435.477863 174.498283 
L 439.182857 175.554535 
L 442.848631 176.74202 
L 446.465037 178.061254 
L 450.033145 179.497763 
L 453.547261 181.0557 
L 457.003746 182.722351 
L 460.408508 184.494245 
L 463.753668 186.374937 
L 467.036187 188.350811 
L 470.257992 190.418784 
L 473.42011 192.577615 
L 476.518902 194.825848 
L 479.551413 197.15766 
L 482.518371 199.568083 
L 485.421232 202.057675 
L 488.255244 204.62605 
L 491.019635 207.269141 
L 493.711452 209.987333 
L 496.328082 212.778742 
L 498.867427 215.641569 
L 501.326961 218.573203 
L 503.706599 221.572017 
L 506.001203 224.639296 
L 508.207133 227.773454 
L 510.320406 230.972951 
L 512.339183 234.23586 
L 514.257683 237.562824 
L 516.072265 240.953541 
L 517.772013 244.406258 
L 519.357054 247.914251 
L 520.823577 251.477821 
L 522.16606 255.095897 
L 523.373713 258.766209 
L 524.444436 262.483663 
L 525.368469 266.244833 
L 526.143413 270.044067 
L 526.761476 273.876228 
L 527.219489 277.733822 
L 527.512057 281.612952 
L 527.632844 285.505956 
L 527.578381 289.401871 
L 527.351065 293.290635 
L 526.952439 297.168696 
L 526.376166 301.025604 
L 525.630466 304.848302 
L 524.72296 308.633107 
L 523.655234 312.375566 
L 522.430712 316.068358 
L 521.054147 319.704117 
L 519.532646 323.279333 
L 517.867923 326.791094 
L 516.064301 330.228825 
L 514.132486 333.59214 
L 512.07162 336.878255 
L 509.886756 340.083362 
L 507.580121 343.200136 
L 505.160535 346.226696 
L 502.627741 349.16274 
L 499.982637 351.999235 
L 497.232418 354.732755 
L 494.377812 357.360261 
L 491.422329 359.876399 
L 488.370079 362.275947 
L 485.223546 364.554794 
L 481.982346 366.708659 
L 478.648146 368.725637 
L 475.228099 370.600121 
L 471.72443 372.324659 
L 468.142834 373.891631 
L 464.486095 375.295086 
L 460.759564 376.520164 
L 456.97463 377.562029 
L 453.13913 378.413016 
L 449.261969 379.069529 
L 445.351882 379.52356 
L 441.426466 379.769715 
L 437.500108 379.813859 
L 433.577732 379.659504 
L 429.670599 379.30408 
L 425.796135 378.751656 
L 421.961663 378.014262 
L 418.171334 377.096695 
L 414.434656 376.005034 
L 410.765285 374.751096 
L 407.159798 373.355991 
L 403.616352 371.818263 
L 400.148007 370.151741 
L 396.744744 368.37715 
L 393.40759 366.494231 
L 390.139757 364.522168 
L 386.927415 362.470251 
L 383.775616 360.337538 
L 380.678366 358.142955 
L 377.634508 355.887957 
L 374.636122 353.583548 
L 371.67914 351.229129 
L 368.76763 348.83305 
L 365.889431 346.404558 
L 363.043902 343.939071 
L 360.231299 341.445754 
L 357.445585 338.928417 
L 354.682307 336.387445 
L 351.94382 333.824422 
L 349.225072 331.245385 
L 346.524649 328.649949 
L 343.840026 326.041455 
L 341.16996 323.420971 
L 338.512397 320.791325 
L 335.86511 318.153501 
L 333.2272 315.509254 
L 330.596741 312.860426 
L 327.971933 310.207915 
L 325.352177 307.552878 
L 322.735033 304.897071 
L 320.120159 302.24015 
L 317.506569 299.583743 
L 314.893236 296.928364 
L 312.279561 294.274698 
L 309.664772 291.623514 
L 307.048656 288.976013 
L 304.429071 286.333265 
L 301.80649 283.694584 
L 299.179455 281.061813 
L 296.547968 278.434222 
L 293.912113 275.813181 
L 291.27035 273.20002 
L 288.622592 270.594565 
L 285.967512 267.997802 
L 283.305539 265.409688 
L 280.635988 262.831893 
L 277.957444 260.264717 
L 275.27098 257.708502 
L 272.573255 255.165303 
L 269.867138 252.632894 
L 267.149331 250.115771 
L 264.42112 247.611535 
L 261.680835 245.124041 
L 258.927019 242.652219 
L 256.162114 240.198036 
L 253.379612 237.764748 
L 250.584092 235.346832 
L 247.772303 232.950795 
L 244.947069 230.573341 
L 242.104023 228.221148 
L 239.244021 225.890621 
L 236.367621 223.585742 
L 233.469555 221.308008 
L 230.554534 219.054423 
L 227.618575 216.831752 
L 224.663006 214.636741 
L 221.687056 212.475726 
L 218.686529 210.349436 
L 215.664295 208.256072 
L 212.61851 206.202228 
L 209.547678 204.189018 
L 206.453682 202.21978 
L 203.330699 200.299911 
L 200.180912 198.427482 
L 197.003037 196.611144 
L 193.794848 194.853037 
L 190.55536 193.156929 
L 187.286971 191.525389 
L 183.988309 189.968907 
L 180.653853 188.493177 
L 177.291138 187.098843 
L 173.894426 185.804572 
L 170.465215 184.607538 
L 167.002951 183.522171 
L 163.509429 182.548642 
L 159.989148 181.697784 
L 156.442491 180.980257 
L 152.87481 180.400772 
L 149.292144 179.973331 
L 145.697532 179.707052 
L 142.094528 179.606132 
L 138.491438 179.668474 
L 134.897897 179.900884 
L 131.316558 180.306318 
L 127.752217 180.876383 
L 124.215751 181.606412 
L 120.714308 182.495378 
L 117.251615 183.541525 
L 113.832039 184.733677 
L 110.461831 186.068196 
L 107.144887 187.53913 
L 103.885403 189.143952 
L 100.684964 190.871873 
L 97.551148 192.719297 
L 94.488408 194.686179 
L 91.49683 196.765884 
L 88.579925 198.952118 
L 85.742359 201.242654 
L 82.986789 203.634238 
L 80.315053 206.122845 
L 77.728438 208.702995 
L 75.232381 211.368693 
L 72.836001 214.124393 
L 70.535446 216.964955 
L 68.333584 219.882589 
L 66.238036 222.876607 
L 64.250773 225.944185 
L 62.374919 229.082583 
L 60.60979 232.284306 
L 58.963906 235.547044 
L 57.440265 238.867585 
L 56.045117 242.241946 
L 54.785613 245.668716 
L 53.660298 249.141043 
L 52.677906 252.655116 
L 51.839336 256.20537 
L 51.151952 259.787008 
L 50.61704 263.39468 
L 50.238667 267.02012 
L 50.024967 270.657549 
L 49.976798 274.301143 
L 50.096215 277.943025 
L 50.383474 281.575745 
L 50.839731 285.191465 
L 51.466828 288.78338 
L 52.258471 292.344852 
L 53.21239 295.867488 
L 54.326188 299.346409 
L 55.588774 302.777974 
L 56.996082 306.155076 
L 58.542202 309.472277 
L 60.228377 312.722855 
L 62.045314 315.90591 
L 63.985436 319.016776 
L 66.046987 322.050743 
L 68.222046 325.007853 
L 70.505132 327.884896 
L 72.889308 330.67973 
L 75.372863 333.387303 
L 77.951215 336.006417 
L 80.619182 338.535143 
L 83.372569 340.969887 
L 86.210777 343.305723 
L 89.129095 345.541924 
L 92.123799 347.674466 
L 95.19142 349.70035 
L 98.328361 351.615296 
L 101.533767 353.411981 
L 104.803698 355.08668 
L 108.136956 356.629846 
L 111.52853 358.038225 
L 114.975209 359.301025 
L 118.473183 360.411997 
L 122.015259 361.368271 
L 125.59724 362.15743 
L 129.210563 362.779218 
L 132.847435 363.223273 
L 136.499508 363.483257 
L 140.15629 363.552835 
L 143.808876 363.431577 
L 147.449388 363.113576 
L 151.069176 362.602469 
L 154.659421 361.901213 
L 158.212073 361.014346 
L 161.720965 359.955311 
L 165.180661 358.731774 
L 168.590175 357.36176 
L 171.947282 355.854517 
L 175.251167 354.222506 
L 178.501873 352.477458 
L 181.699786 350.627979 
L 184.846961 348.687215 
L 187.945024 346.663043 
L 190.999458 344.568352 
L 194.010432 342.407423 
L 196.980173 340.185951 
L 199.912064 337.912028 
L 202.807433 335.589251 
L 205.670217 333.224727 
L 208.502174 330.822953 
L 211.306256 328.387567 
L 214.088887 325.927005 
L 216.849382 323.441823 
L 219.593864 320.939472 
L 222.323316 318.422134 
L 225.041508 315.894221 
L 227.75058 313.35843 
L 230.457725 310.82221 
L 233.169323 308.29267 
L 235.890982 305.775761 
L 238.629983 303.277562 
L 241.399855 300.811091 
L 244.218667 298.394973 
L 247.11305 296.054127 
L 250.143378 293.845757 
L 253.472182 291.913257 
L 257.492309 291.054306 
L 260.361345 293.552675 
L 259.540629 294.492764 
L 257.189293 292.433782 
L 254.106601 293.425338 
L 251.096226 295.281966 
L 248.179064 297.436045 
L 245.342526 299.741567 
L 242.560195 302.136961 
L 239.813016 304.589046 
L 237.087759 307.078124 
L 234.374449 309.589938 
L 231.666362 312.115625 
L 228.958146 314.648933 
L 226.245264 317.18451 
L 223.524632 319.717647 
L 220.794066 322.245346 
L 218.048814 324.761827 
L 215.286777 327.264221 
L 212.50436 329.748247 
L 209.697623 332.208938 
L 206.861042 334.639571 
L 203.993548 337.036764 
L 201.092742 339.39722 
L 198.1543 341.714388 
L 195.174582 343.981803 
L 192.15042 346.194027 
L 189.075349 348.338685 
L 185.947528 350.409741 
L 182.763359 352.396962 
L 179.523999 354.296494 
L 176.226537 356.099087 
L 172.866176 357.786718 
L 169.444545 359.353005 
L 165.958088 360.776498 
L 162.410318 362.045806 
L 158.805773 363.150441 
L 155.150403 364.080254 
L 151.451446 364.828694 
L 147.716694 365.382532 
L 143.956209 365.738127 
L 140.180653 365.890384 
L 136.4015 365.841487 
L 132.627998 365.602397 
L 128.869697 365.178552 
L 125.135887 364.573719 
L 121.433548 363.795949 
L 117.771199 362.847382 
L 114.155821 361.736026 
L 110.592551 360.468644 
L 107.087726 359.051959 
L 103.64323 357.496676 
L 100.26463 355.804764 
L 96.95398 353.985557 
L 93.715819 352.041624 
L 90.551946 349.981015 
L 87.464243 347.808397 
L 84.455496 345.528137 
L 81.526987 343.144603 
L 78.686082 340.65728 
L 75.933037 338.073833 
L 73.270165 335.396746 
L 70.70042 332.628244 
L 68.230609 329.769484 
L 65.861033 326.826161 
L 63.597129 323.798232 
L 61.444849 320.686723 
L 59.41464 317.492107 
L 57.508258 314.220849 
L 55.730284 310.874447 
L 54.091808 307.455427 
L 52.595269 303.970683 
L 51.247263 300.423641 
L 50.051642 296.818753 
L 49.021637 293.159701 
L 48.160374 289.456591 
L 47.468324 285.716059 
L 46.953493 281.945383 
L 46.615967 278.154627 
L 46.456345 274.352224 
L 46.471245 270.546524 
L 46.659726 266.744978 
L 47.021015 262.957133 
L 47.545823 259.190226 
L 48.230937 255.449265 
L 49.07503 251.741788 
L 50.070653 248.073188 
L 51.214979 244.44946 
L 52.500001 240.873816 
L 53.924179 237.351479 
L 55.480276 233.887544 
L 57.162297 230.483939 
L 58.966047 227.145158 
L 60.883433 223.870474 
L 62.91574 220.664383 
L 65.058558 217.530353 
L 67.310216 214.474336 
L 69.663136 211.495603 
L 72.119588 208.596852 
L 74.679699 205.789259 
L 77.33161 203.070896 
L 80.075835 200.442619 
L 82.912458 197.910724 
L 85.838569 195.479877 
L 88.851342 193.155516 
L 91.947307 190.940295 
L 95.12561 188.838796 
L 98.38291 186.858811 
L 101.712057 185.002311 
L 105.111852 183.270707 
L 108.581396 181.673763 
L 112.115978 180.217473 
L 115.711918 178.910999 
L 119.364033 177.757339 
L 123.068128 176.765056 
L 126.814483 175.941814 
L 130.594664 175.285473 
L 134.405844 174.798473 
L 138.239375 174.49413 
L 142.080184 174.368805 
L 145.922407 174.414748 
L 149.759363 174.633842 
L 153.579706 175.019152 
L 157.374487 175.561 
L 161.141352 176.246114 
L 164.875376 177.071497 
L 168.572021 178.02396 
L 172.2324 179.097167 
L 175.850989 180.286066 
L 179.430102 181.577853 
L 182.963614 182.971802 
L 186.456107 184.448687 
L 189.909338 186.010051 
L 193.320051 187.6466 
L 196.691887 189.350672 
L 200.02737 191.118713 
L 203.326888 192.946141 
L 206.589968 194.828246 
L 209.822049 196.759205 
L 213.02069 198.740817 
L 216.187561 200.764303 
L 219.326943 202.827181 
L 222.437723 204.927653 
L 225.524098 207.062121 
L 228.584697 209.233241 
L 231.619392 211.434803 
L 234.632035 213.665909 
L 237.620102 215.926901 
L 240.588217 218.212428 
L 243.535394 220.52617 
L 246.460648 222.863591 
L 249.367877 225.22379 
L 252.254981 227.606468 
L 255.125516 230.007771 
L 257.977468 232.429798 
L 260.816104 234.868224 
L 263.63697 237.32823 
L 266.442509 239.801851 
L 269.234132 242.292128 
L 272.011197 244.796577 
L 274.776273 247.314129 
L 277.527948 249.845082 
L 280.26926 252.386739 
L 282.999013 254.941156 
L 285.718617 257.504822 
L 288.428331 260.078892 
L 291.128669 262.661354 
L 293.820828 265.251822 
L 296.505365 267.849912 
L 299.182324 270.455025 
L 301.852475 273.066045 
L 304.516204 275.681905 
L 307.175437 278.30226 
L 309.829189 280.927153 
L 312.47913 283.555044 
L 315.124576 286.186403 
L 317.766682 288.81879 
L 320.406519 291.45199 
L 323.0446 294.085447 
L 325.681739 296.718304 
L 328.318151 299.349663 
L 330.955247 301.978667 
L 333.592814 304.604717 
L 336.232094 307.225757 
L 338.874072 309.841145 
L 341.519561 312.448997 
L 344.169973 315.047387 
L 346.827408 317.63473 
L 349.491736 320.209528 
L 352.166083 322.768655 
L 354.850706 325.311383 
L 357.54856 327.8345 
L 360.259044 330.33621 
L 362.986014 332.811972 
L 365.732036 335.26183 
L 368.495785 337.682229 
L 371.278845 340.066535 
L 374.089906 342.412219 
L 376.923105 344.719667 
L 379.782421 346.975222 
L 382.675948 349.178797 
L 385.59949 351.32718 
L 388.557414 353.409797 
L 391.550191 355.42061 
L 394.584286 357.350541 
L 397.659785 359.198992 
L 400.771336 360.951747 
L 403.930671 362.597075 
L 407.130126 364.13506 
L 410.370299 365.544551 
L 413.659369 366.82405 
L 416.987702 367.967434 
L 420.352302 368.956806 
L 423.756892 369.788611 
L 427.196121 370.459552 
L 430.6589 370.965563 
L 434.138163 371.296752 
L 437.633269 371.447853 
L 441.135396 371.422891 
L 444.629345 371.220367 
L 448.108095 370.834458 
L 451.567962 370.267518 
L 454.999313 369.52503 
L 458.393071 368.609946 
L 461.741357 367.527747 
L 465.038948 366.28096 
L 468.281818 364.878705 
L 471.461106 363.327403 
L 474.572486 361.633222 
L 477.610178 359.803953 
L 480.570285 357.842508 
L 483.452808 355.758008 
L 486.251838 353.558115 
L 488.962751 351.248226 
L 491.582079 348.831808 
L 494.108707 346.315027 
L 496.538056 343.705034 
L 498.865843 341.002085 
L 501.093652 338.212218 
L 503.215232 335.343182 
L 505.225873 332.396733 
L 507.124934 329.376767 
L 508.908603 326.28671 
L 510.574611 323.135468 
L 512.112639 319.92411 
L 513.5238 316.654179 
L 514.804541 313.333339 
L 515.949466 309.966642 
L 516.954894 306.557256 
L 517.818084 303.109763 
L 518.535824 299.631784 
L 519.101907 296.131284 
L 519.511109 292.608518 
L 519.766213 289.068584 
L 519.863835 285.521884 
L 519.802093 281.973086 
L 519.582656 278.425872 
L 519.209292 274.886237 
L 518.685727 271.362616 
L 518.010803 267.859718 
L 517.193256 264.382467 
L 516.234327 260.936772 
L 515.141039 257.526016 
L 513.917202 254.154866 
L 512.56881 250.824862 
L 511.100788 247.540802 
L 509.520757 244.307479 
L 507.828759 241.127849 
L 506.031089 238.000113 
L 504.133442 234.92714 
L 502.141297 231.911199 
L 500.058166 228.954774 
L 497.888717 226.058292 
L 495.63526 223.223467 
L 493.301779 220.451626 
L 490.892169 217.745594 
L 488.407758 215.106785 
L 485.853127 212.535284 
L 483.228533 210.033746 
L 480.538729 207.602771 
L 477.783458 205.245954 
L 474.966787 202.961156 
L 472.092956 200.753471 
L 469.161664 198.628679 
L 466.172484 196.587894 
L 463.127599 194.631545 
L 460.032147 192.762799 
L 456.887369 190.991418 
L 453.690227 189.320315 
L 450.442904 187.74782 
L 447.155503 186.279969 
L 443.821561 184.92798 
L 440.448184 183.687787 
L 437.036186 182.572919 
L 433.58651 181.578281 
L 430.111271 180.711923 
L 426.606061 179.986304 
L 423.074261 179.393375 
L 419.522466 178.941057 
L 415.955771 178.624254 
L 412.382653 178.449175 
L 408.803712 178.418262 
L 405.222587 178.527359 
L 401.643989 178.775012 
L 398.073012 179.154157 
L 394.517277 179.663421 
L 390.979098 180.303064 
L 387.460272 181.06375 
L 383.966366 181.942654 
L 380.498278 182.936864 
L 377.059691 184.037174 
L 373.652189 185.244141 
L 370.272989 186.546419 
L 366.929498 187.939126 
L 363.621117 189.421963 
L 360.341424 190.986409 
L 357.094357 192.623858 
L 353.884113 194.332939 
L 350.706239 196.109415 
L 347.56189 197.950287 
L 344.448369 199.85333 
L 341.364435 201.808694 
L 338.313127 203.817666 
L 335.288452 205.877504 
L 332.28968 207.979945 
L 329.321138 210.124861 
L 326.378799 212.312422 
L 323.458554 214.536463 
L 320.563443 216.795743 
L 317.691795 219.087649 
L 314.843354 221.411711 
L 312.016151 223.767671 
L 309.207101 226.150306 
L 306.419204 228.558032 
L 303.650402 230.992305 
L 300.8977 233.448414 
L 298.163366 235.927772 
L 295.443034 238.426313 
L 292.739228 240.944764 
L 290.049339 243.480298 
L 287.375548 246.033045 
L 284.715673 248.604589 
L 282.066802 251.190519 
L 279.431161 253.792035 
L 276.805411 256.40631 
L 274.191179 259.033687 
L 271.586153 261.67301 
L 268.990332 264.323465 
L 266.40286 266.984796 
L 263.822154 269.655033 
L 261.248384 272.333961 
L 258.680094 275.020426 
L 256.117157 277.713612 
L 253.558544 280.413221 
L 251.003142 283.117754 
L 248.450609 285.82734 
L 245.898975 288.540008 
L 243.348412 291.255588 
L 240.796778 293.972581 
L 238.243946 296.690173 
L 235.687987 299.407594 
L 233.127362 302.123645 
L 230.560699 304.836613 
L 227.986972 307.545043 
L 225.404895 310.247392 
L 222.813356 312.943234 
L 220.2094 315.631111 
L 217.591657 318.307685 
L 214.958971 320.973597 
L 212.307274 323.623795 
L 209.636951 326.259564 
L 206.940553 328.87628 
L 204.219921 331.467905 
L 201.472914 334.039363 
L 198.691524 336.580763 
L 195.876138 339.092106 
L 193.021403 341.563886 
L 190.128432 343.998673 
L 187.184981 346.387902 
L 184.192418 348.723267 
L 181.142266 351.002671 
L 178.02729 353.210912 
L 174.849415 355.341655 
L 171.599822 357.387278 
L 168.271617 359.333352 
L 164.860219 361.164376 
L 161.361602 362.864167 
L 157.774997 364.41474 
L 154.102201 365.797771 
L 150.347882 366.995575 
L 146.515507 367.994066 
L 142.611115 368.770766 
L 138.652644 369.308162 
L 134.659577 369.595806 
L 130.648656 369.628946 
L 126.63842 369.403044 
L 122.649421 368.921525 
L 118.698443 368.190639 
L 114.805697 367.216682 
L 110.984326 366.014467 
L 107.245507 364.592388 
L 103.600499 362.96864 
L 100.058338 361.159452 
L 96.618295 359.182936 
L 93.284823 357.04804 
L 90.058951 354.770991 
L 86.940378 352.358726 
L 83.930774 349.823192 
L 81.03031 347.174406 
L 78.235905 344.419521 
L 75.548284 341.564443 
L 72.968948 338.615939 
L 70.497853 335.580473 
L 68.132601 332.461387 
L 65.874692 329.259278 
L 63.73226 325.984166 
L 61.698069 322.643758 
L 59.773918 319.232788 
L 57.963702 315.756607 
L 56.271019 312.221168 
L 54.695098 308.629982 
L 53.237995 304.980436 
L 51.906773 301.275441 
L 50.706228 297.521422 
L 49.6397 293.722316 
L 48.711043 289.879879 
L 47.925309 285.997323 
L 47.287765 282.080514 
L 46.804361 278.138999 
L 46.473643 274.179329 
L 46.299635 270.204246 
L 46.284521 266.226036 
L 46.424404 262.252837 
L 46.718856 258.286788 
L 47.167706 254.32943 
L 47.775236 250.392069 
L 48.533653 246.487547 
L 49.439831 242.611971 
L 50.498694 238.769406 
L 51.707588 234.970685 
L 53.064201 231.221975 
L 54.567161 227.525458 
L 56.219168 223.886402 
L 58.015211 220.321719 
L 59.944971 216.831152 
L 62.014358 213.414274 
L 64.221058 210.079218 
L 66.564173 206.833222 
L 69.043275 203.681765 
L 71.660247 200.63187 
L 74.410038 197.699123 
L 77.281729 194.889902 
L 80.275576 192.205365 
L 83.394278 189.650348 
L 86.634793 187.239796 
L 89.987661 184.982572 
L 93.44954 182.886982 
L 97.012896 180.961289 
L 100.672932 179.212345 
L 104.424469 177.650425 
L 108.255773 176.285977 
L 112.153914 175.12461 
L 116.111229 174.17052 
L 120.117654 173.430643 
L 124.153024 172.909517 
L 128.199312 172.600721 
L 132.250096 172.498432 
L 136.293216 172.60025 
L 140.311373 172.89633 
L 144.294592 173.372968 
L 148.24604 174.019119 
L 152.149919 174.831399 
L 156.000277 175.785404 
L 159.804521 176.876851 
L 163.556186 178.096621 
L 167.247521 179.431696 
L 170.884907 180.867477 
L 174.470185 182.40208 
L 178.003398 184.022231 
L 181.487371 185.724076 
L 184.920691 187.499952 
L 188.306999 189.341338 
L 191.646807 191.242411 
L 194.946025 193.197476 
L 198.206665 195.20739 
L 201.423803 197.26209 
L 204.608528 199.357681 
L 207.760156 201.497929 
L 210.876203 203.671703 
L 213.964975 205.880245 
L 217.021935 208.121113 
L 220.050506 210.385445 
L 223.057285 212.676709 
L 226.040856 214.992721 
L 229.001563 217.33104 
L 231.940647 219.688842 
L 234.862005 222.064541 
L 237.765937 224.459464 
L 240.652057 226.868603 
L 243.524176 229.293499 
L 246.381308 231.732952 
L 249.222899 234.182981 
L 252.053956 236.644186 
L 254.873238 239.117465 
L 257.682202 241.600805 
L 260.480676 244.093095 
L 263.269044 246.594119 
L 266.048036 249.10178 
L 268.819021 251.615734 
L 271.584226 254.13654 
L 274.340439 256.66197 
L 277.092799 259.191724 
L 279.838736 261.727387 
L 282.577052 264.262879 
L 285.313954 266.800383 
L 288.045848 269.341013 
L 290.775857 271.880958 
L 293.502526 274.422358 
L 296.227654 276.962132 
L 298.952055 279.502547 
L 301.673757 282.04078 
L 304.396059 284.576357 
L 307.11909 287.110008 
L 309.844004 289.641689 
L 312.568661 292.17033 
L 315.295202 294.694261 
L 318.023156 297.21451 
L 320.750767 299.725938 
L 323.485657 302.232101 
L 326.220462 304.732525 
L 328.959377 307.220833 
L 331.703174 309.701733 
L 334.451209 312.170002 
L 337.204339 314.625769 
L 339.966247 317.067449 
L 342.735391 319.496497 
L 345.510272 321.905765 
L 348.296843 324.298205 
L 351.091249 326.671335 
L 353.897087 329.020744 
L 356.714186 331.348445 
L 359.541132 333.646431 
L 362.380196 335.913932 
L 365.233818 338.147008 
L 368.105552 340.344845 
L 370.990044 342.501449 
L 373.892306 344.609114 
L 376.820472 346.671735 
L 379.766279 348.68182 
L 382.730882 350.629606 
L 385.722032 352.513938 
L 388.738358 354.329976 
L 391.773995 356.068516 
L 394.840931 357.722578 
L 397.936554 359.293018 
L 401.055427 360.765151 
L 404.194552 362.132082 
L 407.361209 363.383065 
L 410.560449 364.518357 
L 413.784994 365.528623 
L 417.031461 366.407099 
L 420.299637 367.14552 
L 423.587508 367.739177 
L 426.89028 368.180962 
L 430.20594 368.46805 
L 433.530334 368.595859 
L 436.859052 368.561391 
L 440.187686 368.363748 
L 443.508355 368.002073 
L 446.81331 367.475682 
L 450.095915 366.785943 
L 453.349961 365.935384 
L 456.568597 364.925418 
L 459.747457 363.757842 
L 462.879646 362.439251 
L 465.957628 360.972 
L 468.980548 359.361226 
L 471.94391 357.614893 
L 474.84189 355.740924 
L 477.670892 353.744454 
L 480.428989 351.633107 
L 483.111814 349.414718 
L 485.714957 347.095323 
L 488.235248 344.67882 
L 490.669221 342.172401 
L 493.012765 339.579791 
L 495.266392 336.902447 
L 497.42745 334.146576 
L 499.490713 331.318388 
L 501.452415 328.420536 
L 503.311399 325.45559 
L 505.064582 322.429159 
L 506.70794 319.344326 
L 508.239203 316.202503 
L 509.654945 313.009215 
L 510.948831 309.769512 
L 512.11692 306.485666 
L 513.154589 303.159216 
L 514.057856 299.793075 
L 514.822866 296.390626 
L 515.447651 292.954993 
L 515.93144 289.494484 
L 516.267639 286.011581 
L 516.458688 282.508341 
L 516.503346 278.995124 
L 516.401142 275.475741 
L 516.151434 271.954774 
L 515.754606 268.436162 
L 515.218067 264.9259 
L 514.542843 261.430709 
L 513.732361 257.951702 
L 512.794156 254.492221 
L 511.734522 251.056545 
L 510.562408 247.653239 
L 509.280168 244.285 
L 507.88896 240.951358 
L 506.396489 237.649785 
L 504.81406 234.384093 
L 503.141587 231.161218 
L 501.382966 227.976278 
L 499.543078 224.828761 
L 497.630488 221.719864 
L 495.650161 218.654641 
L 493.595246 215.632278 
L 491.476535 212.648835 
L 489.29484 209.711763 
L 487.052301 206.817122 
L 484.750162 203.968082 
L 482.389749 201.165241 
L 479.974487 198.407615 
L 477.506732 195.695675 
L 474.986911 193.031775 
L 472.417465 190.418913 
L 469.795526 187.855676 
L 467.128886 185.342577 
L 464.411337 182.890964 
L 461.641593 180.494927 
L 458.824922 178.155751 
L 455.964921 175.879815 
L 453.056151 173.678296 
L 450.095187 171.551021 
L 447.085583 169.502743 
L 444.026868 167.546222 
L 440.919984 165.69045 
L 437.756624 163.955507 
L 434.53589 162.345546 
L 431.263861 160.876026 
L 427.941608 159.572849 
L 424.569686 158.451001 
L 421.153835 157.524357 
L 417.703045 156.814495 
L 414.228064 156.341153 
L 410.739852 156.117006 
L 407.253139 156.151645 
L 403.786036 156.444899 
L 400.351645 156.994112 
L 396.963496 157.788794 
L 393.632936 158.827705 
L 390.363604 160.090891 
L 387.163251 161.563238 
L 384.035258 163.226591 
L 380.984721 165.058172 
L 378.021402 167.05524 
L 375.137766 169.193262 
L 372.339164 171.470568 
L 369.614806 173.864678 
L 366.968119 176.364075 
L 364.394691 178.959211 
L 361.891484 181.644691 
L 359.440256 184.391912 
L 357.053724 187.205158 
L 354.720243 190.075692 
L 352.429407 192.989172 
L 350.182159 195.942429 
L 347.975287 198.932423 
L 345.797446 201.947635 
L 343.651288 204.98841 
L 341.527696 208.047767 
L 339.421059 211.120826 
L 337.321358 214.201121 
L 335.21365 217.277605 
L 333.094725 220.347966 
L 330.952806 223.404669 
L 328.772224 226.435596 
L 326.555205 229.442288 
L 324.286463 232.412843 
L 321.963044 235.342122 
L 319.586146 238.229312 
L 317.148748 241.066835 
L 314.649864 243.850194 
L 312.093221 246.579176 
L 309.483956 249.255664 
L 306.82194 251.877946 
L 304.108287 254.443238 
L 301.358239 256.963787 
L 298.587383 259.455776 
L 295.812929 261.938004 
L 293.065194 264.445836 
L 290.360532 267.000424 
L 287.706095 269.609732 
L 285.093361 272.266739 
L 282.360569 274.735307 
z
" clip-path="url(#p72033f6834)" style="fill: #6a3d9a; opacity: 0.19"/>
   </g>
   <g id="line2d_21">
    <path d="M 282.188188 274.510604 
L 293.462107 258.377132 
L 300.453303 248.765452 
L 307.676695 239.309156 
L 312.637596 233.110674 
L 317.723223 227.009685 
L 322.943038 221.020364 
L 328.302137 215.154526 
L 333.813878 209.431569 
L 339.497144 203.879237 
L 345.365508 198.524805 
L 351.42201 193.387198 
L 357.681035 188.502426 
L 364.150506 183.905083 
L 370.835732 179.632336 
L 377.751998 175.748282 
L 381.303022 173.983024 
L 384.906241 172.326993 
L 388.567776 170.804165 
L 392.286257 169.42426 
L 396.058131 168.195413 
L 399.878988 167.125589 
L 403.742833 166.220909 
L 407.651165 165.52629 
L 411.58493 164.990093 
L 415.544428 164.69684 
L 419.513903 164.576695 
L 423.484148 164.670892 
L 427.445145 164.971425 
L 431.386703 165.466389 
L 435.29649 166.170128 
L 439.166844 167.064532 
L 442.990227 168.142192 
L 446.76056 169.391719 
L 450.465168 170.825102 
L 454.117027 172.388307 
L 457.675801 174.152622 
L 461.17416 176.033785 
L 464.592238 178.056501 
L 467.926609 180.215161 
L 471.179584 182.494564 
L 474.341617 184.898308 
L 477.421055 187.407125 
L 480.40651 190.027309 
L 483.30539 192.743017 
L 486.100609 195.565126 
L 488.810623 198.469657 
L 491.421215 201.463504 
L 496.347563 207.696112 
L 498.650987 210.932603 
L 502.969249 217.601087 
L 506.849664 224.533666 
L 508.626996 228.086617 
L 510.296643 231.691591 
L 511.841393 235.351542 
L 513.279743 239.054909 
L 514.596236 242.80302 
L 516.858727 250.418915 
L 517.791238 254.280491 
L 518.595939 258.170882 
L 519.290131 262.082554 
L 519.824486 266.019231 
L 520.246276 269.96948 
L 520.525914 273.932318 
L 520.674703 277.902306 
L 520.688276 281.874864 
L 520.574511 285.846094 
L 520.333238 289.811372 
L 519.457631 297.707804 
L 518.822955 301.629281 
L 517.193898 309.405268 
L 515.038792 317.051863 
L 513.781772 320.820184 
L 512.402081 324.54543 
L 510.892484 328.219725 
L 509.267195 331.844309 
L 507.526343 335.414686 
L 505.643082 338.912061 
L 503.660742 342.354116 
L 501.540019 345.712164 
L 499.311053 348.999822 
L 496.95809 352.199405 
L 494.477276 355.301108 
L 491.889462 358.313752 
L 489.180476 361.218026 
L 486.358281 364.012603 
L 483.414145 366.678387 
L 480.367889 369.226638 
L 477.201361 371.623746 
L 473.94252 373.894372 
L 470.571498 375.99373 
L 467.107777 377.938305 
L 463.555682 379.715851 
L 459.910332 381.294512 
L 456.195019 382.700021 
L 452.408202 383.89971 
L 448.564909 384.903425 
L 444.672462 385.69541 
L 440.745034 386.287312 
L 436.789175 386.641622 
L 432.82167 386.819355 
L 428.852667 386.728541 
L 424.892398 386.465859 
L 420.953794 385.993759 
L 417.045206 385.322646 
L 413.171855 384.478724 
L 409.348686 383.4378 
L 405.57009 382.249887 
L 401.847541 380.901452 
L 398.178042 379.418658 
L 394.567116 377.802147 
L 387.511182 374.227744 
L 380.68603 370.233308 
L 374.060919 365.916716 
L 367.621806 361.324983 
L 361.362523 356.487138 
L 355.252115 351.4582 
L 349.277437 346.26369 
L 343.425986 340.9254 
L 337.682476 335.466109 
L 329.237259 327.093296 
L 320.96635 318.538382 
L 310.159265 306.909254 
L 299.529398 295.106802 
L 283.782863 277.214152 
L 257.579827 247.357973 
L 246.935231 235.573462 
L 238.827155 226.857599 
L 230.569348 218.292966 
L 222.127429 209.920239 
L 216.3736 204.474521 
L 210.501897 199.161365 
L 204.496347 194.005047 
L 198.327922 189.050226 
L 191.993667 184.312872 
L 185.455175 179.862906 
L 182.110657 177.752886 
L 175.239178 173.836419 
L 171.713458 172.043459 
L 168.126425 170.374668 
L 164.482402 168.831331 
L 160.771927 167.448942 
L 157.007846 166.215728 
L 153.184805 165.172151 
L 149.321645 164.281858 
L 145.406976 163.643971 
L 141.466403 163.179706 
L 137.504893 162.936335 
L 133.534091 162.914798 
L 129.5671 163.098911 
L 125.618177 163.527508 
L 121.695844 164.155976 
L 117.817827 165.018095 
L 113.989905 166.079014 
L 110.225952 167.348708 
L 106.526653 168.794722 
L 102.912901 170.443346 
L 99.371725 172.242429 
L 95.930954 174.226139 
L 92.575518 176.351615 
L 89.323013 178.630676 
L 86.172798 181.049578 
L 83.121619 183.591663 
L 80.178381 186.258432 
L 77.338247 189.034683 
L 74.614618 191.925641 
L 71.991565 194.9078 
L 69.488957 197.991991 
L 67.081274 201.151154 
L 64.800757 204.403102 
L 62.631393 207.730579 
L 60.55871 211.119028 
L 58.62304 214.587886 
L 56.788205 218.111165 
L 55.073729 221.694474 
L 53.468607 225.328349 
L 51.992278 229.01643 
L 50.626117 232.746772 
L 49.372522 236.516463 
L 47.245847 244.171364 
L 46.366986 248.045485 
L 44.973423 255.866987 
L 44.480471 259.809102 
L 44.102868 263.76389 
L 43.851875 267.728612 
L 43.72822 271.699499 
L 43.734899 275.672185 
L 43.863735 279.642816 
L 44.112416 283.607795 
L 44.987467 291.504355 
L 45.605915 295.428486 
L 47.186417 303.21475 
L 49.252507 310.886136 
L 50.440891 314.676849 
L 53.181519 322.133337 
L 54.715137 325.797698 
L 56.359779 329.413504 
L 58.123666 332.972321 
L 59.987103 336.480101 
L 61.967302 339.922841 
L 66.257518 346.606739 
L 68.577598 349.829871 
L 71.001894 352.975333 
L 73.535673 356.032764 
L 76.184844 358.990902 
L 78.935405 361.854928 
L 81.807695 364.596969 
L 84.783088 367.226316 
L 87.873017 369.720361 
L 91.056586 372.093533 
L 94.358416 374.299891 
L 97.745109 376.37433 
L 101.242269 378.256435 
L 104.823608 379.97408 
L 108.487755 381.506199 
L 112.230728 382.836137 
L 116.037412 383.969716 
L 119.902328 384.887454 
L 123.811858 385.588539 
L 127.754615 386.071129 
L 131.717282 386.332484 
L 135.688341 386.356119 
L 139.654475 386.186735 
L 143.601043 385.777019 
L 147.52496 385.196293 
L 151.410342 384.407348 
L 155.253635 383.43703 
L 159.048887 382.300282 
L 162.791903 381.006654 
L 166.482211 379.574298 
L 170.113731 378.002487 
L 173.697981 376.327274 
L 180.685452 372.620439 
L 187.469842 368.557152 
L 194.064081 364.190936 
L 200.469113 359.548893 
L 206.725826 354.705053 
L 212.835935 349.672605 
L 218.817763 344.483403 
L 224.686298 339.16147 
L 233.302483 330.968745 
L 241.726848 322.5687 
L 249.984912 313.995846 
L 258.117865 305.29711 
L 268.804977 293.545182 
L 281.995255 278.69472 
L 316.161731 239.977657 
L 326.875562 228.263751 
L 335.052573 219.619992 
L 343.397084 211.148272 
L 349.07761 205.625056 
L 354.866677 200.220913 
L 360.785265 194.964318 
L 366.859278 189.893249 
L 373.10927 185.045641 
L 379.551552 180.458618 
L 386.227272 176.218198 
L 389.654984 174.245663 
L 393.150731 172.394429 
L 396.703811 170.654049 
L 400.332848 169.074788 
L 404.020758 167.634682 
L 407.774478 166.369741 
L 411.584502 165.278979 
L 415.45173 164.405813 
L 419.360147 163.729947 
L 423.301148 163.273475 
L 427.265142 163.060076 
L 431.235345 163.051427 
L 435.198354 163.315393 
L 439.142952 163.780599 
L 443.05047 164.495643 
L 446.914016 165.419376 
L 450.718431 166.562974 
L 454.458321 167.901603 
L 458.119128 169.443185 
L 461.709544 171.142076 
L 465.201053 173.0351 
L 468.616005 175.063553 
L 471.929052 177.253469 
L 475.150258 179.577402 
L 478.275639 182.028545 
L 481.293078 184.61152 
L 484.215164 187.301753 
L 487.034147 190.099969 
L 489.755165 192.993796 
L 492.357451 195.995008 
L 494.869736 199.071963 
L 497.260164 202.244314 
L 499.551984 205.489197 
L 501.732909 208.809267 
L 505.75736 215.658953 
L 507.595107 219.180904 
L 509.320331 222.759417 
L 510.936029 226.388668 
L 512.428071 230.07067 
L 513.802495 233.797971 
L 516.195749 241.373747 
L 518.073359 249.093388 
L 518.832889 252.992728 
L 519.950154 260.858546 
L 520.309688 264.814875 
L 520.541285 268.780882 
L 520.658818 272.751855 
L 520.625849 276.724498 
L 520.479072 280.6944 
L 520.195752 284.657024 
L 519.796955 288.609757 
L 519.266796 292.546776 
L 518.618333 296.466369 
L 517.857004 300.365367 
L 515.962354 308.081026 
L 514.843076 311.892677 
L 512.261856 319.406496 
L 509.221552 326.746222 
L 507.53131 330.341305 
L 505.735567 333.884708 
L 503.824689 337.367097 
L 501.805441 340.787957 
L 499.680692 344.144036 
L 497.429719 347.416536 
L 495.086047 350.623355 
L 492.624415 353.740087 
L 490.048418 356.763264 
L 487.368248 359.693914 
L 484.572343 362.514481 
L 481.673464 365.228904 
L 478.664674 367.821257 
L 475.548841 370.283789 
L 472.322155 372.599201 
L 469.005596 374.783894 
L 465.577071 376.788156 
L 462.067451 378.647782 
L 458.459651 380.307453 
L 454.774395 381.78969 
L 451.015495 383.072957 
L 447.190271 384.144366 
L 443.311953 385.003702 
L 439.391547 385.645143 
L 435.440184 386.05139 
L 431.472379 386.236831 
L 427.501963 386.189732 
L 423.54118 385.911422 
L 419.601121 385.435854 
L 415.697927 384.72552 
L 411.831556 383.843834 
L 408.020847 382.751958 
L 404.266099 381.485775 
L 400.571167 380.060399 
L 396.936478 378.491842 
L 393.367214 376.78366 
L 386.405562 373.0275 
L 379.692848 368.845096 
L 373.190879 364.342165 
L 366.87602 359.577323 
L 360.742234 354.577844 
L 354.754882 349.400546 
L 348.900348 344.06885 
L 340.331047 335.834806 
L 331.964271 327.38398 
L 323.758487 318.766768 
L 312.995631 307.097263 
L 299.724173 292.328881 
L 265.336376 253.798243 
L 254.574333 242.114523 
L 243.633359 230.608451 
L 235.271764 222.138657 
L 226.748706 213.840174 
L 218.019356 205.769391 
L 212.067071 200.541698 
L 206.002134 195.44892 
L 199.799498 190.528995 
L 193.444563 185.811423 
L 186.921271 181.333197 
L 180.217934 177.130499 
L 173.295374 173.297225 
L 169.759378 171.519893 
L 166.155689 169.882059 
L 162.501989 168.357989 
L 158.790187 166.978427 
L 155.020796 165.761269 
L 151.198098 164.719019 
L 147.332327 163.840971 
L 143.423952 163.167932 
L 139.483165 162.699428 
L 135.523709 162.424115 
L 131.553207 162.38588 
L 127.585017 162.536767 
L 123.632669 162.926444 
L 119.704085 163.512651 
L 115.813694 164.315084 
L 111.969544 165.317386 
L 108.188208 166.5348 
L 104.465873 167.922241 
L 100.828101 169.517387 
L 97.262348 171.268258 
L 93.790749 173.197718 
L 90.411463 175.285687 
L 87.120466 177.509943 
L 83.949913 179.903025 
L 80.87223 182.414068 
L 77.912251 185.062554 
L 75.055161 187.82185 
L 72.319928 190.702018 
L 69.687841 193.676984 
L 67.193368 196.768111 
L 64.802684 199.940377 
L 62.53574 203.20183 
L 60.394164 206.547461 
L 58.363227 209.961429 
L 56.478082 213.457818 
L 54.698053 217.0091 
L 53.049728 220.623279 
L 51.534993 224.295775 
L 50.143784 228.016526 
L 48.877858 231.782021 
L 47.74749 235.590375 
L 46.754308 239.436751 
L 45.872236 243.310187 
L 45.146917 247.215992 
L 44.550091 251.143592 
L 44.067801 255.086691 
L 43.757635 259.047303 
L 43.559735 263.015022 
L 43.504844 266.987065 
L 43.586967 270.958809 
L 43.803149 274.925286 
L 44.147612 278.882729 
L 44.626605 282.826171 
L 45.964764 290.656793 
L 46.833734 294.532969 
L 48.901493 302.203841 
L 51.484169 309.71719 
L 52.932153 313.416532 
L 56.180933 320.666685 
L 57.968455 324.214584 
L 59.863705 327.706092 
L 61.863642 331.138728 
L 63.967667 334.508722 
L 66.174154 337.812179 
L 70.890313 344.20595 
L 73.411161 347.276097 
L 76.017215 350.274654 
L 78.717724 353.188262 
L 81.525617 355.998382 
L 84.414691 358.725009 
L 87.401302 361.344464 
L 90.479328 363.855807 
L 93.645043 366.255313 
L 96.892281 368.543836 
L 100.229991 370.697743 
L 103.652093 372.715278 
L 107.138807 374.618406 
L 110.714494 376.349325 
L 114.35218 377.946098 
L 118.058373 379.375328 
L 121.825366 380.636886 
L 125.641727 381.739166 
L 129.508783 382.64877 
L 133.413775 383.3773 
L 137.350795 383.904719 
L 141.307124 384.250552 
L 145.275914 384.384997 
L 149.246373 384.356139 
L 153.207113 384.092857 
L 157.152353 383.664688 
L 161.072674 383.059727 
L 164.95964 382.268041 
L 168.815136 381.33643 
L 172.621948 380.222675 
L 176.389198 378.981797 
L 180.107509 377.600479 
L 183.782745 376.107109 
L 190.973382 372.751673 
L 194.497089 370.926043 
L 201.390405 366.987996 
L 208.083252 362.713836 
L 214.581925 358.146295 
L 220.893358 353.320781 
L 227.02008 348.261829 
L 232.966798 342.993288 
L 238.742035 337.539777 
L 244.336499 331.905922 
L 249.759267 326.114158 
L 255.011452 320.177544 
L 260.088001 314.103916 
L 264.978426 307.898326 
L 269.668981 301.566169 
L 274.122244 295.10419 
L 276.21792 291.814007 
L 276.21792 291.814007 
" clip-path="url(#p72033f6834)" style="fill: none; stroke-dasharray: 8.14,3.52; stroke-dashoffset: 0; stroke: #222222; stroke-width: 2.2"/>
   </g>
   <g id="line2d_22">
    <path d="M 282.240039 274.606343 
L 284.926504 272.095728 
L 290.185582 266.820764 
L 298.304876 259.153917 
L 303.708676 254.030868 
L 308.9803 248.767722 
L 314.074576 243.330097 
L 318.969453 237.711441 
L 323.663219 231.924044 
L 328.169704 225.990513 
L 332.527914 219.947628 
L 338.877669 210.751658 
L 349.366967 195.371507 
L 353.702698 189.325325 
L 358.213164 183.41423 
L 362.974282 177.709855 
L 365.467513 174.95741 
L 368.052758 172.292225 
L 370.734299 169.725349 
L 373.516373 167.268041 
L 376.411099 164.944407 
L 379.417663 162.765966 
L 382.540261 160.754168 
L 385.774226 158.922373 
L 389.11746 157.29473 
L 392.564653 155.896114 
L 396.105273 154.748405 
L 399.724847 153.874896 
L 403.401925 153.282181 
L 407.114455 152.977496 
L 410.839316 152.9572 
L 414.555185 153.21179 
L 418.242453 153.731074 
L 421.886219 154.494244 
L 425.47595 155.479462 
L 429.004367 156.665063 
L 432.465562 158.034136 
L 435.858677 159.563429 
L 439.186625 161.229651 
L 442.449234 163.020813 
L 445.644835 164.929079 
L 451.857576 169.029573 
L 457.851522 173.445714 
L 463.634723 178.136697 
L 469.226018 183.056537 
L 474.616287 188.197483 
L 479.808914 193.53907 
L 484.800857 199.069009 
L 489.581242 204.782889 
L 494.136752 210.677028 
L 498.453387 216.747659 
L 502.505798 222.996666 
L 506.280027 229.416384 
L 509.729918 236.014562 
L 512.829052 242.782767 
L 514.22891 246.231245 
L 515.520226 249.721684 
L 516.70373 253.249801 
L 517.773897 256.813456 
L 518.720794 260.411494 
L 519.537013 264.040916 
L 520.21395 267.69864 
L 520.75066 271.3791 
L 521.13764 275.077929 
L 521.373047 278.789217 
L 521.451702 282.50727 
L 521.374632 286.225366 
L 521.140637 289.937083 
L 520.745094 293.635226 
L 520.19344 297.313588 
L 519.485376 300.965318 
L 518.623171 304.583951 
L 517.609993 308.163577 
L 516.449868 311.698802 
L 515.147547 315.184701 
L 513.709625 318.617251 
L 512.142268 321.992983 
L 510.448772 325.307615 
L 508.632904 328.557251 
L 506.700275 331.738979 
L 504.654181 334.849245 
L 502.498005 337.884325 
L 500.23667 340.84195 
L 497.873474 343.718907 
L 495.409829 346.510315 
L 492.847491 349.211466 
L 490.191512 351.820303 
L 487.443434 354.331432 
L 484.606211 356.740914 
L 481.681985 359.043267 
L 478.672766 361.23237 
L 475.579926 363.300129 
L 472.406419 365.240037 
L 469.155199 367.044129 
L 465.829306 368.703501 
L 462.432979 370.209459 
L 458.972641 371.557593 
L 455.453986 372.739213 
L 451.884593 373.749479 
L 448.272212 374.583939 
L 444.625835 375.239295 
L 440.954709 375.713835 
L 437.267826 376.007174 
L 433.573622 376.119055 
L 429.880616 376.049649 
L 426.197073 375.802552 
L 422.530144 375.381105 
L 418.887833 374.791216 
L 415.275666 374.041534 
L 411.69908 373.137924 
L 408.161372 372.09135 
L 404.665196 370.909644 
L 401.212694 369.602314 
L 397.807418 368.172228 
L 391.132126 365.000048 
L 384.630542 361.46949 
L 378.293889 357.635445 
L 372.107567 353.549509 
L 366.051065 349.261348 
L 360.112696 344.800206 
L 354.272805 340.201965 
L 345.664799 333.102656 
L 337.199758 325.821161 
L 326.079894 315.908779 
L 312.36254 303.303766 
L 290.621202 282.906367 
L 266.17957 259.963928 
L 252.455279 247.397493 
L 241.329507 237.521505 
L 232.871145 230.254997 
L 224.286902 223.145755 
L 215.548689 216.23437 
L 209.622651 211.760255 
L 203.599889 207.419771 
L 197.468843 203.235484 
L 191.220136 199.230214 
L 184.838825 195.442113 
L 178.313478 191.907872 
L 171.632705 188.679988 
L 164.789785 185.811166 
L 161.308338 184.528798 
L 157.786686 183.363749 
L 154.226156 182.325823 
L 150.629618 181.422342 
L 147.001437 180.659301 
L 143.344398 180.056866 
L 139.665608 179.616451 
L 135.971104 179.348331 
L 132.268807 179.263425 
L 128.567752 179.368798 
L 124.877401 179.665776 
L 121.207988 180.157915 
L 117.570602 180.850051 
L 113.974662 181.738288 
L 110.429547 182.815991 
L 106.944632 184.078492 
L 103.529037 185.521424 
L 100.189443 187.136565 
L 96.932229 188.914796 
L 93.763603 190.84918 
L 90.689302 192.93291 
L 87.713781 195.157722 
L 84.843332 197.517964 
L 82.078684 200.002761 
L 79.422191 202.604191 
L 76.878136 205.316816 
L 74.453797 208.137726 
L 72.149602 211.058356 
L 69.965852 214.070615 
L 67.904515 217.16825 
L 65.967005 220.344926 
L 64.154692 223.594819 
L 62.466419 226.911078 
L 60.912121 230.292076 
L 59.492353 233.731734 
L 58.205918 237.223414 
L 57.055212 240.761978 
L 56.04242 244.342332 
L 55.168997 247.959166 
L 54.431432 251.606101 
L 53.834049 255.278597 
L 53.382673 258.971859 
L 53.073192 262.679808 
L 52.905821 266.396705 
L 52.881458 270.117199 
L 53.004214 273.835723 
L 53.272377 277.546498 
L 53.682863 281.244341 
L 54.236914 284.923346 
L 54.930849 288.578758 
L 55.760256 292.205739 
L 56.720169 295.800009 
L 57.807463 299.357755 
L 59.01944 302.87474 
L 60.353145 306.347196 
L 61.802499 309.772766 
L 63.363648 313.148584 
L 65.037064 316.469938 
L 66.820219 319.733275 
L 68.710673 322.935213 
L 70.703545 326.074081 
L 72.804274 329.141274 
L 75.009904 332.133494 
L 77.316667 335.047959 
L 79.724821 337.878802 
L 82.233724 340.619987 
L 84.843674 343.26479 
L 87.552189 345.807475 
L 90.359911 348.239478 
L 93.266926 350.551465 
L 96.271435 352.733846 
L 99.371297 354.777328 
L 102.566469 356.667483 
L 105.851686 358.395703 
L 109.224249 359.944992 
L 112.678079 361.302247 
L 116.204612 362.45398 
L 119.792845 363.392014 
L 123.431901 364.102305 
L 127.10748 364.579671 
L 130.803868 364.819189 
L 134.505565 364.818375 
L 138.197329 364.580784 
L 141.864473 364.109584 
L 145.493724 363.412053 
L 149.073735 362.501978 
L 152.597314 361.397814 
L 156.059279 360.112749 
L 159.456119 358.662325 
L 162.785908 357.062298 
L 166.049417 355.328339 
L 169.2493 353.475992 
L 175.470432 349.470509 
L 181.477309 345.135763 
L 187.3008 340.544457 
L 192.969637 335.752426 
L 198.508353 330.801245 
L 206.620796 323.146643 
L 214.55602 315.29427 
L 224.955746 304.63015 
L 240.359831 288.42847 
L 258.343853 269.535316 
L 268.744477 258.865074 
L 279.302325 248.359248 
L 287.355296 240.624193 
L 295.547464 233.043665 
L 303.893602 225.640527 
L 312.421028 218.454515 
L 318.219514 213.805706 
L 324.118621 209.288346 
L 330.125155 204.917462 
L 336.248836 200.714421 
L 342.498399 196.701787 
L 348.882365 192.904865 
L 355.411951 189.360306 
L 362.090069 186.098682 
L 368.919288 183.158398 
L 375.898794 180.584714 
L 379.443782 179.452848 
L 383.022123 178.428709 
L 386.632578 177.521161 
L 390.27189 176.734913 
L 393.936508 176.073519 
L 397.622791 175.545672 
L 401.325645 175.15167 
L 405.040615 174.893955 
L 408.762222 174.779205 
L 412.485071 174.809092 
L 416.203253 174.98858 
L 419.911073 175.314546 
L 423.603565 175.781508 
L 427.274648 176.393619 
L 430.919998 177.143087 
L 434.532165 178.038261 
L 438.109522 179.063727 
L 441.648429 180.214904 
L 445.143277 181.494617 
L 448.594324 182.888866 
L 451.995061 184.40176 
L 455.346987 186.021311 
L 458.647917 187.74281 
L 461.892929 189.568868 
L 468.215238 193.503361 
L 474.305907 197.789638 
L 480.150893 202.407019 
L 485.741888 207.329898 
L 491.059626 212.547059 
L 496.084581 218.046597 
L 500.797658 223.815155 
L 505.174236 229.842327 
L 507.226924 232.950067 
L 509.185158 236.117965 
L 511.043242 239.345336 
L 512.796511 242.63051 
L 514.436401 245.97353 
L 515.962911 249.369557 
L 517.37039 252.816322 
L 518.653528 256.310956 
L 519.80402 259.851491 
L 520.818867 263.433086 
L 521.689636 267.052275 
L 522.41457 270.70332 
L 522.985406 274.381254 
L 523.401073 278.079868 
L 523.657075 281.792998 
L 523.748318 285.51392 
L 523.672318 289.235227 
L 523.431087 292.949556 
L 523.027152 296.649968 
L 522.456017 300.328673 
L 521.724275 303.979033 
L 520.838906 307.595181 
L 519.80235 311.171083 
L 518.617648 314.700827 
L 517.288995 318.179148 
L 515.822642 321.601722 
L 514.221288 324.963281 
L 512.486431 328.257789 
L 510.628688 331.484432 
L 508.648747 334.637516 
L 506.551016 337.713272 
L 504.336865 340.706177 
L 502.013189 343.61439 
L 499.582898 346.433887 
L 497.045651 349.157131 
L 494.407227 351.782282 
L 491.670282 354.304243 
L 488.837084 356.717279 
L 485.911444 359.016977 
L 482.896916 361.198673 
L 479.79624 363.256284 
L 476.610316 365.179451 
L 473.344581 366.963762 
L 470.003146 368.601682 
L 466.590891 370.086317 
L 463.113726 371.411416 
L 459.576317 372.565034 
L 455.986972 373.543529 
L 452.353525 374.340267 
L 448.685053 374.951993 
L 444.990635 375.371942 
L 441.280931 375.596303 
L 437.566688 375.630856 
L 433.857969 375.478128 
L 430.16475 375.134822 
L 426.49615 374.605604 
L 422.859277 373.901436 
L 419.261797 373.026729 
L 415.7112 371.986234 
L 412.212327 370.787573 
L 408.765048 369.450271 
L 405.373217 367.976683 
L 402.039361 366.374387 
L 398.75804 364.664449 
L 392.362043 360.936333 
L 386.166515 356.873689 
L 380.155228 352.533377 
L 374.301122 347.974398 
L 368.584159 343.235546 
L 362.981646 338.353813 
L 354.74619 330.829461 
L 346.665859 323.125491 
L 336.050636 312.675199 
L 312.394695 288.904937 
L 296.54724 273.134124 
L 283.177303 260.168379 
L 272.321705 249.973533 
L 264.061672 242.462968 
L 255.67854 235.097252 
L 247.157494 227.898565 
L 238.477897 220.899063 
L 229.618983 214.133299 
L 223.605556 209.768924 
L 217.495619 205.541605 
L 211.284205 201.464917 
L 204.960312 197.564078 
L 198.515204 193.864907 
L 191.937706 190.401786 
L 185.222208 187.208797 
L 178.36062 184.338348 
L 171.348829 181.852353 
L 167.787486 180.773066 
L 164.192403 179.81007 
L 160.56525 178.97197 
L 156.908468 178.270629 
L 153.227237 177.709983 
L 149.525754 177.303608 
L 145.80997 177.060921 
L 142.087378 176.98749 
L 138.365385 177.081302 
L 134.65187 177.349679 
L 130.955611 177.795874 
L 127.283372 178.409099 
L 123.641961 179.185713 
L 120.039171 180.126358 
L 116.481767 181.22624 
L 112.97403 182.475554 
L 109.521613 183.870958 
L 106.128369 185.404919 
L 102.798709 187.073153 
L 99.533916 188.865342 
L 96.338358 190.779046 
L 93.217858 192.813237 
L 90.174086 194.960679 
L 87.209268 197.216019 
L 84.32743 199.576689 
L 81.531312 202.03845 
L 78.82331 204.596849 
L 76.204069 207.246148 
L 73.675984 209.982751 
L 71.249547 212.809998 
L 68.922831 215.719624 
L 66.696092 218.706492 
L 64.57691 221.770517 
L 62.567082 224.90733 
L 60.670505 228.113892 
L 58.886065 231.384123 
L 57.22207 234.717294 
L 55.682201 238.109553 
L 54.272538 241.557903 
L 53.000275 245.059088 
L 51.865454 248.607115 
L 50.876468 252.198473 
L 50.035115 255.827296 
L 49.348887 259.488617 
L 48.819028 263.175885 
L 48.449218 266.882549 
L 48.248106 270.602058 
L 48.21655 274.326705 
L 48.356091 278.048826 
L 48.668483 281.760585 
L 49.154028 285.453762 
L 49.81358 289.119964 
L 50.640033 292.752298 
L 51.632016 296.343099 
L 52.786704 299.885046 
L 54.092022 303.374329 
L 55.543945 306.805251 
L 57.136222 310.173362 
L 58.868339 313.471852 
L 60.729977 316.699009 
L 62.715143 319.85175 
L 64.822037 322.924509 
L 67.041539 325.917029 
L 69.36787 328.827212 
L 71.794864 331.653987 
L 74.321493 334.392046 
L 76.942147 337.040146 
L 79.652632 339.596233 
L 82.449778 342.057223 
L 85.333158 344.416909 
L 88.296691 346.675161 
L 91.337894 348.82774 
L 94.453641 350.871008 
L 97.641192 352.800426 
L 100.89922 354.608372 
L 104.223443 356.291678 
L 107.612319 357.840924 
L 111.06054 359.253413 
L 114.565494 360.518525 
L 118.12217 361.629711 
L 121.724403 362.582089 
L 125.366542 363.365596 
L 129.040152 363.978863 
L 132.737738 364.412856 
L 136.450525 364.662393 
L 140.168493 364.721609 
L 143.882521 364.584852 
L 147.58302 364.248054 
L 151.260311 363.715582 
L 154.904934 362.990734 
L 158.508923 362.082372 
L 162.065642 361.000559 
L 165.569353 359.754157 
L 169.01736 358.357382 
L 172.406708 356.820639 
L 175.738852 355.160797 
L 179.012936 353.386976 
L 185.397244 349.548478 
L 191.574918 345.381189 
L 197.567236 340.950191 
L 203.40049 336.313029 
L 209.099898 331.515945 
L 217.449119 324.101804 
L 228.354342 314.003681 
L 239.2215 303.933304 
L 244.780596 299.06827 
L 247.646036 296.745065 
L 250.619802 294.563883 
L 253.789413 292.669276 
L 257.340822 291.744044 
L 259.950987 294.02272 
L 259.950987 294.02272 
" clip-path="url(#p72033f6834)" style="fill: none; stroke: #6a3d9a; stroke-width: 2.6; stroke-linecap: round"/>
   </g>
   <g id="patch_4">
    <path d="M 43.504844 510.372375 
L 43.504844 26.244375 
" style="fill: none; stroke: #cccccc; stroke-linejoin: miter; stroke-linecap: square"/>
   </g>
   <g id="patch_5">
    <path d="M 527.632844 510.372375 
L 527.632844 26.244375 
" style="fill: none; stroke: #cccccc; stroke-linejoin: miter; stroke-linecap: square"/>
   </g>
   <g id="patch_6">
    <path d="M 43.504844 510.372375 
L 527.632844 510.372375 
" style="fill: none; stroke: #cccccc; stroke-linejoin: miter; stroke-linecap: square"/>
   </g>
   <g id="patch_7">
    <path d="M 43.504844 26.244375 
L 527.632844 26.244375 
" style="fill: none; stroke: #cccccc; stroke-linejoin: miter; stroke-linecap: square"/>
   </g>
   <g id="text_13">
    <!-- lemniscate: 10-run mean path + 1σ corridor -->
    <g style="fill: #262626" transform="translate(112.6915 20.244375) scale(0.18 -0.18)">
     <defs>
      <path id="LiberationSans-6c" d="M 431 0 
L 431 4638 
L 994 4638 
L 994 0 
L 431 0 
z
" transform="scale(0.015625)"/>
      <path id="LiberationSans-65" d="M 863 1572 
Q 863 991 1103 675 
Q 1344 359 1806 359 
Q 2172 359 2392 506 
Q 2613 653 2691 878 
L 3184 738 
Q 2881 -63 1806 -63 
Q 1056 -63 664 384 
Q 272 831 272 1713 
Q 272 2550 664 2997 
Q 1056 3444 1784 3444 
Q 3275 3444 3275 1647 
L 3275 1572 
L 863 1572 
z
M 2694 2003 
Q 2647 2538 2422 2783 
Q 2197 3028 1775 3028 
Q 1366 3028 1127 2754 
Q 888 2481 869 2003 
L 2694 2003 
z
" transform="scale(0.015625)"/>
      <path id="LiberationSans-6e" d="M 2578 0 
L 2578 2144 
Q 2578 2478 2512 2662 
Q 2447 2847 2303 2928 
Q 2159 3009 1881 3009 
Q 1475 3009 1240 2731 
Q 1006 2453 1006 1959 
L 1006 0 
L 444 0 
L 444 2659 
Q 444 3250 425 3381 
L 956 3381 
Q 959 3366 962 3297 
Q 966 3228 970 3139 
Q 975 3050 981 2803 
L 991 2803 
Q 1184 3153 1439 3298 
Q 1694 3444 2072 3444 
Q 2628 3444 2886 3167 
Q 3144 2891 3144 2253 
L 3144 0 
L 2578 0 
z
" transform="scale(0.015625)"/>
      <path id="LiberationSans-69" d="M 428 4100 
L 428 4638 
L 991 4638 
L 991 4100 
L 428 4100 
z
M 428 0 
L 428 3381 
L 991 3381 
L 991 0 
L 428 0 
z
" transform="scale(0.015625)"/>
      <path id="LiberationSans-73" d="M 2969 934 
Q 2969 456 2608 196 
Q 2247 -63 1597 -63 
Q 966 -63 623 145 
Q 281 353 178 794 
L 675 891 
Q 747 619 972 492 
Q 1197 366 1597 366 
Q 2025 366 2223 497 
Q 2422 628 2422 891 
Q 2422 1091 2284 1216 
Q 2147 1341 1841 1422 
L 1438 1528 
Q 953 1653 748 1773 
Q 544 1894 428 2066 
Q 313 2238 313 2488 
Q 313 2950 642 3192 
Q 972 3434 1603 3434 
Q 2163 3434 2492 3237 
Q 2822 3041 2909 2606 
L 2403 2544 
Q 2356 2769 2151 2889 
Q 1947 3009 1603 3009 
Q 1222 3009 1040 2893 
Q 859 2778 859 2544 
Q 859 2400 934 2306 
Q 1009 2213 1156 2147 
Q 1303 2081 1775 1966 
Q 2222 1853 2419 1758 
Q 2616 1663 2730 1547 
Q 2844 1431 2906 1279 
Q 2969 1128 2969 934 
z
" transform="scale(0.015625)"/>
      <path id="LiberationSans-63" d="M 859 1706 
Q 859 1031 1071 706 
Q 1284 381 1713 381 
Q 2013 381 2214 543 
Q 2416 706 2463 1044 
L 3031 1006 
Q 2966 519 2616 228 
Q 2266 -63 1728 -63 
Q 1019 -63 645 385 
Q 272 834 272 1694 
Q 272 2547 647 2995 
Q 1022 3444 1722 3444 
Q 2241 3444 2583 3175 
Q 2925 2906 3013 2434 
L 2434 2391 
Q 2391 2672 2212 2837 
Q 2034 3003 1706 3003 
Q 1259 3003 1059 2706 
Q 859 2409 859 1706 
z
" transform="scale(0.015625)"/>
      <path id="LiberationSans-61" d="M 1294 -63 
Q 784 -63 528 206 
Q 272 475 272 944 
Q 272 1469 617 1750 
Q 963 2031 1731 2050 
L 2491 2063 
L 2491 2247 
Q 2491 2659 2316 2837 
Q 2141 3016 1766 3016 
Q 1388 3016 1216 2887 
Q 1044 2759 1009 2478 
L 422 2531 
Q 566 3444 1778 3444 
Q 2416 3444 2737 3151 
Q 3059 2859 3059 2306 
L 3059 850 
Q 3059 600 3125 473 
Q 3191 347 3375 347 
Q 3456 347 3559 369 
L 3559 19 
Q 3347 -31 3125 -31 
Q 2813 -31 2670 133 
Q 2528 297 2509 647 
L 2491 647 
Q 2275 259 1989 98 
Q 1703 -63 1294 -63 
z
M 1422 359 
Q 1731 359 1972 500 
Q 2213 641 2352 886 
Q 2491 1131 2491 1391 
L 2491 1669 
L 1875 1656 
Q 1478 1650 1273 1575 
Q 1069 1500 959 1344 
Q 850 1188 850 934 
Q 850 659 998 509 
Q 1147 359 1422 359 
z
" transform="scale(0.015625)"/>
      <path id="LiberationSans-74" d="M 1731 25 
Q 1453 -50 1163 -50 
Q 488 -50 488 716 
L 488 2972 
L 97 2972 
L 97 3381 
L 509 3381 
L 675 4138 
L 1050 4138 
L 1050 3381 
L 1675 3381 
L 1675 2972 
L 1050 2972 
L 1050 838 
Q 1050 594 1129 495 
Q 1209 397 1406 397 
Q 1519 397 1731 441 
L 1731 25 
z
" transform="scale(0.015625)"/>
      <path id="LiberationSans-3a" d="M 584 2734 
L 584 3381 
L 1194 3381 
L 1194 2734 
L 584 2734 
z
M 584 0 
L 584 647 
L 1194 647 
L 1194 0 
L 584 0 
z
" transform="scale(0.015625)"/>
      <path id="LiberationSans-31" d="M 488 0 
L 488 478 
L 1609 478 
L 1609 3866 
L 616 3156 
L 616 3688 
L 1656 4403 
L 2175 4403 
L 2175 478 
L 3247 478 
L 3247 0 
L 488 0 
z
" transform="scale(0.015625)"/>
      <path id="LiberationSans-2d" d="M 284 1450 
L 284 1950 
L 1847 1950 
L 1847 1450 
L 284 1450 
z
" transform="scale(0.015625)"/>
      <path id="LiberationSans-72" d="M 444 0 
L 444 2594 
Q 444 2950 425 3381 
L 956 3381 
Q 981 2806 981 2691 
L 994 2691 
Q 1128 3125 1303 3284 
Q 1478 3444 1797 3444 
Q 1909 3444 2025 3413 
L 2025 2897 
Q 1913 2928 1725 2928 
Q 1375 2928 1190 2626 
Q 1006 2325 1006 1763 
L 1006 0 
L 444 0 
z
" transform="scale(0.015625)"/>
      <path id="LiberationSans-75" d="M 981 3381 
L 981 1238 
Q 981 903 1047 718 
Q 1113 534 1256 453 
Q 1400 372 1678 372 
Q 2084 372 2318 650 
Q 2553 928 2553 1422 
L 2553 3381 
L 3116 3381 
L 3116 722 
Q 3116 131 3134 0 
L 2603 0 
Q 2600 16 2597 84 
Q 2594 153 2589 242 
Q 2584 331 2578 578 
L 2569 578 
Q 2375 228 2120 82 
Q 1866 -63 1488 -63 
Q 931 -63 673 214 
Q 416 491 416 1128 
L 416 3381 
L 981 3381 
z
" transform="scale(0.015625)"/>
      <path id="LiberationSans-70" d="M 3291 1706 
Q 3291 -63 2047 -63 
Q 1266 -63 997 525 
L 981 525 
Q 994 500 994 -6 
L 994 -1328 
L 431 -1328 
L 431 2691 
Q 431 3213 413 3381 
L 956 3381 
Q 959 3369 965 3292 
Q 972 3216 980 3056 
Q 988 2897 988 2838 
L 1000 2838 
Q 1150 3150 1397 3295 
Q 1644 3441 2047 3441 
Q 2672 3441 2981 3022 
Q 3291 2603 3291 1706 
z
M 2700 1694 
Q 2700 2400 2509 2703 
Q 2319 3006 1903 3006 
Q 1569 3006 1380 2865 
Q 1191 2725 1092 2426 
Q 994 2128 994 1650 
Q 994 984 1206 668 
Q 1419 353 1897 353 
Q 2316 353 2508 661 
Q 2700 969 2700 1694 
z
" transform="scale(0.015625)"/>
      <path id="LiberationSans-68" d="M 991 2803 
Q 1172 3134 1426 3289 
Q 1681 3444 2072 3444 
Q 2622 3444 2883 3170 
Q 3144 2897 3144 2253 
L 3144 0 
L 2578 0 
L 2578 2144 
Q 2578 2500 2512 2673 
Q 2447 2847 2297 2928 
Q 2147 3009 1881 3009 
Q 1484 3009 1245 2734 
Q 1006 2459 1006 1994 
L 1006 0 
L 444 0 
L 444 4638 
L 1006 4638 
L 1006 3431 
Q 1006 3241 995 3037 
Q 984 2834 981 2803 
L 991 2803 
z
" transform="scale(0.015625)"/>
      <path id="LiberationSans-2b" d="M 2097 1900 
L 2097 563 
L 1638 563 
L 1638 1900 
L 313 1900 
L 313 2356 
L 1638 2356 
L 1638 3694 
L 2097 3694 
L 2097 2356 
L 3422 2356 
L 3422 1900 
L 2097 1900 
z
" transform="scale(0.015625)"/>
      <path id="LiberationSans-3c3" d="M 3350 1534 
Q 3350 781 2942 359 
Q 2534 -63 1819 -63 
Q 1069 -63 669 376 
Q 269 816 269 1638 
Q 269 2466 737 2923 
Q 1206 3381 2075 3381 
L 3853 3381 
L 3853 2972 
L 3338 2972 
L 2875 2991 
L 2875 2978 
Q 3128 2600 3239 2253 
Q 3350 1906 3350 1534 
z
M 2759 1525 
Q 2759 2322 2372 2972 
L 2094 2972 
Q 1519 2972 1191 2622 
Q 863 2272 863 1644 
Q 863 353 1794 353 
Q 2266 353 2512 654 
Q 2759 956 2759 1525 
z
" transform="scale(0.015625)"/>
      <path id="LiberationSans-6f" d="M 3291 1694 
Q 3291 806 2900 371 
Q 2509 -63 1766 -63 
Q 1025 -63 647 389 
Q 269 841 269 1694 
Q 269 3444 1784 3444 
Q 2559 3444 2925 3017 
Q 3291 2591 3291 1694 
z
M 2700 1694 
Q 2700 2394 2492 2711 
Q 2284 3028 1794 3028 
Q 1300 3028 1079 2704 
Q 859 2381 859 1694 
Q 859 1025 1076 689 
Q 1294 353 1759 353 
Q 2266 353 2483 678 
Q 2700 1003 2700 1694 
z
" transform="scale(0.015625)"/>
      <path id="LiberationSans-64" d="M 2566 544 
Q 2409 219 2151 78 
Q 1894 -63 1513 -63 
Q 872 -63 570 368 
Q 269 800 269 1675 
Q 269 3444 1513 3444 
Q 1897 3444 2153 3303 
Q 2409 3163 2566 2856 
L 2572 2856 
L 2566 3234 
L 2566 4638 
L 3128 4638 
L 3128 697 
Q 3128 169 3147 0 
L 2609 0 
Q 2600 50 2589 231 
Q 2578 413 2578 544 
L 2566 544 
z
M 859 1694 
Q 859 984 1046 678 
Q 1234 372 1656 372 
Q 2134 372 2350 703 
Q 2566 1034 2566 1731 
Q 2566 2403 2350 2715 
Q 2134 3028 1663 3028 
Q 1238 3028 1048 2714 
Q 859 2400 859 1694 
z
" transform="scale(0.015625)"/>
     </defs>
     <use xlink:href="#LiberationSans-6c"/>
     <use xlink:href="#LiberationSans-65" transform="translate(22.216797 0)"/>
     <use xlink:href="#LiberationSans-6d" transform="translate(77.832031 0)"/>
     <use xlink:href="#LiberationSans-6e" transform="translate(161.132812 0)"/>
     <use xlink:href="#LiberationSans-69" transform="translate(216.748047 0)"/>
     <use xlink:href="#LiberationSans-73" transform="translate(238.964844 0)"/>
     <use xlink:href="#LiberationSans-63" transform="translate(288.964844 0)"/>
     <use xlink:href="#LiberationSans-61" transform="translate(338.964844 0)"/>
     <use xlink:href="#LiberationSans-74" transform="translate(394.580078 0)"/>
     <use xlink:href="#LiberationSans-65" transform="translate(422.363281 0)"/>
     <use xlink:href="#LiberationSans-3a" transform="translate(477.978516 0)"/>
     <use xlink:href="#LiberationSans-20" transform="translate(505.761719 0)"/>
     <use xlink:href="#LiberationSans-31" transform="translate(533.544922 0)"/>
     <use xlink:href="#LiberationSans-30" transform="translate(589.160156 0)"/>
     <use xlink:href="#LiberationSans-2d" transform="translate(644.775391 0)"/>
     <use xlink:href="#LiberationSans-72" transform="translate(678.076172 0)"/>
     <use xlink:href="#LiberationSans-75" transform="translate(711.376953 0)"/>
     <use xlink:href="#LiberationSans-6e" transform="translate(766.992188 0)"/>
     <use xlink:href="#LiberationSans-20" transform="translate(822.607422 0)"/>
     <use xlink:href="#LiberationSans-6d" transform="translate(850.390625 0)"/>
     <use xlink:href="#LiberationSans-65" transform="translate(933.691406 0)"/>
     <use xlink:href="#LiberationSans-61" transform="translate(989.306641 0)"/>
     <use xlink:href="#LiberationSans-6e" transform="translate(1044.921875 0)"/>
     <use xlink:href="#LiberationSans-20" transform="translate(1100.537109 0)"/>
     <use xlink:href="#LiberationSans-70" transform="translate(1128.320312 0)"/>
     <use xlink:href="#LiberationSans-61" transform="translate(1183.935547 0)"/>
     <use xlink:href="#LiberationSans-74" transform="translate(1239.550781 0)"/>
     <use xlink:href="#LiberationSans-68" transform="translate(1267.333984 0)"/>
     <use xlink:href="#LiberationSans-20" transform="translate(1322.949219 0)"/>
     <use xlink:href="#LiberationSans-2b" transform="translate(1350.732422 0)"/>
     <use xlink:href="#LiberationSans-20" transform="translate(1409.130859 0)"/>
     <use xlink:href="#LiberationSans-31" transform="translate(1436.914062 0)"/>
     <use xlink:href="#LiberationSans-3c3" transform="translate(1492.529297 0)"/>
     <use xlink:href="#LiberationSans-20" transform="translate(1554.248047 0)"/>
     <use xlink:href="#LiberationSans-63" transform="translate(1582.03125 0)"/>
     <use xlink:href="#LiberationSans-6f" transform="translate(1632.03125 0)"/>
     <use xlink:href="#LiberationSans-72" transform="translate(1687.646484 0)"/>
     <use xlink:href="#LiberationSans-72" transform="translate(1720.947266 0)"/>
     <use xlink:href="#LiberationSans-69" transform="translate(1754.248047 0)"/>
     <use xlink:href="#LiberationSans-64" transform="translate(1776.464844 0)"/>
     <use xlink:href="#LiberationSans-6f" transform="translate(1832.080078 0)"/>
     <use xlink:href="#LiberationSans-72" transform="translate(1887.695312 0)"/>
    </g>
   </g>
   <g id="legend_1">
    <g id="patch_8">
     <path d="M 345.146281 66.5525 
L 519.932844 66.5525 
Q 522.132844 66.5525 522.132844 64.3525 
L 522.132844 33.944375 
Q 522.132844 31.744375 519.932844 31.744375 
L 345.146281 31.744375 
Q 342.946281 31.744375 342.946281 33.944375 
L 342.946281 64.3525 
Q 342.946281 66.5525 345.146281 66.5525 
z
" style="fill: #ffffff; opacity: 0.8; stroke: #cccccc; stroke-linejoin: miter"/>
    </g>
    <g id="line2d_23">
     <path d="M 347.346281 40.265937 
L 358.346281 40.265937 
L 369.346281 40.265937 
" style="fill: none; stroke-dasharray: 8.14,3.52; stroke-dashoffset: 0; stroke: #222222; stroke-width: 2.2"/>
    </g>
    <g id="text_14">
     <!-- Reference -->
     <g style="fill: #262626" transform="translate(378.146281 44.115937) scale(0.11 -0.11)">
      <defs>
       <path id="LiberationSans-52" d="M 3638 0 
L 2494 1828 
L 1122 1828 
L 1122 0 
L 525 0 
L 525 4403 
L 2597 4403 
Q 3341 4403 3745 4070 
Q 4150 3738 4150 3144 
Q 4150 2653 3864 2318 
Q 3578 1984 3075 1897 
L 4325 0 
L 3638 0 
z
M 3550 3138 
Q 3550 3522 3289 3723 
Q 3028 3925 2538 3925 
L 1122 3925 
L 1122 2300 
L 2563 2300 
Q 3034 2300 3292 2520 
Q 3550 2741 3550 3138 
z
" transform="scale(0.015625)"/>
       <path id="LiberationSans-66" d="M 1128 2972 
L 1128 0 
L 566 0 
L 566 2972 
L 91 2972 
L 91 3381 
L 566 3381 
L 566 3763 
Q 566 4225 769 4428 
Q 972 4631 1391 4631 
Q 1625 4631 1788 4594 
L 1788 4166 
Q 1647 4191 1538 4191 
Q 1322 4191 1225 4081 
Q 1128 3972 1128 3684 
L 1128 3381 
L 1788 3381 
L 1788 2972 
L 1128 2972 
z
" transform="scale(0.015625)"/>
      </defs>
      <use xlink:href="#LiberationSans-52"/>
      <use xlink:href="#LiberationSans-65" transform="translate(72.216797 0)"/>
      <use xlink:href="#LiberationSans-66" transform="translate(127.832031 0)"/>
      <use xlink:href="#LiberationSans-65" transform="translate(155.615234 0)"/>
      <use xlink:href="#LiberationSans-72" transform="translate(211.230469 0)"/>
      <use xlink:href="#LiberationSans-65" transform="translate(244.53125 0)"/>
      <use xlink:href="#LiberationSans-6e" transform="translate(300.146484 0)"/>
      <use xlink:href="#LiberationSans-63" transform="translate(355.761719 0)"/>
      <use xlink:href="#LiberationSans-65" transform="translate(405.761719 0)"/>
     </g>
    </g>
    <g id="line2d_24">
     <path d="M 347.346281 56.02 
L 358.346281 56.02 
L 369.346281 56.02 
" style="fill: none; stroke: #6a3d9a; stroke-width: 2.6; stroke-linecap: round"/>
    </g>
    <g id="text_15">
     <!-- Re-identified from SITL ident -->
     <g style="fill: #262626" transform="translate(378.146281 59.87) scale(0.11 -0.11)">
      <defs>
       <path id="LiberationSans-53" d="M 3975 1216 
Q 3975 606 3498 271 
Q 3022 -63 2156 -63 
Q 547 -63 291 1056 
L 869 1172 
Q 969 775 1294 589 
Q 1619 403 2178 403 
Q 2756 403 3070 601 
Q 3384 800 3384 1184 
Q 3384 1400 3286 1534 
Q 3188 1669 3009 1756 
Q 2831 1844 2584 1903 
Q 2338 1963 2038 2031 
Q 1516 2147 1245 2262 
Q 975 2378 819 2520 
Q 663 2663 580 2853 
Q 497 3044 497 3291 
Q 497 3856 930 4162 
Q 1363 4469 2169 4469 
Q 2919 4469 3316 4239 
Q 3713 4009 3872 3456 
L 3284 3353 
Q 3188 3703 2916 3861 
Q 2644 4019 2163 4019 
Q 1634 4019 1356 3844 
Q 1078 3669 1078 3322 
Q 1078 3119 1186 2986 
Q 1294 2853 1497 2761 
Q 1700 2669 2306 2534 
Q 2509 2488 2711 2439 
Q 2913 2391 3097 2323 
Q 3281 2256 3442 2165 
Q 3603 2075 3722 1944 
Q 3841 1813 3908 1634 
Q 3975 1456 3975 1216 
z
" transform="scale(0.015625)"/>
       <path id="LiberationSans-49" d="M 591 0 
L 591 4403 
L 1188 4403 
L 1188 0 
L 591 0 
z
" transform="scale(0.015625)"/>
       <path id="LiberationSans-54" d="M 2250 3916 
L 2250 0 
L 1656 0 
L 1656 3916 
L 144 3916 
L 144 4403 
L 3763 4403 
L 3763 3916 
L 2250 3916 
z
" transform="scale(0.015625)"/>
       <path id="LiberationSans-4c" d="M 525 0 
L 525 4403 
L 1122 4403 
L 1122 488 
L 3347 488 
L 3347 0 
L 525 0 
z
" transform="scale(0.015625)"/>
      </defs>
      <use xlink:href="#LiberationSans-52"/>
      <use xlink:href="#LiberationSans-65" transform="translate(72.216797 0)"/>
      <use xlink:href="#LiberationSans-2d" transform="translate(127.832031 0)"/>
      <use xlink:href="#LiberationSans-69" transform="translate(161.132812 0)"/>
      <use xlink:href="#LiberationSans-64" transform="translate(183.349609 0)"/>
      <use xlink:href="#LiberationSans-65" transform="translate(238.964844 0)"/>
      <use xlink:href="#LiberationSans-6e" transform="translate(294.580078 0)"/>
      <use xlink:href="#LiberationSans-74" transform="translate(350.195312 0)"/>
      <use xlink:href="#LiberationSans-69" transform="translate(377.978516 0)"/>
      <use xlink:href="#LiberationSans-66" transform="translate(400.195312 0)"/>
      <use xlink:href="#LiberationSans-69" transform="translate(427.978516 0)"/>
      <use xlink:href="#LiberationSans-65" transform="translate(450.195312 0)"/>
      <use xlink:href="#LiberationSans-64" transform="translate(505.810547 0)"/>
      <use xlink:href="#LiberationSans-20" transform="translate(561.425781 0)"/>
      <use xlink:href="#LiberationSans-66" transform="translate(589.208984 0)"/>
      <use xlink:href="#LiberationSans-72" transform="translate(616.992188 0)"/>
      <use xlink:href="#LiberationSans-6f" transform="translate(650.292969 0)"/>
      <use xlink:href="#LiberationSans-6d" transform="translate(705.908203 0)"/>
      <use xlink:href="#LiberationSans-20" transform="translate(789.208984 0)"/>
      <use xlink:href="#LiberationSans-53" transform="translate(816.992188 0)"/>
      <use xlink:href="#LiberationSans-49" transform="translate(883.691406 0)"/>
      <use xlink:href="#LiberationSans-54" transform="translate(911.474609 0)"/>
      <use xlink:href="#LiberationSans-4c" transform="translate(972.558594 0)"/>
      <use xlink:href="#LiberationSans-20" transform="translate(1024.423828 0)"/>
      <use xlink:href="#LiberationSans-69" transform="translate(1052.207031 0)"/>
      <use xlink:href="#LiberationSans-64" transform="translate(1074.423828 0)"/>
      <use xlink:href="#LiberationSans-65" transform="translate(1130.039062 0)"/>
      <use xlink:href="#LiberationSans-6e" transform="translate(1185.654297 0)"/>
      <use xlink:href="#LiberationSans-74" transform="translate(1241.269531 0)"/>
     </g>
    </g>
   </g>
  </g>
 </g>
 <defs>
  <clipPath id="p72033f6834">
   <rect x="43.504844" y="26.244375" width="484.128" height="484.128"/>
  </clipPath>
 </defs>
</svg>
