<?xml version="1.0" encoding="utf-8" standalone="no"?>
<!DOCTYPE svg PUBLIC "-//W3C//DTD SVG 1.1//EN"
  "http://www.w3.org/Graphics/SVG/1.1/DTD/svg11.dtd">
<svg xmlns:xlink="http://www.w3.org/1999/xlink" width="534.832844pt" height="551.173625pt" viewBox="0 0 534.832844 551.173625" xmlns="http://www.w3.org/2000/svg" version="1.1">
 <metadata>
  <rdf:RDF xmlns:dc="http://purl.org/dc/elements/1.1/" xmlns:cc="http://creativecommons.org/ns#" xmlns:rdf="http://www.w3.org/1999/02/22-rdf-syntax-ns#">
   <cc:Work>
    <dc:type rdf:resource="http://purl.org/dc/dcmitype/StillImage"/>
    <dc:date>2026-04-11T12:25:10.410637</dc:date>
    <dc:format>image/svg+xml</dc:format>
    <dc:creator>
     <cc:Agent>
      <dc:title>Matplotlib v3.10.8, https://matplotlib.org/</dc:title>
     </cc:Agent>
    </dc:creator>
   </cc:Work>
  </rdf:RDF>
 </metadata>
 <defs>
  <style type="text/css">*{stroke-linejoin: round; stroke-linecap: butt}</style>
 </defs>
 <g id="figure_1">
  <g id="patch_1">
   <path d="M 0 551.173625 
L 534.832844 551.173625 
L 534.832844 0 
L 0 0 
z
" style="fill: #ffffff"/>
  </g>
  <g id="axes_1">
   <g id="patch_2">
    <path d="M 43.504844 510.372375 
L 527.632844 510.372375 
L 527.632844 26.244375 
L 43.504844 26.244375 
z
" style="fill: #fffdf8"/>
   </g>
   <g id="matplotlib.axis_1">
    <g id="xtick_1">
     <g id="line2d_1">
      <path d="M 118.498734 510.372375 
L 118.498734 26.244375 
" clip-path="url(#p89bb05829e)" style="fill: none; stroke: #cccccc; stroke-opacity: 0.25; stroke-width: 0.8; stroke-linecap: round"/>
     </g>
     <g id="line2d_2"/>
     <g id="text_1">
      <!-- −4 -->
      <g style="fill: #262626" transform="translate(111.087718 523.293312) scale(0.13 -0.13)">
       <defs>
        <path id="LiberationSans-2212" d="M 316 1900 
L 316 2356 
L 3425 2356 
L 3425 1900 
L 316 1900 
z
" transform="scale(0.015625)"/>
        <path id="LiberationSans-34" d="M 2753 997 
L 2753 0 
L 2222 0 
L 2222 997 
L 147 997 
L 147 1434 
L 2163 4403 
L 2753 4403 
L 2753 1441 
L 3372 1441 
L 3372 997 
L 2753 997 
z
M 2222 3769 
Q 2216 3750 2134 3603 
Q 2053 3456 2013 3397 
L 884 1734 
L 716 1503 
L 666 1441 
L 2222 1441 
L 2222 3769 
z
" transform="scale(0.015625)"/>
       </defs>
       <use xlink:href="#LiberationSans-2212"/>
       <use xlink:href="#LiberationSans-34" transform="translate(58.398438 0)"/>
      </g>
     </g>
    </g>
    <g id="xtick_2">
     <g id="line2d_3">
      <path d="M 203.246594 510.372375 
L 203.246594 26.244375 
" clip-path="url(#p89bb05829e)" style="fill: none; stroke: #cccccc; stroke-opacity: 0.25; stroke-width: 0.8; stroke-linecap: round"/>
     </g>
     <g id="line2d_4"/>
     <g id="text_2">
      <!-- −2 -->
      <g style="fill: #262626" transform="translate(195.835579 523.293312) scale(0.13 -0.13)">
       <defs>
        <path id="LiberationSans-32" d="M 322 0 
L 322 397 
Q 481 763 711 1042 
Q 941 1322 1194 1548 
Q 1447 1775 1695 1969 
Q 1944 2163 2144 2356 
Q 2344 2550 2467 2762 
Q 2591 2975 2591 3244 
Q 2591 3606 2378 3806 
Q 2166 4006 1788 4006 
Q 1428 4006 1195 3811 
Q 963 3616 922 3263 
L 347 3316 
Q 409 3844 795 4156 
Q 1181 4469 1788 4469 
Q 2453 4469 2811 4155 
Q 3169 3841 3169 3263 
Q 3169 3006 3051 2753 
Q 2934 2500 2703 2247 
Q 2472 1994 1819 1463 
Q 1459 1169 1246 933 
Q 1034 697 941 478 
L 3238 478 
L 3238 0 
L 322 0 
z
" transform="scale(0.015625)"/>
       </defs>
       <use xlink:href="#LiberationSans-2212"/>
       <use xlink:href="#LiberationSans-32" transform="translate(58.398438 0)"/>
      </g>
     </g>
    </g>
    <g id="xtick_3">
     <g id="line2d_5">
      <path d="M 287.994455 510.372375 
L 287.994455 26.244375 
" clip-path="url(#p89bb05829e)" style="fill: none; stroke: #cccccc; stroke-opacity: 0.25; stroke-width: 0.8; stroke-linecap: round"/>
     </g>
     <g id="line2d_6"/>
     <g id="text_3">
      <!-- 0 -->
      <g style="fill: #262626" transform="translate(284.379845 523.293312) scale(0.13 -0.13)">
       <defs>
        <path id="LiberationSans-30" d="M 3309 2203 
Q 3309 1100 2920 518 
Q 2531 -63 1772 -63 
Q 1013 -63 631 515 
Q 250 1094 250 2203 
Q 250 3338 620 3903 
Q 991 4469 1791 4469 
Q 2569 4469 2939 3897 
Q 3309 3325 3309 2203 
z
M 2738 2203 
Q 2738 3156 2517 3584 
Q 2297 4013 1791 4013 
Q 1272 4013 1045 3591 
Q 819 3169 819 2203 
Q 819 1266 1048 831 
Q 1278 397 1778 397 
Q 2275 397 2506 840 
Q 2738 1284 2738 2203 
z
" transform="scale(0.015625)"/>
       </defs>
       <use xlink:href="#LiberationSans-30"/>
      </g>
     </g>
    </g>
    <g id="xtick_4">
     <g id="line2d_7">
      <path d="M 372.742315 510.372375 
L 372.742315 26.244375 
" clip-path="url(#p89bb05829e)" style="fill: none; stroke: #cccccc; stroke-opacity: 0.25; stroke-width: 0.8; stroke-linecap: round"/>
     </g>
     <g id="line2d_8"/>
     <g id="text_4">
      <!-- 2 -->
      <g style="fill: #262626" transform="translate(369.127706 523.293312) scale(0.13 -0.13)">
       <use xlink:href="#LiberationSans-32"/>
      </g>
     </g>
    </g>
    <g id="xtick_5">
     <g id="line2d_9">
      <path d="M 457.490175 510.372375 
L 457.490175 26.244375 
" clip-path="url(#p89bb05829e)" style="fill: none; stroke: #cccccc; stroke-opacity: 0.25; stroke-width: 0.8; stroke-linecap: round"/>
     </g>
     <g id="line2d_10"/>
     <g id="text_5">
      <!-- 4 -->
      <g style="fill: #262626" transform="translate(453.875566 523.293312) scale(0.13 -0.13)">
       <use xlink:href="#LiberationSans-34"/>
      </g>
     </g>
    </g>
    <g id="text_6">
     <!-- X [m] -->
     <g style="fill: #262626" transform="translate(268.068063 540.861125) scale(0.15 -0.15)">
      <defs>
       <path id="LiberationSans-58" d="M 3475 0 
L 2153 1925 
L 803 0 
L 144 0 
L 1819 2288 
L 272 4403 
L 931 4403 
L 2156 2675 
L 3347 4403 
L 4006 4403 
L 2500 2309 
L 4134 0 
L 3475 0 
z
" transform="scale(0.015625)"/>
       <path id="LiberationSans-20" transform="scale(0.015625)"/>
       <path id="LiberationSans-5b" d="M 456 -1328 
L 456 4638 
L 1728 4638 
L 1728 4234 
L 1000 4234 
L 1000 -925 
L 1728 -925 
L 1728 -1328 
L 456 -1328 
z
" transform="scale(0.015625)"/>
       <path id="LiberationSans-6d" d="M 2400 0 
L 2400 2144 
Q 2400 2634 2265 2821 
Q 2131 3009 1781 3009 
Q 1422 3009 1212 2734 
Q 1003 2459 1003 1959 
L 1003 0 
L 444 0 
L 444 2659 
Q 444 3250 425 3381 
L 956 3381 
Q 959 3366 962 3297 
Q 966 3228 970 3139 
Q 975 3050 981 2803 
L 991 2803 
Q 1172 3163 1406 3303 
Q 1641 3444 1978 3444 
Q 2363 3444 2586 3291 
Q 2809 3138 2897 2803 
L 2906 2803 
Q 3081 3144 3329 3294 
Q 3578 3444 3931 3444 
Q 4444 3444 4676 3166 
Q 4909 2888 4909 2253 
L 4909 0 
L 4353 0 
L 4353 2144 
Q 4353 2634 4218 2821 
Q 4084 3009 3734 3009 
Q 3366 3009 3161 2736 
Q 2956 2463 2956 1959 
L 2956 0 
L 2400 0 
z
" transform="scale(0.015625)"/>
       <path id="LiberationSans-5d" d="M 50 -1328 
L 50 -925 
L 778 -925 
L 778 4234 
L 50 4234 
L 50 4638 
L 1322 4638 
L 1322 -1328 
L 50 -1328 
z
" transform="scale(0.015625)"/>
      </defs>
      <use xlink:href="#LiberationSans-58"/>
      <use xlink:href="#LiberationSans-20" transform="translate(66.699219 0)"/>
      <use xlink:href="#LiberationSans-5b" transform="translate(94.482422 0)"/>
      <use xlink:href="#LiberationSans-6d" transform="translate(122.265625 0)"/>
      <use xlink:href="#LiberationSans-5d" transform="translate(205.566406 0)"/>
     </g>
    </g>
   </g>
   <g id="matplotlib.axis_2">
    <g id="ytick_1">
     <g id="line2d_11">
      <path d="M 43.504844 435.851039 
L 527.632844 435.851039 
" clip-path="url(#p89bb05829e)" style="fill: none; stroke: #cccccc; stroke-opacity: 0.25; stroke-width: 0.8; stroke-linecap: round"/>
     </g>
     <g id="line2d_12"/>
     <g id="text_7">
      <!-- −4 -->
      <g style="fill: #262626" transform="translate(25.182813 440.561508) scale(0.13 -0.13)">
       <use xlink:href="#LiberationSans-2212"/>
       <use xlink:href="#LiberationSans-34" transform="translate(58.398438 0)"/>
      </g>
     </g>
    </g>
    <g id="ytick_2">
     <g id="line2d_13">
      <path d="M 43.504844 351.103179 
L 527.632844 351.103179 
" clip-path="url(#p89bb05829e)" style="fill: none; stroke: #cccccc; stroke-opacity: 0.25; stroke-width: 0.8; stroke-linecap: round"/>
     </g>
     <g id="line2d_14"/>
     <g id="text_8">
      <!-- −2 -->
      <g style="fill: #262626" transform="translate(25.182813 355.813647) scale(0.13 -0.13)">
       <use xlink:href="#LiberationSans-2212"/>
       <use xlink:href="#LiberationSans-32" transform="translate(58.398438 0)"/>
      </g>
     </g>
    </g>
    <g id="ytick_3">
     <g id="line2d_15">
      <path d="M 43.504844 266.355318 
L 527.632844 266.355318 
" clip-path="url(#p89bb05829e)" style="fill: none; stroke: #cccccc; stroke-opacity: 0.25; stroke-width: 0.8; stroke-linecap: round"/>
     </g>
     <g id="line2d_16"/>
     <g id="text_9">
      <!-- 0 -->
      <g style="fill: #262626" transform="translate(32.775625 271.065787) scale(0.13 -0.13)">
       <use xlink:href="#LiberationSans-30"/>
      </g>
     </g>
    </g>
    <g id="ytick_4">
     <g id="line2d_17">
      <path d="M 43.504844 181.607458 
L 527.632844 181.607458 
" clip-path="url(#p89bb05829e)" style="fill: none; stroke: #cccccc; stroke-opacity: 0.25; stroke-width: 0.8; stroke-linecap: round"/>
     </g>
     <g id="line2d_18"/>
     <g id="text_10">
      <!-- 2 -->
      <g style="fill: #262626" transform="translate(32.775625 186.317927) scale(0.13 -0.13)">
       <use xlink:href="#LiberationSans-32"/>
      </g>
     </g>
    </g>
    <g id="ytick_5">
     <g id="line2d_19">
      <path d="M 43.504844 96.859597 
L 527.632844 96.859597 
" clip-path="url(#p89bb05829e)" style="fill: none; stroke: #cccccc; stroke-opacity: 0.25; stroke-width: 0.8; stroke-linecap: round"/>
     </g>
     <g id="line2d_20"/>
     <g id="text_11">
      <!-- 4 -->
      <g style="fill: #262626" transform="translate(32.775625 101.570066) scale(0.13 -0.13)">
       <use xlink:href="#LiberationSans-34"/>
      </g>
     </g>
    </g>
    <g id="text_12">
     <!-- Y [m] -->
     <g style="fill: #262626" transform="translate(18.070313 285.677906) rotate(-90) scale(0.15 -0.15)">
      <defs>
       <path id="LiberationSans-59" d="M 2428 1825 
L 2428 0 
L 1834 0 
L 1834 1825 
L 141 4403 
L 797 4403 
L 2138 2306 
L 3472 4403 
L 4128 4403 
L 2428 1825 
z
" transform="scale(0.015625)"/>
      </defs>
      <use xlink:href="#LiberationSans-59"/>
      <use xlink:href="#LiberationSans-20" transform="translate(64.949219 0)"/>
      <use xlink:href="#LiberationSans-5b" transform="translate(92.732422 0)"/>
      <use xlink:href="#LiberationSans-6d" transform="translate(120.515625 0)"/>
      <use xlink:href="#LiberationSans-5d" transform="translate(203.816406 0)"/>
     </g>
    </g>
   </g>
   <g id="patch_3">
    <path d="M 288.298276 266.344216 
L 289.455635 271.432139 
L 289.518052 276.862951 
L 289.306479 282.263593 
L 288.962021 287.65521 
L 288.53451 293.042843 
L 288.021277 298.424968 
L 287.419356 303.79883 
L 286.726118 309.160996 
L 285.964574 314.511341 
L 285.142604 319.84893 
L 284.285337 325.175461 
L 283.421079 330.493135 
L 282.598685 335.807461 
L 281.875574 341.124033 
L 281.317552 346.446284 
L 281.007163 351.771331 
L 281.035893 357.085403 
L 281.500565 362.35422 
L 282.522751 367.515407 
L 284.195335 372.478962 
L 286.599547 377.094712 
L 289.737633 381.211042 
L 293.511117 384.732147 
L 297.806392 387.600819 
L 302.478669 389.851638 
L 307.403621 391.568375 
L 312.494425 392.833449 
L 317.688622 393.729234 
L 322.94621 394.321113 
L 328.243544 394.652773 
L 333.564184 394.77409 
L 338.896054 394.716843 
L 344.232499 394.503956 
L 349.569411 394.156575 
L 354.90378 393.691394 
L 360.233022 393.122481 
L 365.55451 392.458567 
L 370.866548 391.703294 
L 376.167739 390.862298 
L 381.45609 389.936386 
L 386.730076 388.927844 
L 391.98813 387.836588 
L 397.227963 386.663127 
L 402.446482 385.401697 
L 407.642925 384.053528 
L 412.815044 382.618704 
L 417.959409 381.095319 
L 423.072417 379.47744 
L 428.152034 377.764093 
L 433.194362 375.951929 
L 438.195842 374.037729 
L 443.15249 372.018188 
L 448.059942 369.889915 
L 452.912732 367.648758 
L 457.704969 365.289843 
L 462.43106 362.809655 
L 467.084523 360.204294 
L 471.658704 357.469395 
L 476.146654 354.602036 
L 480.538034 351.59747 
L 484.821742 348.449511 
L 488.986463 345.153709 
L 493.017707 341.705361 
L 496.89882 338.096501 
L 500.615438 334.324797 
L 504.147135 330.387157 
L 507.47209 326.279937 
L 510.573396 322.008009 
L 513.419738 317.569891 
L 515.983911 312.968379 
L 518.240704 308.212541 
L 520.165371 303.317928 
L 521.725664 298.300261 
L 522.899083 293.184499 
L 523.65605 287.997888 
L 523.973685 282.766657 
L 523.861267 277.524578 
L 523.322779 272.306821 
L 522.374536 267.142202 
L 521.042511 262.05678 
L 519.350139 257.073309 
L 517.325978 252.204459 
L 515.017277 247.452011 
L 512.456239 242.821642 
L 509.667992 238.315429 
L 506.681986 233.929092 
L 503.518645 229.661571 
L 500.196232 225.5099 
L 496.731189 221.469928 
L 493.137498 217.537839 
L 489.427703 213.710032 
L 485.609812 209.986338 
L 481.690139 206.364723 
L 477.678641 202.839805 
L 473.58193 199.410865 
L 469.404538 196.077307 
L 465.151933 192.837058 
L 460.827589 189.689565 
L 456.437861 186.632158 
L 451.981564 183.670221 
L 447.46552 180.795616 
L 442.893585 178.009615 
L 438.265378 175.315099 
L 433.587465 172.706136 
L 428.858238 170.190099 
L 424.08295 167.759318 
L 419.262661 165.418752 
L 414.399024 163.166662 
L 409.495004 161.001736 
L 404.552213 158.926388 
L 399.572555 156.940788 
L 394.557431 155.045317 
L 389.509128 153.237984 
L 384.429808 151.520315 
L 379.320783 149.8943 
L 374.183707 148.358838 
L 369.019892 146.913802 
L 363.831628 145.559616 
L 358.619804 144.298526 
L 353.38709 143.124853 
L 348.134969 142.040546 
L 342.866152 141.046072 
L 337.580173 140.146262 
L 332.278644 139.332683 
L 326.964741 138.607326 
L 321.639101 137.973878 
L 316.302994 137.426364 
L 310.958286 136.964404 
L 305.607391 136.589352 
L 300.250902 136.303667 
L 294.888905 136.100611 
L 289.524789 135.980312 
L 284.159783 135.94726 
L 278.793888 135.9951 
L 273.429306 136.124722 
L 268.067817 136.338414 
L 262.710397 136.636302 
L 257.356959 137.014744 
L 252.010301 137.473696 
L 246.672245 138.017142 
L 241.342113 138.640928 
L 236.022109 139.344632 
L 230.714266 140.131219 
L 225.419346 141.000139 
L 220.13697 141.949358 
L 214.869085 142.974595 
L 209.618616 144.081995 
L 204.38497 145.267194 
L 199.169459 146.530191 
L 193.973483 147.870097 
L 188.799203 149.288522 
L 183.647423 150.784915 
L 178.519457 152.360293 
L 173.416619 154.013385 
L 168.341705 155.747072 
L 163.295648 157.561736 
L 158.279252 159.456613 
L 153.294129 161.430348 
L 148.344049 163.487009 
L 143.429605 165.62524 
L 138.553934 167.84771 
L 133.718475 170.154081 
L 128.926068 172.545623 
L 124.180866 175.025558 
L 119.485962 177.596214 
L 114.844533 180.258145 
L 110.262301 183.017027 
L 105.742062 185.873072 
L 101.290427 188.829755 
L 96.914259 191.892967 
L 92.618178 195.063426 
L 88.411421 198.34677 
L 84.301616 201.745838 
L 80.299865 205.265755 
L 76.41837 208.911651 
L 72.671794 212.689244 
L 69.076239 216.604383 
L 65.649078 220.661306 
L 62.412261 224.860901 
L 59.399898 229.215077 
L 56.635169 233.7229 
L 54.151251 238.381109 
L 51.985096 243.183897 
L 50.171153 248.11796 
L 48.753363 253.167322 
L 47.7705 258.311306 
L 47.226673 263.515629 
L 47.143239 268.744869 
L 47.506341 273.962244 
L 48.312293 279.132033 
L 49.545459 284.224616 
L 51.165966 289.218087 
L 53.140803 294.092615 
L 55.433995 298.836546 
L 58.009482 303.444584 
L 60.832137 307.915923 
L 63.872509 312.251666 
L 67.10886 316.452533 
L 70.519199 320.522167 
L 74.085389 324.463409 
L 77.791667 328.280834 
L 81.624728 331.97779 
L 85.572834 335.557285 
L 89.626748 339.022244 
L 93.777614 342.376607 
L 98.017676 345.623424 
L 102.338673 348.766511 
L 106.734799 351.806204 
L 111.203257 354.743014 
L 115.738072 357.581898 
L 120.332 360.325144 
L 124.986945 362.968345 
L 129.694816 365.523535 
L 134.449722 367.988088 
L 139.254544 370.355265 
L 144.103986 372.632271 
L 148.998387 374.814443 
L 153.933001 376.910851 
L 158.903124 378.918528 
L 163.91096 380.831965 
L 168.953542 382.657816 
L 174.02782 384.397477 
L 179.130108 386.053493 
L 184.260234 387.619633 
L 189.417354 389.099839 
L 194.59905 390.498179 
L 199.80045 391.816051 
L 205.023715 393.041674 
L 210.268675 394.18183 
L 215.531644 395.240924 
L 220.809783 396.216583 
L 226.102202 397.103512 
L 231.41102 397.900735 
L 236.730686 398.620245 
L 242.060691 399.246955 
L 247.401924 399.787223 
L 252.751548 400.245581 
L 258.106935 400.620336 
L 263.467492 400.907166 
L 268.834192 401.109925 
L 274.202842 401.237386 
L 279.571534 401.277302 
L 284.942388 401.234928 
L 290.312563 401.117976 
L 295.678967 400.920513 
L 301.041472 400.638854 
L 306.400334 400.277319 
L 311.752797 399.838283 
L 317.096192 399.315643 
L 322.432214 398.707408 
L 327.759337 398.026162 
L 333.073155 397.260507 
L 338.374981 396.411546 
L 343.664477 395.483811 
L 348.939226 394.479803 
L 354.195966 393.393378 
L 359.435926 392.222586 
L 364.659276 390.978488 
L 369.861608 389.654599 
L 375.042414 388.251047 
L 380.201483 386.766265 
L 385.338813 385.209531 
L 390.449321 383.571821 
L 395.533896 381.855592 
L 400.591225 380.059065 
L 405.621688 378.190035 
L 410.620202 376.242021 
L 415.585791 374.214174 
L 420.516336 372.104376 
L 425.411627 369.913517 
L 430.269883 367.644817 
L 435.086062 365.291962 
L 439.858934 362.854147 
L 444.585831 360.330271 
L 449.264463 357.71991 
L 453.891654 355.021538 
L 458.463589 352.233376 
L 462.975565 349.352118 
L 467.423091 346.374926 
L 471.800572 343.298621 
L 476.102161 340.119263 
L 480.32269 336.835961 
L 484.452411 333.443292 
L 488.482256 329.937061 
L 492.400234 326.311421 
L 496.193591 322.560142 
L 499.849063 318.678562 
L 503.351565 314.663505 
L 506.679444 310.508911 
L 509.806894 306.207872 
L 512.709635 301.760262 
L 515.351014 297.161208 
L 517.698954 292.414904 
L 519.70841 287.526096 
L 521.342434 282.509193 
L 522.558608 277.384532 
L 523.322483 272.178725 
L 523.637618 266.930375 
L 523.487614 261.67927 
L 522.879887 256.461133 
L 521.842361 251.308886 
L 520.394359 246.25321 
L 518.571603 241.311986 
L 516.422566 236.494282 
L 513.980938 231.810268 
L 511.275998 227.264944 
L 508.341773 222.855936 
L 505.200382 218.583882 
L 501.875427 214.44433 
L 498.38784 210.433002 
L 494.75381 206.546677 
L 490.987445 202.781329 
L 487.101841 199.132129 
L 483.108437 195.595346 
L 479.014437 192.170135 
L 474.828698 188.851832 
L 470.559101 185.637049 
L 466.212256 182.525235 
L 461.788206 179.519737 
L 457.295806 176.611487 
L 452.739973 173.799807 
L 448.125833 171.083469 
L 443.451777 168.468022 
L 438.725813 165.944274 
L 433.947728 163.518705 
L 429.121804 161.185173 
L 424.252361 158.942448 
L 419.339909 156.79392 
L 414.388261 154.736538 
L 409.397121 152.775007 
L 404.368988 150.902842 
L 399.310939 149.114154 
L 394.220431 147.421527 
L 389.100686 145.816784 
L 383.951915 144.30395 
L 378.778524 142.874762 
L 373.582124 141.535407 
L 368.363224 140.285757 
L 363.12267 139.123694 
L 357.864362 138.044007 
L 352.589825 137.052457 
L 347.299355 136.150612 
L 341.993249 135.336397 
L 336.675363 134.604049 
L 331.34735 133.961067 
L 326.00815 133.40796 
L 320.660051 132.937101 
L 315.306148 132.551116 
L 309.947159 132.253736 
L 304.58228 132.042756 
L 299.214351 131.910592 
L 293.845998 131.862455 
L 288.476712 131.899024 
L 283.107512 132.013985 
L 277.741574 132.20865 
L 272.379534 132.48764 
L 267.020927 132.846166 
L 261.668125 133.281685 
L 256.323501 133.797673 
L 250.987437 134.396543 
L 245.660229 135.074315 
L 240.344885 135.832087 
L 235.042424 136.674524 
L 229.75225 137.596284 
L 224.476315 138.59669 
L 219.216523 139.67464 
L 213.974868 140.835771 
L 208.75012 142.074954 
L 203.544229 143.390707 
L 198.359694 144.783368 
L 193.197956 146.257939 
L 188.057871 147.808274 
L 182.941473 149.434628 
L 177.850754 151.13539 
L 172.788976 152.917129 
L 167.75525 154.778065 
L 162.750846 156.714893 
L 157.778986 158.730832 
L 152.841321 160.826265 
L 147.940691 163.005091 
L 143.077308 165.265231 
L 138.254265 167.60673 
L 133.475715 170.034883 
L 128.743013 172.549522 
L 124.059804 175.15162 
L 119.430918 177.847365 
L 114.856652 180.633408 
L 110.3426 183.512632 
L 105.894354 186.488807 
L 101.519797 189.567782 
L 97.226851 192.755742 
L 93.022976 196.056502 
L 88.91779 199.475739 
L 84.920869 203.017606 
L 81.044629 206.686596 
L 77.305045 210.490164 
L 73.7186 214.433652 
L 70.306778 218.523033 
L 67.094072 222.763434 
L 64.110354 227.159772 
L 61.386007 231.712045 
L 58.957514 236.417543 
L 56.86259 241.266434 
L 55.148988 246.245668 
L 53.853913 251.334099 
L 53.002536 256.498295 
L 52.619264 261.702279 
L 52.699605 266.90851 
L 53.233898 272.077282 
L 54.2121 277.177111 
L 55.593702 282.185752 
L 57.342983 287.082272 
L 59.431255 291.854678 
L 61.820424 296.498056 
L 64.475405 301.008718 
L 67.368189 305.384716 
L 70.471782 309.626474 
L 73.766694 313.734796 
L 77.230128 317.715615 
L 80.844836 321.570965 
L 84.596285 325.304616 
L 88.470957 328.921104 
L 92.456437 332.424665 
L 96.543529 335.817461 
L 100.724565 339.102543 
L 104.990391 342.284062 
L 109.334482 345.362443 
L 113.753998 348.338364 
L 118.241355 351.21797 
L 122.79134 354.001089 
L 127.401369 356.687173 
L 132.068265 359.278 
L 136.788424 361.776027 
L 141.558288 364.183121 
L 146.373831 366.502331 
L 151.231705 368.73353 
L 156.130131 370.875405 
L 161.068135 372.928126 
L 166.043301 374.894191 
L 171.051984 376.774577 
L 176.092702 378.567375 
L 181.165327 380.272248 
L 186.266852 381.892924 
L 191.394775 383.427241 
L 196.548335 384.874735 
L 201.726218 386.236718 
L 206.926812 387.514292 
L 212.147747 388.709152 
L 217.386605 389.821001 
L 222.643303 390.848103 
L 227.915468 391.793423 
L 233.202293 392.653487 
L 238.501492 393.432192 
L 243.812598 394.124921 
L 249.134425 394.734936 
L 254.464769 395.260712 
L 259.803714 395.702715 
L 265.148847 396.063444 
L 270.499064 396.33968 
L 275.852925 396.535829 
L 281.210049 396.649179 
L 286.568275 396.684561 
L 291.925442 396.637314 
L 297.28193 396.509514 
L 302.635368 396.301162 
L 307.98461 396.009714 
L 313.328387 395.637713 
L 318.665892 395.182659 
L 323.9956 394.64735 
L 329.315435 394.028309 
L 334.625439 393.328461 
L 339.923579 392.547467 
L 345.208922 391.683293 
L 350.480323 390.740177 
L 355.735919 389.715278 
L 360.975329 388.61042 
L 366.197068 387.425434 
L 371.400163 386.162521 
L 376.583088 384.820327 
L 381.744784 383.399741 
L 386.88364 381.900043 
L 391.998003 380.32297 
L 397.085333 378.664708 
L 402.144611 376.925428 
L 407.173972 375.103476 
L 412.172359 373.199785 
L 417.13816 371.214227 
L 422.069468 369.146464 
L 426.964081 366.996072 
L 431.819837 364.762161 
L 436.634574 362.443586 
L 441.405498 360.040942 
L 446.127945 357.548889 
L 450.800264 354.967342 
L 455.417539 352.294267 
L 459.97494 349.525258 
L 464.468357 346.659086 
L 468.89033 343.691639 
L 473.233785 340.617538 
L 477.49245 337.433433 
L 481.65785 334.13547 
L 485.720408 330.719666 
L 489.668387 327.180298 
L 493.490643 323.512962 
L 497.173785 319.715368 
L 500.697813 315.782686 
L 504.041031 311.707797 
L 507.181744 307.488624 
L 510.089359 303.119915 
L 512.73828 298.604421 
L 515.092618 293.946679 
L 517.113855 289.153891 
L 518.760972 284.238261 
L 519.996892 279.217459 
L 520.798861 274.120849 
L 521.143276 268.979875 
L 521.026409 263.830298 
L 520.451903 258.710468 
L 519.425734 253.650173 
L 517.990953 248.672592 
L 516.184933 243.801963 
L 514.040473 239.052524 
L 511.596515 234.429782 
L 508.893566 229.937044 
L 505.956841 225.578716 
L 502.813543 221.351281 
L 499.486554 217.253255 
L 495.996213 213.281377 
L 492.358623 209.432172 
L 488.589716 205.700681 
L 484.701527 202.08466 
L 480.704267 198.581183 
L 476.607852 195.187158 
L 472.419867 191.90178 
L 468.144592 188.724329 
L 463.789526 185.648999 
L 459.362637 182.673077 
L 454.86706 179.79754 
L 450.307243 177.019293 
L 445.687807 174.336176 
L 441.013835 171.747595 
L 436.28554 169.256855 
L 431.506015 166.860483 
L 426.678989 164.557248 
L 421.807301 162.344862 
L 416.895781 160.22142 
L 411.944853 158.190777 
L 406.955323 156.25094 
L 401.93147 154.397378 
L 396.876345 152.630215 
L 391.791346 150.95136 
L 386.676601 149.362211 
L 381.534906 147.859207 
L 376.367998 146.442986 
L 371.178039 145.112614 
L 365.965876 143.870634 
L 360.733119 142.71391 
L 355.4821 141.640833 
L 350.21519 140.652419 
L 344.932686 139.752354 
L 339.635987 138.937164 
L 334.326661 138.207655 
L 329.005724 137.563868 
L 323.675211 137.003642 
L 318.336519 136.527317 
L 312.990878 136.133959 
L 307.640407 135.825477 
L 302.285317 135.60115 
L 296.92743 135.457544 
L 291.567721 135.399111 
L 286.20691 135.42034 
L 280.847795 135.521275 
L 275.49101 135.703864 
L 270.138631 135.968955 
L 264.790829 136.318371 
L 259.448663 136.746941 
L 254.114718 137.260343 
L 248.789459 137.855485 
L 243.474539 138.53368 
L 238.170933 139.294165 
L 232.880718 140.139101 
L 227.603638 141.06798 
L 222.342025 142.074912 
L 217.096895 143.167947 
L 211.868545 144.33751 
L 206.661297 145.591778 
L 201.473415 146.924862 
L 196.307863 148.341846 
L 191.165236 149.837477 
L 186.048414 151.4176 
L 180.956636 153.076455 
L 175.89401 154.819379 
L 170.860454 156.643662 
L 165.859355 158.552565 
L 160.890715 160.543886 
L 155.95767 162.618513 
L 151.062591 164.780346 
L 146.20603 167.025614 
L 141.392267 169.358638 
L 136.622233 171.777553 
L 131.901142 174.285963 
L 127.232509 176.887638 
L 122.618454 179.582916 
L 118.063088 182.372816 
L 113.57179 185.260514 
L 109.149604 188.248893 
L 104.801742 191.341173 
L 100.533247 194.538752 
L 96.352381 197.844809 
L 92.268805 201.265105 
L 88.291376 204.803371 
L 84.430645 208.463462 
L 80.698519 212.24864 
L 77.110209 216.163101 
L 73.683599 220.210786 
L 70.43996 224.397373 
L 67.400011 228.725149 
L 64.588501 233.195218 
L 62.030218 237.803213 
L 59.758721 242.54689 
L 57.802571 247.414383 
L 56.204946 252.397049 
L 54.992204 257.478192 
L 54.184854 262.632599 
L 53.789886 267.830312 
L 53.814802 273.04078 
L 54.256847 278.236714 
L 55.09458 283.391418 
L 56.31283 288.480357 
L 57.875708 293.489507 
L 59.749144 298.405306 
L 61.902545 303.21801 
L 64.309342 307.920923 
L 66.945763 312.511079 
L 69.788545 316.988351 
L 72.816332 321.353798 
L 76.009631 325.610005 
L 79.352002 329.759515 
L 82.829588 333.80453 
L 86.43061 337.747424 
L 90.144049 341.591079 
L 93.960754 345.337993 
L 97.873223 348.990414 
L 101.873449 352.550842 
L 105.956813 356.018682 
L 110.118526 359.394655 
L 114.355411 362.677702 
L 118.663696 365.868036 
L 123.039694 368.9654 
L 127.481244 371.968441 
L 131.985127 374.876945 
L 136.549223 377.688455 
L 141.171456 380.401319 
L 145.850809 383.01274 
L 150.584401 385.521997 
L 155.371172 387.923709 
L 160.210487 390.213384 
L 165.10137 392.386234 
L 170.041959 394.437217 
L 175.031701 396.358282 
L 180.069495 398.141546 
L 185.153096 399.778705 
L 190.281485 401.258191 
L 195.45191 402.569156 
L 200.662124 403.692362 
L 205.908609 404.613613 
L 211.185986 405.319266 
L 216.486541 405.788642 
L 221.801503 405.996995 
L 227.117058 405.923603 
L 232.416257 405.525161 
L 237.677489 404.775312 
L 242.871092 403.651259 
L 247.955625 402.107195 
L 252.882823 400.120282 
L 257.584295 397.646492 
L 262.011523 394.712224 
L 266.098447 391.323115 
L 269.802013 387.513656 
L 273.096586 383.334358 
L 275.999497 378.862128 
L 278.521805 374.152647 
L 280.708088 369.266976 
L 282.585677 364.245326 
L 284.194445 359.123292 
L 285.569183 353.927698 
L 286.73489 348.676932 
L 287.716227 343.385572 
L 288.539087 338.065737 
L 289.221095 332.726071 
L 289.775812 327.373057 
L 290.22023 322.011992 
L 290.574137 316.647622 
L 290.854822 311.283422 
L 291.083175 305.921848 
L 291.291952 300.562478 
L 291.545602 295.198447 
L 292.033029 289.751702 
L 294.201134 285.09968 
L 295.35684 285.658254 
L 293.15026 290.057515 
L 292.615289 295.277051 
L 292.321172 300.610064 
L 292.08748 305.964561 
L 291.845609 311.331347 
L 291.557975 316.706014 
L 291.205085 322.085003 
L 290.764184 327.464627 
L 290.215315 332.840269 
L 289.539408 338.205995 
L 288.722905 343.555704 
L 287.746186 348.881683 
L 286.585394 354.173382 
L 285.21375 359.41652 
L 283.603202 364.593343 
L 281.720443 369.679825 
L 279.528101 374.643083 
L 276.99342 379.444685 
L 274.071949 384.026154 
L 270.74996 388.333125 
L 267.014444 392.297376 
L 262.880994 395.857761 
L 258.394739 398.978643 
L 253.612417 401.642438 
L 248.591149 403.832323 
L 243.395046 405.563382 
L 238.078346 406.861254 
L 232.685204 407.756657 
L 227.249434 408.291077 
L 221.796714 408.487184 
L 216.346961 408.384935 
L 210.912801 408.009121 
L 205.504786 407.384826 
L 200.129949 406.530949 
L 194.795411 405.460922 
L 189.505958 404.196738 
L 184.263921 402.753737 
L 179.072267 401.142722 
L 173.932013 399.37789 
L 168.843455 397.470174 
L 163.808711 395.425589 
L 158.828164 393.252908 
L 153.902576 390.957809 
L 149.033896 388.544232 
L 144.222633 386.018619 
L 139.468999 383.385291 
L 134.775111 380.645817 
L 130.142454 377.804009 
L 125.57179 374.863428 
L 121.063501 371.827208 
L 116.621315 368.694122 
L 112.246672 365.467009 
L 107.942244 362.145952 
L 103.711292 358.731206 
L 99.557036 355.222857 
L 95.484181 351.619547 
L 91.496286 347.920896 
L 87.601062 344.122413 
L 83.806477 340.221214 
L 80.120284 336.214717 
L 76.553374 332.098767 
L 73.116467 327.8704 
L 69.823165 323.525123 
L 66.690163 319.057512 
L 63.736785 314.463331 
L 60.984259 309.7394 
L 58.458265 304.883136 
L 56.185242 299.896064 
L 54.190447 294.781912 
L 52.510533 289.544282 
L 51.183254 284.193344 
L 50.253146 278.749396 
L 49.73521 273.242014 
L 49.661776 267.701072 
L 50.03776 262.167376 
L 50.85761 256.677875 
L 52.108531 251.268504 
L 53.768742 245.973585 
L 55.80447 240.821339 
L 58.165461 235.820961 
L 60.819467 230.979188 
L 63.731743 226.298691 
L 66.873431 221.778833 
L 70.219403 217.418005 
L 73.747033 213.21324 
L 77.433353 209.157504 
L 81.260651 205.243933 
L 85.213969 201.465915 
L 89.281824 197.818707 
L 93.453326 194.297136 
L 97.718855 190.897137 
L 102.068836 187.612395 
L 106.497166 184.438079 
L 110.999311 181.372833 
L 115.569043 178.41348 
L 120.200513 175.555952 
L 124.889231 172.796689 
L 129.632315 170.133403 
L 134.426459 167.565712 
L 139.266706 165.090057 
L 144.15064 162.703007 
L 149.076567 160.405535 
L 154.041054 158.193192 
L 159.043932 156.068605 
L 164.081472 154.029784 
L 169.153123 152.075964 
L 174.256936 150.20863 
L 179.390368 148.42367 
L 184.552954 146.725959 
L 189.741938 145.109224 
L 194.95783 143.581389 
L 200.196307 142.133599 
L 205.458344 140.772888 
L 210.741398 139.493534 
L 216.044538 138.305157 
L 221.364034 137.190808 
L 226.702683 136.167053 
L 232.055401 135.223725 
L 237.423754 134.366331 
L 242.804734 133.593049 
L 248.197283 132.904769 
L 253.600002 132.302509 
L 259.011619 131.783979 
L 264.43027 131.350663 
L 269.855192 130.999171 
L 275.285581 130.73586 
L 280.718681 130.554796 
L 286.153731 130.458268 
L 291.58895 130.445598 
L 297.024466 130.513608 
L 302.458584 130.667214 
L 307.889862 130.903576 
L 313.317115 131.227397 
L 318.738266 131.634314 
L 324.152723 132.124496 
L 329.558873 132.701035 
L 334.955575 133.360882 
L 340.341894 134.106324 
L 345.715544 134.938167 
L 351.075423 135.857046 
L 356.419496 136.86241 
L 361.74628 137.952182 
L 367.055395 139.126237 
L 372.345822 140.386099 
L 377.614936 141.732912 
L 382.861633 143.165235 
L 388.083712 144.686247 
L 393.280196 146.294635 
L 398.448629 147.993278 
L 403.586214 149.781501 
L 408.692146 151.657903 
L 413.765407 153.623714 
L 418.804133 155.680799 
L 423.802562 157.833268 
L 428.761286 160.075145 
L 433.677891 162.411262 
L 438.549029 164.842848 
L 443.372411 167.371131 
L 448.141681 170.000221 
L 452.856035 172.725924 
L 457.512888 175.551503 
L 462.107832 178.479753 
L 466.635148 181.513176 
L 471.091529 184.651855 
L 475.472315 187.900325 
L 479.768227 191.26401 
L 483.973204 194.742741 
L 488.081356 198.339143 
L 492.08404 202.05771 
L 495.970196 205.903398 
L 499.72834 209.881039 
L 503.342539 213.997454 
L 506.796904 218.256712 
L 510.073002 222.664067 
L 513.147231 227.225833 
L 515.990988 231.945992 
L 518.578552 236.825689 
L 520.871151 241.869882 
L 522.819801 247.074587 
L 524.382043 252.423914 
L 525.520588 257.899134 
L 526.178698 263.467789 
L 526.338447 269.079326 
L 525.99454 274.688194 
L 525.148036 280.242314 
L 523.829063 285.697704 
L 522.06724 291.016013 
L 519.910746 296.170124 
L 517.406616 301.146561 
L 514.599131 305.938925 
L 511.531132 310.5512 
L 508.231474 314.984064 
L 504.73304 319.245229 
L 501.057737 323.339822 
L 497.23082 327.277631 
L 493.270002 331.06853 
L 489.187867 334.718451 
L 484.997212 338.233284 
L 480.709098 341.6193 
L 476.332972 344.882855 
L 471.876506 348.029247 
L 467.346733 351.062288 
L 462.751873 353.988335 
L 458.097224 356.813659 
L 453.385964 359.539574 
L 448.623642 362.170105 
L 443.813142 364.709363 
L 438.957005 367.156923 
L 434.059765 369.517321 
L 429.122524 371.792165 
L 424.147528 373.982092 
L 419.136853 376.087822 
L 414.092406 378.111389 
L 409.014865 380.050675 
L 403.906391 381.907373 
L 398.768298 383.680595 
L 393.602492 385.371484 
L 388.410669 386.979236 
L 383.195074 388.506181 
L 377.956554 389.953505 
L 372.696043 391.320488 
L 367.414641 392.606197 
L 362.113789 393.809659 
L 356.794802 394.93223 
L 351.458441 395.972891 
L 346.106444 396.929737 
L 340.740421 397.805055 
L 335.360966 398.59821 
L 329.969943 399.308101 
L 324.568029 399.935065 
L 319.15726 400.477155 
L 313.739117 400.939582 
L 308.313814 401.317557 
L 302.883552 401.612734 
L 297.449562 401.825409 
L 292.013156 401.95698 
L 286.574674 402.006261 
L 281.136912 401.971005 
L 275.700167 401.858418 
L 270.264863 401.660998 
L 264.832992 401.381457 
L 259.405908 401.017931 
L 253.98463 400.572581 
L 248.570004 400.041763 
L 243.164913 399.424714 
L 237.769313 398.72512 
L 232.385748 397.937304 
L 227.015445 397.066181 
L 221.659677 396.10942 
L 216.319079 395.070453 
L 210.995388 393.945468 
L 205.690723 392.736285 
L 200.405083 391.444262 
L 195.14008 390.066219 
L 189.897832 388.600971 
L 184.68105 387.046992 
L 179.491388 385.406782 
L 174.328717 383.68051 
L 169.196133 381.863728 
L 164.0966 379.957791 
L 159.030796 377.963928 
L 153.99957 375.88091 
L 149.006904 373.704967 
L 144.055468 371.437623 
L 139.14666 369.079386 
L 134.282048 366.628859 
L 129.465107 364.082907 
L 124.698972 361.440129 
L 119.988432 358.697053 
L 115.336961 355.853974 
L 110.748542 352.909452 
L 106.224871 349.862173 
L 101.773956 346.705485 
L 97.401178 343.439853 
L 93.111114 340.062015 
L 88.911815 336.566505 
L 84.813281 332.948407 
L 80.825005 329.203103 
L 76.959612 325.323812 
L 73.231766 321.304941 
L 69.657737 317.141151 
L 66.255153 312.82596 
L 63.050921 308.351273 
L 60.069703 303.715268 
L 57.341924 298.914387 
L 54.904745 293.947315 
L 52.798336 288.816976 
L 51.077065 283.534303 
L 49.780041 278.127093 
L 48.932012 272.626151 
L 48.571791 267.071692 
L 48.69726 261.512063 
L 49.311216 255.98985 
L 50.400353 250.552385 
L 51.92001 245.233058 
L 53.840015 240.058057 
L 56.113842 235.044035 
L 58.695008 230.195652 
L 61.547833 225.514223 
L 64.639689 220.998094 
L 67.943161 216.644342 
L 71.432781 212.447331 
L 75.088168 208.401511 
L 78.891821 204.501796 
L 82.828487 200.743186 
L 86.883078 197.118181 
L 91.044622 193.62106 
L 95.303922 190.248138 
L 99.651657 186.993989 
L 104.079648 183.854293 
L 108.579124 180.822608 
L 113.143093 177.892874 
L 117.766597 175.060813 
L 122.445526 172.321719 
L 127.178313 169.677671 
L 131.959533 167.124726 
L 136.786305 164.659496 
L 141.656214 162.282276 
L 146.564895 159.98777 
L 151.511712 157.775427 
L 156.49514 155.646603 
L 161.512171 153.599095 
L 166.560813 151.631843 
L 171.638948 149.741372 
L 176.747082 147.929972 
L 181.883184 146.200861 
L 187.043354 144.547091 
L 192.227677 142.969044 
L 197.435815 141.466761 
L 202.667427 140.046048 
L 207.918871 138.703218 
L 213.189552 137.435559 
L 218.480065 136.246971 
L 223.788713 135.141053 
L 229.112573 134.113401 
L 234.451646 133.164182 
L 239.805762 132.295178 
L 245.173395 131.511769 
L 250.551367 130.807768 
L 255.940229 130.184532 
L 261.338668 129.645239 
L 266.743971 129.188152 
L 272.155546 128.809456 
L 277.5739 128.51322 
L 282.996322 128.304528 
L 288.42044 128.176008 
L 293.846888 128.129566 
L 299.27431 128.16944 
L 304.699487 128.29546 
L 310.122884 128.501525 
L 315.544204 128.797337 
L 320.959211 129.18472 
L 326.366676 129.656723 
L 331.767021 130.215126 
L 337.158426 130.864719 
L 342.536567 131.606432 
L 347.902505 132.430774 
L 353.25518 133.346602 
L 358.591372 134.353237 
L 363.908918 135.448731 
L 369.208372 136.629056 
L 374.488375 137.899639 
L 379.745454 139.262596 
L 384.977321 140.714751 
L 390.185332 142.252119 
L 395.365756 143.88288 
L 400.517536 145.603558 
L 405.63546 147.419578 
L 410.721603 149.319879 
L 415.774355 151.313276 
L 420.788081 153.402946 
L 425.761551 155.585288 
L 430.692436 157.861489 
L 435.579379 160.230064 
L 440.420346 162.693812 
L 445.20966 165.255951 
L 449.947446 167.912754 
L 454.627308 170.671043 
L 459.247804 173.526198 
L 463.805077 176.482246 
L 468.296248 179.540924 
L 472.711654 182.709434 
L 477.048117 185.984431 
L 481.300934 189.369218 
L 485.462097 192.868415 
L 489.52368 196.484818 
L 493.476532 200.222029 
L 497.310144 204.085175 
L 501.010659 208.080105 
L 504.563205 212.211393 
L 507.95117 216.483957 
L 511.153919 220.903642 
L 514.144544 225.475705 
L 516.898934 230.200822 
L 519.385987 235.08018 
L 521.57066 240.109457 
L 523.417612 245.281449 
L 524.880106 250.583868 
L 525.924369 255.989638 
L 526.526249 261.46757 
L 526.66193 266.981986 
L 526.324337 272.490258 
L 525.517495 277.951114 
L 524.251828 283.322857 
L 522.561786 288.569554 
L 520.48915 293.66913 
L 518.075785 298.607345 
L 515.364913 303.378989 
L 512.390772 307.98012 
L 509.194125 312.419213 
L 505.798871 316.699869 
L 502.229969 320.827938 
L 498.506699 324.809858 
L 494.645756 328.65186 
L 490.661081 332.358986 
L 486.566615 335.938185 
L 482.374393 339.396745 
L 478.094329 342.740641 
L 473.734815 345.976484 
L 469.300383 349.105714 
L 464.79845 352.133289 
L 460.233548 355.062387 
L 455.610129 357.895762 
L 450.932555 360.636847 
L 446.203964 363.287717 
L 441.426896 365.849688 
L 436.60398 368.32352 
L 431.738182 370.711588 
L 426.83162 373.012577 
L 421.889209 375.233988 
L 416.910061 377.374507 
L 411.895488 379.430956 
L 406.848752 381.406852 
L 401.772017 383.301221 
L 396.668373 385.122919 
L 391.535407 386.86436 
L 386.37583 388.527071 
L 381.191041 390.106771 
L 375.984683 391.613969 
L 370.753791 393.040022 
L 365.5015 394.385691 
L 360.230056 395.650298 
L 354.940646 396.841726 
L 349.631023 397.948787 
L 344.305848 398.972414 
L 338.96703 399.919768 
L 333.613169 400.787586 
L 328.245197 401.572013 
L 322.867055 402.271225 
L 317.479506 402.897215 
L 312.080559 403.437652 
L 306.675087 403.893341 
L 301.264105 404.272842 
L 295.846556 404.570477 
L 290.424854 404.783999 
L 285.002008 404.916968 
L 279.577212 404.974131 
L 274.14979 404.947774 
L 268.724698 404.833025 
L 263.301979 404.643317 
L 257.880362 404.366955 
L 252.464253 404.001437 
L 247.055051 403.553121 
L 241.652672 403.019548 
L 236.25775 402.398219 
L 230.875922 401.683668 
L 225.505323 400.890555 
L 220.146801 400.005872 
L 214.805355 399.031611 
L 209.480181 397.97739 
L 204.171363 396.838633 
L 198.87941 395.613602 
L 193.611441 394.292722 
L 188.366014 392.891162 
L 183.143258 391.401591 
L 177.945756 389.821806 
L 172.778001 388.149943 
L 167.638255 386.394815 
L 162.529824 384.547778 
L 157.452368 382.612433 
L 152.41415 380.57734 
L 147.414111 378.455084 
L 142.450937 376.242911 
L 137.5334 373.929591 
L 132.660186 371.523684 
L 127.838965 369.015868 
L 123.068169 366.417795 
L 118.346569 363.725949 
L 113.6862 360.92732 
L 109.087611 358.030003 
L 104.553431 355.030013 
L 100.092177 351.921589 
L 95.707153 348.707272 
L 91.401326 345.385791 
L 87.182874 341.951088 
L 83.060272 338.399093 
L 79.044156 334.724765 
L 75.14194 330.927044 
L 71.365406 327.00059 
L 67.727859 322.940871 
L 64.24506 318.743098 
L 60.931631 314.404219 
L 57.813122 309.916651 
L 54.910677 305.278739 
L 52.255315 300.485654 
L 49.87462 295.539303 
L 47.813679 290.440618 
L 46.101857 285.203073 
L 44.788901 279.838576 
L 43.911845 274.374712 
L 43.504844 268.8486 
L 43.577939 263.30198 
L 44.136597 257.780318 
L 45.167046 252.326623 
L 46.656023 246.985051 
L 48.550435 241.784752 
L 50.813457 236.745306 
L 53.39458 231.872982 
L 56.260668 227.175026 
L 59.372355 222.646355 
L 62.711845 218.294976 
L 66.238712 214.107923 
L 69.932913 210.0774 
L 73.775974 206.197685 
L 77.750903 202.462084 
L 81.842615 198.8628 
L 86.039117 195.393435 
L 90.329943 192.047377 
L 94.706959 188.820179 
L 99.16245 185.706754 
L 103.690189 182.703799 
L 108.282888 179.805973 
L 112.935672 177.008361 
L 117.644984 174.309862 
L 122.405653 171.706026 
L 127.214543 169.194608 
L 132.06729 166.771709 
L 136.961182 164.43449 
L 141.894906 162.182994 
L 146.865495 160.014593 
L 151.871551 157.929541 
L 156.910193 155.925932 
L 161.979344 154.00063 
L 167.07947 152.157195 
L 172.208072 150.393804 
L 177.363496 148.712067 
L 182.542989 147.105968 
L 187.747482 145.580676 
L 192.974221 144.132929 
L 198.222444 142.765268 
L 203.489651 141.471761 
L 208.776774 140.258765 
L 214.081947 139.123483 
L 219.403647 138.069601 
L 224.739669 137.089534 
L 230.091962 136.19163 
L 235.458112 135.377119 
L 240.835787 134.643753 
L 246.224353 133.991957 
L 251.623639 133.423469 
L 257.031188 132.942609 
L 262.444797 132.539167 
L 267.865736 132.222125 
L 273.291336 131.992077 
L 278.719564 131.845167 
L 284.149656 131.783004 
L 289.581231 131.807412 
L 295.01145 131.921694 
L 300.438958 132.117123 
L 305.864473 132.401833 
L 311.28448 132.779512 
L 316.697241 133.242828 
L 322.102121 133.795893 
L 327.497932 134.440316 
L 332.881752 135.177792 
L 338.252266 136.00349 
L 343.609221 136.922453 
L 348.948718 137.938665 
L 354.269019 139.04543 
L 359.569616 140.24368 
L 364.84873 141.535364 
L 370.104411 142.919636 
L 375.335133 144.394418 
L 380.539288 145.961618 
L 385.713907 147.623227 
L 390.857975 149.375135 
L 395.970305 151.215943 
L 401.05005 153.145821 
L 406.093861 155.167524 
L 411.101315 157.276898 
L 416.069659 159.475681 
L 420.99906 161.76095 
L 425.884817 164.139483 
L 430.725276 166.607468 
L 435.518911 169.166557 
L 440.261062 171.819165 
L 444.952196 174.560546 
L 449.587437 177.396337 
L 454.164839 180.323443 
L 458.681646 183.345425 
L 463.131713 186.464781 
L 467.514068 189.67753 
L 471.823962 192.987655 
L 476.057584 196.395197 
L 480.209848 199.901894 
L 484.276474 203.508127 
L 488.251911 207.217159 
L 492.125694 211.034669 
L 495.890914 214.960317 
L 499.53986 218.996858 
L 503.061812 223.148952 
L 506.442701 227.421516 
L 509.667653 231.818658 
L 512.71811 236.345169 
L 515.572376 241.00592 
L 518.204263 245.804513 
L 520.585593 250.741288 
L 522.684628 255.817388 
L 524.454968 261.02972 
L 525.863859 266.359895 
L 526.884774 271.787698 
L 527.48301 277.288936 
L 527.632844 282.828438 
L 527.324234 288.367388 
L 526.546758 293.860999 
L 525.322617 299.265963 
L 523.689229 304.553382 
L 521.674984 309.697874 
L 519.31624 314.682277 
L 516.643801 319.495913 
L 513.683939 324.128104 
L 510.467292 328.57385 
L 507.02369 332.836074 
L 503.374065 336.914734 
L 499.543504 340.814407 
L 495.5501 344.54022 
L 491.407667 348.093019 
L 487.134214 351.479671 
L 482.744317 354.707929 
L 478.249249 357.782708 
L 473.660533 360.710789 
L 468.986731 363.497468 
L 464.234622 366.145246 
L 459.412681 368.660054 
L 454.527941 371.04774 
L 449.58642 373.312881 
L 444.594093 375.460942 
L 439.555494 377.495781 
L 434.474987 379.421168 
L 429.356852 381.241552 
L 424.204733 382.960916 
L 419.021596 384.583075 
L 413.810323 386.109172 
L 408.574812 387.545352 
L 403.316504 388.893775 
L 398.036882 390.15584 
L 392.738149 391.330742 
L 387.42289 392.422803 
L 382.091148 393.429226 
L 376.744533 394.350266 
L 371.384103 395.1841 
L 366.010369 395.928229 
L 360.623795 396.575745 
L 355.225526 397.121182 
L 349.815688 397.555939 
L 344.394834 397.866497 
L 338.964742 398.034849 
L 333.528675 398.041925 
L 328.090405 397.865014 
L 322.654719 397.470131 
L 317.233865 396.806428 
L 311.84835 395.81598 
L 306.532202 394.421158 
L 301.342963 392.529331 
L 296.390637 390.016896 
L 291.820397 386.814062 
L 287.821272 382.895237 
L 284.568353 378.335548 
L 282.168505 373.301567 
L 280.563805 368.003131 
L 279.674037 362.584437 
L 279.367122 357.138836 
L 279.480388 351.712516 
L 279.912094 346.318526 
L 280.557703 340.956529 
L 281.343061 335.619151 
L 282.204989 330.296901 
L 283.089037 324.980032 
L 283.959143 319.66168 
L 284.781197 314.336209 
L 285.535199 309.000442 
L 286.210682 303.654208 
L 286.805612 298.298185 
L 287.335371 292.935595 
L 287.788051 287.567369 
L 288.173781 282.198253 
L 288.473873 276.836637 
L 288.566757 271.509005 
L 287.882799 266.419388 
z
" clip-path="url(#p89bb05829e)" style="fill: #6a3d9a; opacity: 0.19"/>
   </g>
   <g id="line2d_21">
    <path d="M 287.994455 266.355318 
L 285.707491 276.076237 
L 284.675983 281.147125 
L 283.755409 286.248099 
L 282.945262 291.37509 
L 282.246643 296.524158 
L 281.666417 301.692167 
L 281.204287 306.87505 
L 280.874956 312.070094 
L 280.679062 317.272765 
L 280.63584 322.479165 
L 280.751945 327.683658 
L 281.040088 332.880397 
L 281.528193 338.060229 
L 282.226134 343.213873 
L 283.168064 348.325991 
L 284.36856 353.381455 
L 285.88436 358.349248 
L 287.726397 363.203902 
L 289.953698 367.894187 
L 292.596391 372.363959 
L 295.683882 376.543088 
L 299.21986 380.356148 
L 303.165805 383.746656 
L 307.488751 386.643296 
L 312.102848 389.043355 
L 316.928434 390.977174 
L 321.905294 392.47077 
L 326.97864 393.586137 
L 332.115038 394.354715 
L 337.286861 394.827396 
L 342.476524 395.030113 
L 347.670677 394.999519 
L 352.860213 394.757988 
L 358.038815 394.328571 
L 363.200214 393.716945 
L 368.341909 392.948494 
L 373.460638 392.03398 
L 378.553264 390.978403 
L 383.62055 389.803035 
L 388.659531 388.507621 
L 393.66957 387.10051 
L 403.592867 383.957382 
L 413.387558 380.427464 
L 423.038306 376.517409 
L 432.538414 372.253999 
L 441.867501 367.630622 
L 451.018108 362.667533 
L 459.963669 357.349308 
L 468.679139 351.668616 
L 472.938227 348.684941 
L 477.123585 345.600797 
L 481.236865 342.423133 
L 485.260524 339.134831 
L 489.196638 335.743985 
L 493.030758 332.240296 
L 496.750851 328.61758 
L 500.353736 324.880199 
L 503.811068 321.009383 
L 507.126912 317.018055 
L 510.264575 312.886385 
L 513.212741 308.617974 
L 515.936834 304.20384 
L 518.419777 299.649151 
L 520.608644 294.945602 
L 522.48225 290.105864 
L 523.982584 285.135698 
L 525.08134 280.057479 
L 525.7175 274.898114 
L 525.899496 269.699426 
L 525.537622 264.507645 
L 524.69311 259.373111 
L 523.371425 254.339258 
L 521.622314 249.439603 
L 519.479718 244.699274 
L 516.991987 240.133398 
L 514.202172 235.746213 
L 511.15286 231.537804 
L 507.878117 227.502746 
L 504.411972 223.632693 
L 500.772942 219.924466 
L 497.000179 216.352725 
L 493.069658 212.956285 
L 489.031846 209.688788 
L 484.899922 206.542228 
L 480.679393 203.514186 
L 476.378651 200.600513 
L 467.546823 195.128682 
L 463.049296 192.527008 
L 453.864196 187.664345 
L 449.210691 185.350093 
L 439.756982 181.024986 
L 434.982584 178.967477 
L 425.313235 175.139798 
L 415.528162 171.613566 
L 405.639528 168.382469 
L 395.656908 165.448626 
L 385.595853 162.789704 
L 375.460433 160.42312 
L 365.265181 158.323831 
L 355.015902 156.500057 
L 344.721537 154.946162 
L 334.389756 153.657486 
L 324.027338 152.640639 
L 313.642462 151.879858 
L 303.240679 151.396795 
L 292.83021 151.158569 
L 282.416901 151.183654 
L 272.007364 151.460779 
L 261.608208 151.998844 
L 251.225494 152.787719 
L 240.865534 153.831135 
L 230.536677 155.141294 
L 220.243837 156.703452 
L 209.995787 158.530149 
L 199.797568 160.610921 
L 189.65969 162.9617 
L 179.588975 165.57829 
L 169.597033 168.474421 
L 159.696279 171.660898 
L 149.894469 175.132721 
L 140.209737 178.91201 
L 130.662806 183.019357 
L 121.27215 187.465611 
L 112.060778 192.266069 
L 107.539522 194.819903 
L 98.677438 200.228766 
L 94.350636 203.095956 
L 90.110446 206.088826 
L 85.958352 209.201361 
L 81.90643 212.442289 
L 77.964341 215.815762 
L 74.157848 219.341316 
L 70.494368 223.015898 
L 67.007163 226.858366 
L 63.727336 230.880542 
L 60.667641 235.073527 
L 57.899353 239.467153 
L 55.447555 244.046291 
L 53.37458 248.812257 
L 51.759624 253.754794 
L 50.635232 258.833861 
L 50.073184 264.006828 
L 50.083142 269.210685 
L 50.688157 274.379754 
L 51.853101 279.44971 
L 53.505388 284.380044 
L 55.613957 289.129738 
L 58.087917 293.697097 
L 60.894088 298.066442 
L 63.9723 302.246376 
L 67.286831 306.240416 
L 70.792299 310.066866 
L 74.479721 313.717677 
L 78.301976 317.22662 
L 82.259532 320.581915 
L 86.325607 323.805342 
L 90.489778 326.90152 
L 94.744926 329.872695 
L 99.074694 332.735139 
L 103.482388 335.477199 
L 112.471424 340.675209 
L 121.689194 345.463166 
L 126.36003 347.736527 
L 135.837595 351.998243 
L 145.453554 355.944612 
L 155.190659 359.590338 
L 165.046284 362.911056 
L 174.994412 365.949902 
L 185.024914 368.712894 
L 195.127749 371.205286 
L 205.294357 373.432502 
L 215.522152 375.366788 
L 225.794991 377.050473 
L 236.10995 378.461907 
L 246.457791 379.611427 
L 256.831861 380.501449 
L 267.225127 381.132015 
L 277.631444 381.506685 
L 288.043947 381.62012 
L 298.45662 381.492617 
L 308.861751 381.082056 
L 319.254423 380.43471 
L 329.626799 379.519645 
L 339.97286 378.349997 
L 350.285318 376.918521 
L 360.557395 375.228267 
L 370.782733 373.280126 
L 380.950823 371.059435 
L 391.057345 368.579713 
L 401.087635 365.814772 
L 411.035763 362.774866 
L 420.889736 359.449233 
L 430.632265 355.817617 
L 440.252291 351.880105 
L 449.725788 347.608897 
L 459.028349 342.98463 
L 463.609861 340.539019 
L 468.135566 337.993235 
L 472.601736 335.345712 
L 477.004387 332.595305 
L 481.330554 329.727522 
L 485.581167 326.749822 
L 489.741906 323.64894 
L 493.798489 320.413817 
L 497.748375 317.049751 
L 501.563682 313.534113 
L 505.236357 309.869616 
L 508.733478 306.036978 
L 512.043941 302.040651 
L 515.10639 297.849911 
L 517.912349 293.481074 
L 520.3783 288.909648 
L 522.471614 284.153979 
L 524.117841 279.223094 
L 525.276853 274.153011 
L 525.877122 268.98496 
L 525.889962 263.782373 
L 525.312702 258.611694 
L 524.17547 253.536442 
L 522.545896 248.599794 
L 520.467624 243.837134 
L 518.014428 239.258164 
L 515.212536 234.885641 
L 512.154749 230.69024 
L 508.839963 226.695947 
L 505.341021 222.863606 
L 501.664955 219.201524 
L 497.844903 215.690547 
L 493.895568 212.325591 
L 489.838688 209.090511 
L 485.677483 205.989841 
L 481.425429 203.013962 
L 477.096847 200.149739 
L 472.695933 197.396577 
L 468.231967 194.745283 
L 463.705583 192.200601 
L 454.499805 187.389762 
L 445.106564 182.948762 
L 435.563234 178.833067 
L 425.8838 175.040388 
L 416.085125 171.559412 
L 406.187041 168.364418 
L 396.196751 165.462524 
L 386.129723 162.831908 
L 375.993412 160.474392 
L 365.796126 158.389087 
L 355.547991 156.562473 
L 345.253626 155.010698 
L 334.923794 153.709861 
L 324.562733 152.679793 
L 314.179171 151.905155 
L 303.778913 151.391922 
L 293.369122 151.131407 
L 282.955813 151.122847 
L 272.545682 151.372303 
L 262.144705 151.874773 
L 251.760634 152.645343 
L 241.397539 153.657952 
L 231.066817 154.955103 
L 220.772452 156.507303 
L 210.522325 158.323534 
L 200.323386 160.400789 
L 190.182712 162.740762 
L 180.112505 165.359768 
L 170.118062 168.248017 
L 160.218029 171.437715 
L 155.296128 173.115849 
L 145.558217 176.760346 
L 140.727589 178.680055 
L 131.181209 182.789394 
L 126.460075 184.959236 
L 117.157811 189.584181 
L 112.569392 192.017376 
L 103.583619 197.221234 
L 99.175501 199.962531 
L 94.847004 202.826924 
L 90.594103 205.801235 
L 86.432601 208.900549 
L 82.367331 212.124696 
L 78.410665 215.480457 
L 74.590995 218.991561 
L 70.903869 222.641694 
L 67.402808 226.470984 
L 64.087514 230.46337 
L 61.005955 234.639999 
L 58.192029 239.003878 
L 55.709722 243.56611 
L 53.584585 248.308134 
L 51.923569 253.23546 
L 50.748413 258.302492 
L 50.127931 263.469103 
L 50.096066 268.672621 
L 50.639639 273.848173 
L 51.761065 278.928553 
L 53.37458 283.871769 
L 55.444504 288.639217 
L 57.89698 293.218229 
L 60.669845 297.609354 
L 63.7367 301.797975 
L 67.025299 305.813752 
L 70.521953 309.648169 
L 74.189883 313.318387 
L 78.001418 316.838644 
L 81.947999 320.20699 
L 86.00293 323.444443 
L 90.160066 326.55024 
L 94.403265 329.538662 
L 98.730617 332.404919 
L 107.593464 337.812383 
L 112.114211 340.366938 
L 121.321939 345.173922 
L 130.708401 349.628651 
L 140.250204 353.747481 
L 149.930359 357.538041 
L 159.72717 361.023466 
L 169.623008 364.224605 
L 179.61067 367.13527 
L 189.67808 369.764064 
L 199.813458 372.125012 
L 210.009474 374.215954 
L 220.256337 376.048627 
L 230.54816 377.616674 
L 240.876636 378.928698 
L 251.236553 379.9708 
L 261.619183 380.758446 
L 272.018381 381.294307 
L 282.428046 381.567534 
L 292.841312 381.591264 
L 303.251781 381.354393 
L 313.653395 380.868703 
L 324.038779 380.114575 
L 334.401874 379.103533 
L 344.73463 377.823755 
L 355.030902 376.283844 
L 365.283444 374.480833 
L 375.483485 372.407774 
L 385.625727 370.074284 
L 395.695976 367.454685 
L 405.689953 364.564783 
L 415.594308 361.388348 
L 425.395991 357.915678 
L 435.083307 354.14283 
L 444.632654 350.040695 
L 454.031149 345.611178 
L 463.246038 340.818432 
L 467.773608 338.276209 
L 472.244439 335.636906 
L 476.650099 332.892177 
L 480.986223 330.039776 
L 485.248574 327.079152 
L 489.409652 323.979202 
L 493.476914 320.758063 
L 497.43519 317.405141 
L 501.268251 313.909377 
L 504.959232 310.264286 
L 508.47148 306.44559 
L 511.812579 302.47528 
L 514.890325 298.295388 
L 517.735523 293.952866 
L 520.225245 289.394109 
L 522.354281 284.655941 
L 524.038009 279.737853 
L 525.23503 274.67849 
L 525.896657 269.518024 
L 525.954328 264.31603 
L 525.438128 259.139334 
L 524.343356 254.053488 
L 522.751748 249.104383 
L 520.714749 244.322654 
L 518.285324 239.730973 
L 515.523985 235.33205 
L 512.478528 231.127412 
L 509.196582 227.105533 
L 505.710945 223.260862 
L 502.056702 219.576491 
L 498.249744 216.050895 
L 494.313629 212.669625 
L 490.267046 209.421112 
L 486.111308 206.312561 
L 481.871372 203.319182 
L 477.547748 200.447204 
L 473.15319 197.683491 
L 468.696215 195.020247 
L 459.595355 190.016607 
L 454.97291 187.647692 
L 445.585728 183.194023 
L 436.044136 179.074853 
L 426.368558 175.273106 
L 416.571747 171.787808 
L 406.674935 168.590271 
L 396.687823 165.678843 
L 386.620794 163.049626 
L 376.486814 160.684143 
L 366.291477 158.590998 
L 356.045249 156.755995 
L 345.753384 155.189262 
L 335.424866 153.879992 
L 325.066474 152.825432 
L 314.683929 152.038082 
L 304.28507 151.500738 
L 293.875787 151.220689 
L 283.462648 151.190985 
L 273.052009 151.419889 
L 262.650268 151.904646 
L 252.264502 152.655046 
L 241.900136 153.656766 
L 231.567592 154.943366 
L 221.273481 156.502133 
L 211.022422 158.317686 
L 200.825517 160.411001 
L 190.688487 162.772034 
L 180.621543 165.410786 
L 170.63316 168.327638 
L 160.738805 171.543819 
L 150.952122 175.067804 
L 141.28184 178.894255 
L 131.750248 183.048892 
L 122.380228 187.550783 
L 113.197798 192.419293 
L 104.234694 197.676796 
L 99.853188 200.468475 
L 95.547064 203.37431 
L 91.315731 206.387351 
L 87.179187 209.528912 
L 83.141969 212.79717 
L 79.216533 216.198695 
L 75.424617 219.748953 
L 71.769018 223.440019 
L 68.291983 227.300707 
L 65.001774 231.32318 
L 61.937969 235.522055 
L 59.12701 239.896189 
L 56.624321 244.455073 
L 54.4627 249.187266 
L 52.701724 254.083786 
L 51.366013 259.1148 
L 50.543747 264.25391 
L 50.207128 269.44531 
L 50.401116 274.642727 
L 51.081726 279.794888 
L 52.224424 284.861751 
L 53.786708 289.810814 
L 55.715358 294.626993 
L 57.975371 299.294142 
L 60.517595 303.813533 
L 63.311987 308.180506 
L 66.320917 312.403322 
L 69.519852 316.484101 
L 72.885147 320.430597 
L 76.394938 324.250522 
L 80.043206 327.941122 
L 83.798638 331.52477 
L 87.676869 334.97761 
L 91.646417 338.327354 
L 95.698339 341.578706 
L 99.829501 344.732046 
L 104.0313 347.793012 
L 112.654903 353.607181 
L 117.0498 356.390216 
L 126.010572 361.682593 
L 135.168638 366.631656 
L 139.810787 368.988198 
L 149.239029 373.407798 
L 158.817317 377.49201 
L 168.54332 381.209051 
L 178.402547 384.552481 
L 188.396057 387.460562 
L 193.436606 388.750297 
L 198.505545 389.91986 
L 203.600289 390.967004 
L 208.723213 391.859272 
L 213.867196 392.613359 
L 219.031307 393.202738 
L 224.211308 393.619867 
L 229.40203 393.848262 
L 234.597201 393.85644 
L 239.786863 393.633341 
L 244.958135 393.142397 
L 250.092669 392.354793 
L 255.164786 391.229045 
L 260.143765 389.739474 
L 264.978673 387.825994 
L 269.616415 385.471487 
L 273.998049 382.664977 
L 278.046369 379.395998 
L 281.728791 375.720991 
L 285.001923 371.679917 
L 287.862121 367.33947 
L 290.325953 362.762281 
L 292.412615 358.000892 
L 294.168336 353.106533 
L 295.612186 348.109376 
L 296.783867 343.039674 
L 297.689567 337.913911 
L 298.362084 332.751665 
L 298.826799 327.566113 
L 299.093585 322.367044 
L 299.183249 317.163271 
L 299.102102 311.961913 
L 298.856546 306.769963 
L 298.457086 301.593479 
L 297.911607 296.438436 
L 297.20964 291.314707 
L 296.352797 286.231869 
L 295.30061 281.218652 
L 295.30061 281.218652 
" clip-path="url(#p89bb05829e)" style="fill: none; stroke-dasharray: 8.14,3.52; stroke-dashoffset: 0; stroke: #222222; stroke-width: 2.2"/>
   </g>
   <g id="line2d_22">
    <path d="M 288.090559 266.381802 
L 289.011217 271.470572 
L 288.995962 276.849773 
L 288.375015 287.61131 
L 287.413466 298.361576 
L 286.130637 309.08074 
L 284.550852 319.755284 
L 281.970873 335.713306 
L 281.216617 341.040302 
L 280.614823 346.382384 
L 280.243797 351.741923 
L 280.201508 357.112098 
L 280.58728 362.46935 
L 281.543278 367.759269 
L 283.18192 372.890243 
L 285.583971 377.715108 
L 288.779432 382.05314 
L 292.665757 385.773105 
L 297.098536 388.808858 
L 301.910816 391.190484 
L 306.967933 392.994766 
L 312.171367 394.324714 
L 317.461243 395.267831 
L 322.800443 395.895601 
L 328.166974 396.258873 
L 333.54643 396.408029 
L 338.930376 396.375825 
L 344.313645 396.185227 
L 349.69255 395.856235 
L 360.428409 394.849134 
L 371.125326 393.443718 
L 381.773598 391.682827 
L 392.36314 389.583665 
L 402.881493 387.147715 
L 413.312684 384.363917 
L 423.638575 381.219178 
L 433.834675 377.686548 
L 438.875689 375.766755 
L 443.873313 373.739544 
L 448.823181 371.601398 
L 453.720336 369.348249 
L 458.558846 366.974927 
L 463.332862 364.47745 
L 468.035606 361.850902 
L 472.659619 359.090114 
L 477.197951 356.192372 
L 481.641155 353.152721 
L 485.977957 349.964591 
L 490.197044 346.623364 
L 494.283925 343.122769 
L 498.221184 339.455475 
L 501.994752 335.619787 
L 505.585391 331.611637 
L 508.969712 327.426872 
L 512.128646 323.068035 
L 515.031769 318.532881 
L 517.650097 313.825349 
L 519.957823 308.955229 
L 521.927321 303.935655 
L 523.52414 298.783112 
L 524.722941 293.522728 
L 525.490164 288.182638 
L 525.803265 282.797547 
L 525.672117 277.406778 
L 525.103756 272.047281 
L 524.119197 266.751048 
L 522.74874 261.54325 
L 521.017383 256.445327 
L 518.955765 251.472874 
L 516.610791 246.628262 
L 514.014286 241.913781 
L 511.19303 237.33032 
L 508.17482 232.873854 
L 504.980673 228.541543 
L 501.629022 224.329447 
L 498.135546 220.233371 
L 494.514227 216.249078 
L 490.77672 212.372372 
L 486.930862 208.601728 
L 482.983306 204.936425 
L 478.944223 201.370871 
L 474.819757 197.903031 
L 470.614271 194.532481 
L 466.332979 191.257273 
L 461.979651 188.077152 
L 457.559753 184.988813 
L 448.526479 179.095997 
L 439.263199 173.567132 
L 429.791736 168.398783 
L 420.130861 163.589851 
L 410.29816 159.139317 
L 400.311302 155.043283 
L 390.183552 151.306538 
L 379.930035 147.92798 
L 369.562152 144.916719 
L 359.094731 142.271103 
L 348.541843 139.989606 
L 337.916241 138.074855 
L 327.231316 136.523842 
L 316.500118 135.334575 
L 305.735911 134.495614 
L 294.950178 134.011153 
L 284.154699 133.865132 
L 273.360321 134.0584 
L 262.577597 134.587735 
L 251.816949 135.448603 
L 241.088972 136.642319 
L 230.403114 138.161425 
L 219.770308 140.009479 
L 209.197674 142.17038 
L 198.695931 144.647729 
L 188.273342 147.434578 
L 177.941476 150.53618 
L 167.710588 153.952112 
L 157.594702 157.691273 
L 147.604751 161.75078 
L 137.757558 166.1411 
L 128.070284 170.870116 
L 118.565473 175.953038 
L 113.890103 178.633274 
L 109.272616 181.411478 
L 104.716147 184.288414 
L 100.226417 187.268276 
L 95.810588 190.356573 
L 91.47404 193.555381 
L 87.225248 196.870124 
L 83.072137 200.304319 
L 79.025384 203.863899 
L 75.097151 207.554668 
L 71.302354 211.383322 
L 67.657475 215.356175 
L 64.18044 219.478141 
L 60.892308 223.753628 
L 57.830283 228.195052 
L 55.014874 232.797962 
L 52.482354 237.563207 
L 50.267765 242.484346 
L 48.413567 247.551505 
L 46.960226 252.746973 
L 45.953548 258.045833 
L 45.402306 263.408805 
L 45.324041 268.796735 
L 45.709093 274.168478 
L 46.550597 279.485304 
L 47.823637 284.713823 
L 49.489822 289.829374 
L 51.507711 294.815938 
L 53.844634 299.6611 
L 56.46008 304.36164 
L 59.322608 308.916287 
L 62.402091 313.327964 
L 65.67696 317.597815 
L 69.123529 321.731519 
L 72.725398 325.732 
L 76.466804 329.60396 
L 80.334442 333.351298 
L 84.316574 336.97821 
L 88.404811 340.486687 
L 92.589449 343.881178 
L 96.862393 347.165369 
L 101.215425 350.34405 
L 105.644136 353.418109 
L 110.145434 356.38653 
L 114.712157 359.254609 
L 119.339306 362.025568 
L 128.766869 367.269723 
L 133.554954 369.755886 
L 143.27744 374.43757 
L 153.173575 378.744075 
L 163.220392 382.68985 
L 173.402889 386.27371 
L 183.701746 389.510612 
L 194.105266 392.395429 
L 204.597518 394.940153 
L 215.1685 397.136267 
L 225.803763 398.997034 
L 236.494239 400.509232 
L 247.228488 401.670151 
L 257.99367 402.493645 
L 268.779445 402.971496 
L 279.574373 403.125737 
L 290.368708 402.950987 
L 301.152789 402.455848 
L 311.916699 401.637989 
L 322.649634 400.489316 
L 333.343162 399.024068 
L 343.985163 397.228134 
L 354.568306 395.117573 
L 365.080388 392.682089 
L 375.513528 389.932529 
L 385.857301 386.868301 
L 396.101156 383.489277 
L 406.23522 379.798465 
L 416.247926 375.794341 
L 426.121645 371.463047 
L 435.845021 366.807762 
L 445.394876 361.808994 
L 454.750913 356.45865 
L 459.348569 353.64786 
L 463.887029 350.742704 
L 468.361716 347.740299 
L 472.767672 344.637552 
L 477.098245 341.429973 
L 481.348563 338.116332 
L 485.509513 334.690738 
L 489.571647 331.148024 
L 493.522974 327.481619 
L 497.350145 323.685 
L 501.039516 319.75325 
L 504.575239 315.681666 
L 507.936805 311.464062 
L 511.098833 307.093996 
L 514.037295 302.569647 
L 516.713379 297.884277 
L 519.094031 293.041996 
L 521.135098 288.047804 
L 522.797131 282.916025 
L 524.038051 277.667802 
L 524.82341 272.334492 
L 525.149774 266.956181 
L 525.006931 261.57342 
L 524.402128 256.225406 
L 523.361255 250.946377 
L 521.906007 245.767351 
L 520.071131 240.7107 
L 517.904255 235.787231 
L 515.439915 231.005545 
L 512.710271 226.370303 
L 509.747825 221.879811 
L 506.575755 217.533898 
L 503.219316 213.327862 
L 499.699229 209.256532 
L 496.031977 205.315926 
L 492.231968 201.501679 
L 488.31276 197.808452 
L 484.285288 194.23188 
L 480.157686 190.769676 
L 475.938429 187.418152 
L 471.635398 184.173242 
L 467.254231 181.033079 
L 462.79662 178.001013 
L 458.271805 175.068864 
L 453.68364 172.235404 
L 449.036619 169.498133 
L 439.573079 164.319021 
L 429.90712 159.523352 
L 420.063995 155.098412 
L 410.059383 151.047422 
L 399.914216 147.358856 
L 389.64303 144.034452 
L 379.261968 141.0687 
L 368.785776 138.457407 
L 358.227888 136.198622 
L 347.60093 134.290693 
L 336.916894 132.734384 
L 326.187434 131.532362 
L 315.425176 130.674206 
L 304.640884 130.169108 
L 293.846422 129.996011 
L 283.051917 130.159278 
L 272.26754 130.648569 
L 261.503418 131.463462 
L 250.769381 132.602135 
L 240.075345 134.063612 
L 229.432412 135.854842 
L 218.848294 137.960784 
L 208.334517 140.389065 
L 197.897733 143.125065 
L 187.550613 146.177683 
L 177.298918 149.532681 
L 167.158032 153.204933 
L 157.137063 157.188718 
L 147.252793 161.496409 
L 137.520264 166.133134 
L 127.960663 171.113596 
L 118.598736 176.454068 
L 113.999894 179.26312 
L 109.460841 182.167641 
L 104.987001 185.171571 
L 100.585706 188.280886 
L 96.265387 191.50194 
L 92.033799 194.838802 
L 87.900434 198.296981 
L 83.874699 201.880375 
L 79.968246 205.594196 
L 76.196585 209.445859 
L 72.57569 213.440491 
L 69.124969 217.583687 
L 65.86688 221.880785 
L 62.829093 226.336997 
L 60.040507 230.953849 
L 57.5357 235.730789 
L 55.351281 240.662225 
L 53.534499 245.739342 
L 52.127133 250.943242 
L 51.156855 256.244093 
L 50.658284 261.607192 
L 50.635698 266.990122 
L 51.082955 272.351738 
L 51.996071 277.652123 
L 53.335384 282.860049 
L 55.070638 287.949624 
L 57.168021 292.900975 
L 59.581174 297.706221 
L 62.272554 302.362014 
L 65.209576 306.868016 
L 68.363468 311.226217 
L 71.712237 315.437974 
L 75.230926 319.510278 
L 78.902203 323.447409 
L 82.710645 327.253859 
L 86.642098 330.934756 
L 90.684105 334.495564 
L 94.827301 337.939717 
L 99.062871 341.271198 
L 103.382173 344.494795 
L 107.779655 347.612329 
L 112.251249 350.623887 
L 116.789158 353.535993 
L 121.389907 356.349071 
L 126.05015 359.06363 
L 135.535215 364.202443 
L 145.214649 368.969977 
L 155.064851 373.378179 
L 165.069929 377.425991 
L 175.210688 381.123964 
L 185.473951 384.469937 
L 195.844208 387.470477 
L 206.308789 390.125288 
L 216.852863 392.445727 
L 227.465456 394.429802 
L 238.135382 396.078656 
L 248.852215 397.38835 
L 259.604811 398.360323 
L 270.381985 399.000339 
L 281.173481 399.310092 
L 291.969299 399.297168 
L 302.759481 398.956948 
L 313.533731 398.288626 
L 324.281793 397.291229 
L 334.993203 395.963357 
L 345.657704 394.306494 
L 356.265339 392.323775 
L 366.805855 390.015794 
L 377.269842 387.386916 
L 387.647175 384.439639 
L 397.926794 381.172652 
L 408.094419 377.577097 
L 418.137506 373.651025 
L 428.043302 369.394097 
L 437.79579 364.800255 
L 447.375772 359.859497 
L 456.757361 354.553984 
L 461.363407 351.756796 
L 465.907545 348.860665 
L 470.383418 345.860464 
L 474.783358 342.750175 
L 479.100753 339.526367 
L 483.32751 336.184377 
L 487.454137 332.719037 
L 491.469194 329.124414 
L 495.360731 325.395296 
L 499.11574 321.527616 
L 502.715447 317.513957 
L 506.136252 313.34593 
L 509.356417 309.019891 
L 512.344245 304.529399 
L 515.072448 299.875512 
L 517.501661 295.058402 
L 519.590568 290.084973 
L 521.295017 284.967982 
L 522.572464 279.729887 
L 523.39668 274.4045 
L 523.740883 269.029622 
L 523.602532 263.649022 
L 522.986246 258.304822 
L 521.903888 253.037022 
L 520.405377 247.87359 
L 518.528042 242.835922 
L 516.309513 237.939106 
L 513.79373 233.187887 
L 511.020399 228.581417 
L 508.014901 224.121391 
L 504.805202 219.803996 
L 501.414568 215.625334 
L 497.862276 211.581208 
L 494.164431 207.667764 
L 490.336878 203.879196 
L 486.391442 200.211901 
L 482.338714 196.661941 
L 478.188061 193.225584 
L 473.946091 189.901053 
L 469.61806 186.688092 
L 465.212316 183.581066 
L 460.735213 180.576415 
L 456.189974 177.674521 
L 451.581639 174.872588 
L 442.193102 169.559363 
L 432.591974 164.635851 
L 422.804952 160.089044 
L 412.85513 155.907245 
L 402.758863 152.089439 
L 392.535771 148.622997 
L 382.198269 145.512242 
L 371.761909 142.749335 
L 361.2397 140.333046 
L 350.645327 138.254732 
L 339.988962 136.521766 
L 329.282299 135.132452 
L 318.537372 134.080815 
L 307.765113 133.364526 
L 296.975948 132.985576 
L 286.180342 132.939304 
L 275.388295 133.219862 
L 264.610528 133.834496 
L 253.857381 134.781426 
L 243.139658 136.063364 
L 232.468038 137.681413 
L 221.853029 139.63286 
L 211.304972 141.915501 
L 200.83484 144.52921 
L 190.453566 147.47335 
L 180.173523 150.750041 
L 170.006788 154.359792 
L 159.967303 158.306245 
L 150.069558 162.592962 
L 140.329486 167.224348 
L 130.766707 172.209683 
L 121.409484 177.569434 
L 116.816065 180.393148 
L 112.285572 183.316695 
L 107.823385 186.343465 
L 103.43531 189.476763 
L 99.126051 192.717945 
L 94.902853 196.070994 
L 90.775293 199.541885 
L 86.752694 203.134643 
L 82.845648 206.853718 
L 79.065936 210.703093 
L 75.428642 214.688149 
L 71.95148 218.814396 
L 68.656695 223.088103 
L 65.565898 227.511899 
L 62.703963 232.087182 
L 60.097839 236.812087 
L 57.781595 241.684114 
L 55.785656 246.693984 
L 54.156718 251.832798 
L 52.924907 257.078012 
L 52.111286 262.400008 
L 51.725852 267.765692 
L 51.775006 273.141418 
L 52.254976 278.493076 
L 53.138938 283.792402 
L 54.411682 289.01232 
L 56.033078 294.135709 
L 57.967193 299.150706 
L 60.180384 304.050573 
L 62.646801 308.830141 
L 65.341274 313.487205 
L 68.239354 318.022911 
L 71.319727 322.439461 
L 74.56307 326.740203 
L 77.952688 330.929162 
L 81.474936 335.009602 
L 85.118543 338.984319 
L 88.872577 342.856746 
L 92.72852 346.629424 
L 96.678702 350.304981 
L 100.715243 353.886849 
L 104.834074 357.374944 
L 109.030364 360.770325 
L 113.30102 364.072356 
L 117.642484 367.281079 
L 122.051576 370.396283 
L 126.526517 373.415934 
L 131.063791 376.340498 
L 135.662167 379.167136 
L 140.320206 381.893305 
L 145.036721 384.515658 
L 149.809128 387.033093 
L 154.636874 389.44078 
L 159.519325 391.733125 
L 164.455041 393.905933 
L 169.442707 395.953695 
L 174.481857 397.868107 
L 179.570881 399.642134 
L 184.708508 401.266242 
L 189.893721 402.727465 
L 195.123681 404.015039 
L 200.396058 405.111634 
L 205.706698 405.999198 
L 211.049415 406.664172 
L 216.416751 407.086768 
L 221.79913 407.242068 
L 227.183246 407.107361 
L 232.550752 406.640909 
L 237.877918 405.818262 
L 243.13309 404.607299 
L 248.273387 402.969759 
L 253.24762 400.88136 
L 257.989517 398.312567 
L 262.446238 395.284992 
L 266.556466 391.810245 
L 270.276008 387.92337 
L 273.584267 383.680256 
L 276.496458 379.153407 
L 279.024953 374.397865 
L 281.214287 369.473379 
L 283.09446 364.419313 
L 284.704077 359.269906 
L 286.077289 354.05054 
L 287.240538 348.779307 
L 288.219587 343.470617 
L 289.039269 338.135866 
L 289.718184 332.783149 
L 290.712658 322.048519 
L 291.350216 311.307405 
L 292.080446 295.23777 
L 292.591645 289.90463 
L 294.778987 285.378967 
L 294.778987 285.378967 
" clip-path="url(#p89bb05829e)" style="fill: none; stroke: #6a3d9a; stroke-width: 2.6; stroke-linecap: round"/>
   </g>
   <g id="patch_4">
    <path d="M 43.504844 510.372375 
L 43.504844 26.244375 
" style="fill: none; stroke: #cccccc; stroke-linejoin: miter; stroke-linecap: square"/>
   </g>
   <g id="patch_5">
    <path d="M 527.632844 510.372375 
L 527.632844 26.244375 
" style="fill: none; stroke: #cccccc; stroke-linejoin: miter; stroke-linecap: square"/>
   </g>
   <g id="patch_6">
    <path d="M 43.504844 510.372375 
L 527.632844 510.372375 
" style="fill: none; stroke: #cccccc; stroke-linejoin: miter; stroke-linecap: square"/>
   </g>
   <g id="patch_7">
    <path d="M 43.504844 26.244375 
L 527.632844 26.244375 
" style="fill: none; stroke: #cccccc; stroke-linejoin: miter; stroke-linecap: square"/>
   </g>
   <g id="text_13">
    <!-- hairpin: 10-run mean path + 1σ corridor -->
    <g style="fill: #262626" transform="translate(128.691813 20.244375) scale(0.18 -0.18)">
     <defs>
      <path id="LiberationSans-68" d="M 991 2803 
Q 1172 3134 1426 3289 
Q 1681 3444 2072 3444 
Q 2622 3444 2883 3170 
Q 3144 2897 3144 2253 
L 3144 0 
L 2578 0 
L 2578 2144 
Q 2578 2500 2512 2673 
Q 2447 2847 2297 2928 
Q 2147 3009 1881 3009 
Q 1484 3009 1245 2734 
Q 1006 2459 1006 1994 
L 1006 0 
L 444 0 
L 444 4638 
L 1006 4638 
L 1006 3431 
Q 1006 3241 995 3037 
Q 984 2834 981 2803 
L 991 2803 
z
" transform="scale(0.015625)"/>
      <path id="LiberationSans-61" d="M 1294 -63 
Q 784 -63 528 206 
Q 272 475 272 944 
Q 272 1469 617 1750 
Q 963 2031 1731 2050 
L 2491 2063 
L 2491 2247 
Q 2491 2659 2316 2837 
Q 2141 3016 1766 3016 
Q 1388 3016 1216 2887 
Q 1044 2759 1009 2478 
L 422 2531 
Q 566 3444 1778 3444 
Q 2416 3444 2737 3151 
Q 3059 2859 3059 2306 
L 3059 850 
Q 3059 600 3125 473 
Q 3191 347 3375 347 
Q 3456 347 3559 369 
L 3559 19 
Q 3347 -31 3125 -31 
Q 2813 -31 2670 133 
Q 2528 297 2509 647 
L 2491 647 
Q 2275 259 1989 98 
Q 1703 -63 1294 -63 
z
M 1422 359 
Q 1731 359 1972 500 
Q 2213 641 2352 886 
Q 2491 1131 2491 1391 
L 2491 1669 
L 1875 1656 
Q 1478 1650 1273 1575 
Q 1069 1500 959 1344 
Q 850 1188 850 934 
Q 850 659 998 509 
Q 1147 359 1422 359 
z
" transform="scale(0.015625)"/>
      <path id="LiberationSans-69" d="M 428 4100 
L 428 4638 
L 991 4638 
L 991 4100 
L 428 4100 
z
M 428 0 
L 428 3381 
L 991 3381 
L 991 0 
L 428 0 
z
" transform="scale(0.015625)"/>
      <path id="LiberationSans-72" d="M 444 0 
L 444 2594 
Q 444 2950 425 3381 
L 956 3381 
Q 981 2806 981 2691 
L 994 2691 
Q 1128 3125 1303 3284 
Q 1478 3444 1797 3444 
Q 1909 3444 2025 3413 
L 2025 2897 
Q 1913 2928 1725 2928 
Q 1375 2928 1190 2626 
Q 1006 2325 1006 1763 
L 1006 0 
L 444 0 
z
" transform="scale(0.015625)"/>
      <path id="LiberationSans-70" d="M 3291 1706 
Q 3291 -63 2047 -63 
Q 1266 -63 997 525 
L 981 525 
Q 994 500 994 -6 
L 994 -1328 
L 431 -1328 
L 431 2691 
Q 431 3213 413 3381 
L 956 3381 
Q 959 3369 965 3292 
Q 972 3216 980 3056 
Q 988 2897 988 2838 
L 1000 2838 
Q 1150 3150 1397 3295 
Q 1644 3441 2047 3441 
Q 2672 3441 2981 3022 
Q 3291 2603 3291 1706 
z
M 2700 1694 
Q 2700 2400 2509 2703 
Q 2319 3006 1903 3006 
Q 1569 3006 1380 2865 
Q 1191 2725 1092 2426 
Q 994 2128 994 1650 
Q 994 984 1206 668 
Q 1419 353 1897 353 
Q 2316 353 2508 661 
Q 2700 969 2700 1694 
z
" transform="scale(0.015625)"/>
      <path id="LiberationSans-6e" d="M 2578 0 
L 2578 2144 
Q 2578 2478 2512 2662 
Q 2447 2847 2303 2928 
Q 2159 3009 1881 3009 
Q 1475 3009 1240 2731 
Q 1006 2453 1006 1959 
L 1006 0 
L 444 0 
L 444 2659 
Q 444 3250 425 3381 
L 956 3381 
Q 959 3366 962 3297 
Q 966 3228 970 3139 
Q 975 3050 981 2803 
L 991 2803 
Q 1184 3153 1439 3298 
Q 1694 3444 2072 3444 
Q 2628 3444 2886 3167 
Q 3144 2891 3144 2253 
L 3144 0 
L 2578 0 
z
" transform="scale(0.015625)"/>
      <path id="LiberationSans-3a" d="M 584 2734 
L 584 3381 
L 1194 3381 
L 1194 2734 
L 584 2734 
z
M 584 0 
L 584 647 
L 1194 647 
L 1194 0 
L 584 0 
z
" transform="scale(0.015625)"/>
      <path id="LiberationSans-31" d="M 488 0 
L 488 478 
L 1609 478 
L 1609 3866 
L 616 3156 
L 616 3688 
L 1656 4403 
L 2175 4403 
L 2175 478 
L 3247 478 
L 3247 0 
L 488 0 
z
" transform="scale(0.015625)"/>
      <path id="LiberationSans-2d" d="M 284 1450 
L 284 1950 
L 1847 1950 
L 1847 1450 
L 284 1450 
z
" transform="scale(0.015625)"/>
      <path id="LiberationSans-75" d="M 981 3381 
L 981 1238 
Q 981 903 1047 718 
Q 1113 534 1256 453 
Q 1400 372 1678 372 
Q 2084 372 2318 650 
Q 2553 928 2553 1422 
L 2553 3381 
L 3116 3381 
L 3116 722 
Q 3116 131 3134 0 
L 2603 0 
Q 2600 16 2597 84 
Q 2594 153 2589 242 
Q 2584 331 2578 578 
L 2569 578 
Q 2375 228 2120 82 
Q 1866 -63 1488 -63 
Q 931 -63 673 214 
Q 416 491 416 1128 
L 416 3381 
L 981 3381 
z
" transform="scale(0.015625)"/>
      <path id="LiberationSans-65" d="M 863 1572 
Q 863 991 1103 675 
Q 1344 359 1806 359 
Q 2172 359 2392 506 
Q 2613 653 2691 878 
L 3184 738 
Q 2881 -63 1806 -63 
Q 1056 -63 664 384 
Q 272 831 272 1713 
Q 272 2550 664 2997 
Q 1056 3444 1784 3444 
Q 3275 3444 3275 1647 
L 3275 1572 
L 863 1572 
z
M 2694 2003 
Q 2647 2538 2422 2783 
Q 2197 3028 1775 3028 
Q 1366 3028 1127 2754 
Q 888 2481 869 2003 
L 2694 2003 
z
" transform="scale(0.015625)"/>
      <path id="LiberationSans-74" d="M 1731 25 
Q 1453 -50 1163 -50 
Q 488 -50 488 716 
L 488 2972 
L 97 2972 
L 97 3381 
L 509 3381 
L 675 4138 
L 1050 4138 
L 1050 3381 
L 1675 3381 
L 1675 2972 
L 1050 2972 
L 1050 838 
Q 1050 594 1129 495 
Q 1209 397 1406 397 
Q 1519 397 1731 441 
L 1731 25 
z
" transform="scale(0.015625)"/>
      <path id="LiberationSans-2b" d="M 2097 1900 
L 2097 563 
L 1638 563 
L 1638 1900 
L 313 1900 
L 313 2356 
L 1638 2356 
L 1638 3694 
L 2097 3694 
L 2097 2356 
L 3422 2356 
L 3422 1900 
L 2097 1900 
z
" transform="scale(0.015625)"/>
      <path id="LiberationSans-3c3" d="M 3350 1534 
Q 3350 781 2942 359 
Q 2534 -63 1819 -63 
Q 1069 -63 669 376 
Q 269 816 269 1638 
Q 269 2466 737 2923 
Q 1206 3381 2075 3381 
L 3853 3381 
L 3853 2972 
L 3338 2972 
L 2875 2991 
L 2875 2978 
Q 3128 2600 3239 2253 
Q 3350 1906 3350 1534 
z
M 2759 1525 
Q 2759 2322 2372 2972 
L 2094 2972 
Q 1519 2972 1191 2622 
Q 863 2272 863 1644 
Q 863 353 1794 353 
Q 2266 353 2512 654 
Q 2759 956 2759 1525 
z
" transform="scale(0.015625)"/>
      <path id="LiberationSans-63" d="M 859 1706 
Q 859 1031 1071 706 
Q 1284 381 1713 381 
Q 2013 381 2214 543 
Q 2416 706 2463 1044 
L 3031 1006 
Q 2966 519 2616 228 
Q 2266 -63 1728 -63 
Q 1019 -63 645 385 
Q 272 834 272 1694 
Q 272 2547 647 2995 
Q 1022 3444 1722 3444 
Q 2241 3444 2583 3175 
Q 2925 2906 3013 2434 
L 2434 2391 
Q 2391 2672 2212 2837 
Q 2034 3003 1706 3003 
Q 1259 3003 1059 2706 
Q 859 2409 859 1706 
z
" transform="scale(0.015625)"/>
      <path id="LiberationSans-6f" d="M 3291 1694 
Q 3291 806 2900 371 
Q 2509 -63 1766 -63 
Q 1025 -63 647 389 
Q 269 841 269 1694 
Q 269 3444 1784 3444 
Q 2559 3444 2925 3017 
Q 3291 2591 3291 1694 
z
M 2700 1694 
Q 2700 2394 2492 2711 
Q 2284 3028 1794 3028 
Q 1300 3028 1079 2704 
Q 859 2381 859 1694 
Q 859 1025 1076 689 
Q 1294 353 1759 353 
Q 2266 353 2483 678 
Q 2700 1003 2700 1694 
z
" transform="scale(0.015625)"/>
      <path id="LiberationSans-64" d="M 2566 544 
Q 2409 219 2151 78 
Q 1894 -63 1513 -63 
Q 872 -63 570 368 
Q 269 800 269 1675 
Q 269 3444 1513 3444 
Q 1897 3444 2153 3303 
Q 2409 3163 2566 2856 
L 2572 2856 
L 2566 3234 
L 2566 4638 
L 3128 4638 
L 3128 697 
Q 3128 169 3147 0 
L 2609 0 
Q 2600 50 2589 231 
Q 2578 413 2578 544 
L 2566 544 
z
M 859 1694 
Q 859 984 1046 678 
Q 1234 372 1656 372 
Q 2134 372 2350 703 
Q 2566 1034 2566 1731 
Q 2566 2403 2350 2715 
Q 2134 3028 1663 3028 
Q 1238 3028 1048 2714 
Q 859 2400 859 1694 
z
" transform="scale(0.015625)"/>
     </defs>
     <use xlink:href="#LiberationSans-68"/>
     <use xlink:href="#LiberationSans-61" transform="translate(55.615234 0)"/>
     <use xlink:href="#LiberationSans-69" transform="translate(111.230469 0)"/>
     <use xlink:href="#LiberationSans-72" transform="translate(133.447266 0)"/>
     <use xlink:href="#LiberationSans-70" transform="translate(166.748047 0)"/>
     <use xlink:href="#LiberationSans-69" transform="translate(222.363281 0)"/>
     <use xlink:href="#LiberationSans-6e" transform="translate(244.580078 0)"/>
     <use xlink:href="#LiberationSans-3a" transform="translate(300.195312 0)"/>
     <use xlink:href="#LiberationSans-20" transform="translate(327.978516 0)"/>
     <use xlink:href="#LiberationSans-31" transform="translate(355.761719 0)"/>
     <use xlink:href="#LiberationSans-30" transform="translate(411.376953 0)"/>
     <use xlink:href="#LiberationSans-2d" transform="translate(466.992188 0)"/>
     <use xlink:href="#LiberationSans-72" transform="translate(500.292969 0)"/>
     <use xlink:href="#LiberationSans-75" transform="translate(533.59375 0)"/>
     <use xlink:href="#LiberationSans-6e" transform="translate(589.208984 0)"/>
     <use xlink:href="#LiberationSans-20" transform="translate(644.824219 0)"/>
     <use xlink:href="#LiberationSans-6d" transform="translate(672.607422 0)"/>
     <use xlink:href="#LiberationSans-65" transform="translate(755.908203 0)"/>
     <use xlink:href="#LiberationSans-61" transform="translate(811.523438 0)"/>
     <use xlink:href="#LiberationSans-6e" transform="translate(867.138672 0)"/>
     <use xlink:href="#LiberationSans-20" transform="translate(922.753906 0)"/>
     <use xlink:href="#LiberationSans-70" transform="translate(950.537109 0)"/>
     <use xlink:href="#LiberationSans-61" transform="translate(1006.152344 0)"/>
     <use xlink:href="#LiberationSans-74" transform="translate(1061.767578 0)"/>
     <use xlink:href="#LiberationSans-68" transform="translate(1089.550781 0)"/>
     <use xlink:href="#LiberationSans-20" transform="translate(1145.166016 0)"/>
     <use xlink:href="#LiberationSans-2b" transform="translate(1172.949219 0)"/>
     <use xlink:href="#LiberationSans-20" transform="translate(1231.347656 0)"/>
     <use xlink:href="#LiberationSans-31" transform="translate(1259.130859 0)"/>
     <use xlink:href="#LiberationSans-3c3" transform="translate(1314.746094 0)"/>
     <use xlink:href="#LiberationSans-20" transform="translate(1376.464844 0)"/>
     <use xlink:href="#LiberationSans-63" transform="translate(1404.248047 0)"/>
     <use xlink:href="#LiberationSans-6f" transform="translate(1454.248047 0)"/>
     <use xlink:href="#LiberationSans-72" transform="translate(1509.863281 0)"/>
     <use xlink:href="#LiberationSans-72" transform="translate(1543.164062 0)"/>
     <use xlink:href="#LiberationSans-69" transform="translate(1576.464844 0)"/>
     <use xlink:href="#LiberationSans-64" transform="translate(1598.681641 0)"/>
     <use xlink:href="#LiberationSans-6f" transform="translate(1654.296875 0)"/>
     <use xlink:href="#LiberationSans-72" transform="translate(1709.912109 0)"/>
    </g>
   </g>
   <g id="legend_1">
    <g id="patch_8">
     <path d="M 345.146281 66.5525 
L 519.932844 66.5525 
Q 522.132844 66.5525 522.132844 64.3525 
L 522.132844 33.944375 
Q 522.132844 31.744375 519.932844 31.744375 
L 345.146281 31.744375 
Q 342.946281 31.744375 342.946281 33.944375 
L 342.946281 64.3525 
Q 342.946281 66.5525 345.146281 66.5525 
z
" style="fill: #ffffff; opacity: 0.8; stroke: #cccccc; stroke-linejoin: miter"/>
    </g>
    <g id="line2d_23">
     <path d="M 347.346281 40.265937 
L 358.346281 40.265937 
L 369.346281 40.265937 
" style="fill: none; stroke-dasharray: 8.14,3.52; stroke-dashoffset: 0; stroke: #222222; stroke-width: 2.2"/>
    </g>
    <g id="text_14">
     <!-- Reference -->
     <g style="fill: #262626" transform="translate(378.146281 44.115937) scale(0.11 -0.11)">
      <defs>
       <path id="LiberationSans-52" d="M 3638 0 
L 2494 1828 
L 1122 1828 
L 1122 0 
L 525 0 
L 525 4403 
L 2597 4403 
Q 3341 4403 3745 4070 
Q 4150 3738 4150 3144 
Q 4150 2653 3864 2318 
Q 3578 1984 3075 1897 
L 4325 0 
L 3638 0 
z
M 3550 3138 
Q 3550 3522 3289 3723 
Q 3028 3925 2538 3925 
L 1122 3925 
L 1122 2300 
L 2563 2300 
Q 3034 2300 3292 2520 
Q 3550 2741 3550 3138 
z
" transform="scale(0.015625)"/>
       <path id="LiberationSans-66" d="M 1128 2972 
L 1128 0 
L 566 0 
L 566 2972 
L 91 2972 
L 91 3381 
L 566 3381 
L 566 3763 
Q 566 4225 769 4428 
Q 972 4631 1391 4631 
Q 1625 4631 1788 4594 
L 1788 4166 
Q 1647 4191 1538 4191 
Q 1322 4191 1225 4081 
Q 1128 3972 1128 3684 
L 1128 3381 
L 1788 3381 
L 1788 2972 
L 1128 2972 
z
" transform="scale(0.015625)"/>
      </defs>
      <use xlink:href="#LiberationSans-52"/>
      <use xlink:href="#LiberationSans-65" transform="translate(72.216797 0)"/>
      <use xlink:href="#LiberationSans-66" transform="translate(127.832031 0)"/>
      <use xlink:href="#LiberationSans-65" transform="translate(155.615234 0)"/>
      <use xlink:href="#LiberationSans-72" transform="translate(211.230469 0)"/>
      <use xlink:href="#LiberationSans-65" transform="translate(244.53125 0)"/>
      <use xlink:href="#LiberationSans-6e" transform="translate(300.146484 0)"/>
      <use xlink:href="#LiberationSans-63" transform="translate(355.761719 0)"/>
      <use xlink:href="#LiberationSans-65" transform="translate(405.761719 0)"/>
     </g>
    </g>
    <g id="line2d_24">
     <path d="M 347.346281 56.02 
L 358.346281 56.02 
L 369.346281 56.02 
" style="fill: none; stroke: #6a3d9a; stroke-width: 2.6; stroke-linecap: round"/>
    </g>
    <g id="text_15">
     <!-- Re-identified from SITL ident -->
     <g style="fill: #262626" transform="translate(378.146281 59.87) scale(0.11 -0.11)">
      <defs>
       <path id="LiberationSans-53" d="M 3975 1216 
Q 3975 606 3498 271 
Q 3022 -63 2156 -63 
Q 547 -63 291 1056 
L 869 1172 
Q 969 775 1294 589 
Q 1619 403 2178 403 
Q 2756 403 3070 601 
Q 3384 800 3384 1184 
Q 3384 1400 3286 1534 
Q 3188 1669 3009 1756 
Q 2831 1844 2584 1903 
Q 2338 1963 2038 2031 
Q 1516 2147 1245 2262 
Q 975 2378 819 2520 
Q 663 2663 580 2853 
Q 497 3044 497 3291 
Q 497 3856 930 4162 
Q 1363 4469 2169 4469 
Q 2919 4469 3316 4239 
Q 3713 4009 3872 3456 
L 3284 3353 
Q 3188 3703 2916 3861 
Q 2644 4019 2163 4019 
Q 1634 4019 1356 3844 
Q 1078 3669 1078 3322 
Q 1078 3119 1186 2986 
Q 1294 2853 1497 2761 
Q 1700 2669 2306 2534 
Q 2509 2488 2711 2439 
Q 2913 2391 3097 2323 
Q 3281 2256 3442 2165 
Q 3603 2075 3722 1944 
Q 3841 1813 3908 1634 
Q 3975 1456 3975 1216 
z
" transform="scale(0.015625)"/>
       <path id="LiberationSans-49" d="M 591 0 
L 591 4403 
L 1188 4403 
L 1188 0 
L 591 0 
z
" transform="scale(0.015625)"/>
       <path id="LiberationSans-54" d="M 2250 3916 
L 2250 0 
L 1656 0 
L 1656 3916 
L 144 3916 
L 144 4403 
L 3763 4403 
L 3763 3916 
L 2250 3916 
z
" transform="scale(0.015625)"/>
       <path id="LiberationSans-4c" d="M 525 0 
L 525 4403 
L 1122 4403 
L 1122 488 
L 3347 488 
L 3347 0 
L 525 0 
z
" transform="scale(0.015625)"/>
      </defs>
      <use xlink:href="#LiberationSans-52"/>
      <use xlink:href="#LiberationSans-65" transform="translate(72.216797 0)"/>
      <use xlink:href="#LiberationSans-2d" transform="translate(127.832031 0)"/>
      <use xlink:href="#LiberationSans-69" transform="translate(161.132812 0)"/>
      <use xlink:href="#LiberationSans-64" transform="translate(183.349609 0)"/>
      <use xlink:href="#LiberationSans-65" transform="translate(238.964844 0)"/>
      <use xlink:href="#LiberationSans-6e" transform="translate(294.580078 0)"/>
      <use xlink:href="#LiberationSans-74" transform="translate(350.195312 0)"/>
      <use xlink:href="#LiberationSans-69" transform="translate(377.978516 0)"/>
      <use xlink:href="#LiberationSans-66" transform="translate(400.195312 0)"/>
      <use xlink:href="#LiberationSans-69" transform="translate(427.978516 0)"/>
      <use xlink:href="#LiberationSans-65" transform="translate(450.195312 0)"/>
      <use xlink:href="#LiberationSans-64" transform="translate(505.810547 0)"/>
      <use xlink:href="#LiberationSans-20" transform="translate(561.425781 0)"/>
      <use xlink:href="#LiberationSans-66" transform="translate(589.208984 0)"/>
      <use xlink:href="#LiberationSans-72" transform="translate(616.992188 0)"/>
      <use xlink:href="#LiberationSans-6f" transform="translate(650.292969 0)"/>
      <use xlink:href="#LiberationSans-6d" transform="translate(705.908203 0)"/>
      <use xlink:href="#LiberationSans-20" transform="translate(789.208984 0)"/>
      <use xlink:href="#LiberationSans-53" transform="translate(816.992188 0)"/>
      <use xlink:href="#LiberationSans-49" transform="translate(883.691406 0)"/>
      <use xlink:href="#LiberationSans-54" transform="translate(911.474609 0)"/>
      <use xlink:href="#LiberationSans-4c" transform="translate(972.558594 0)"/>
      <use xlink:href="#LiberationSans-20" transform="translate(1024.423828 0)"/>
      <use xlink:href="#LiberationSans-69" transform="translate(1052.207031 0)"/>
      <use xlink:href="#LiberationSans-64" transform="translate(1074.423828 0)"/>
      <use xlink:href="#LiberationSans-65" transform="translate(1130.039062 0)"/>
      <use xlink:href="#LiberationSans-6e" transform="translate(1185.654297 0)"/>
      <use xlink:href="#LiberationSans-74" transform="translate(1241.269531 0)"/>
     </g>
    </g>
   </g>
  </g>
 </g>
 <defs>
  <clipPath id="p89bb05829e">
   <rect x="43.504844" y="26.244375" width="484.128" height="484.128"/>
  </clipPath>
 </defs>
</svg>
