<?xml version="1.0" encoding="utf-8" standalone="no"?>
<!DOCTYPE svg PUBLIC "-//W3C//DTD SVG 1.1//EN"
  "http://www.w3.org/Graphics/SVG/1.1/DTD/svg11.dtd">
<svg xmlns:xlink="http://www.w3.org/1999/xlink" width="534.832844pt" height="551.173625pt" viewBox="0 0 534.832844 551.173625" xmlns="http://www.w3.org/2000/svg" version="1.1">
 <metadata>
  <rdf:RDF xmlns:dc="http://purl.org/dc/elements/1.1/" xmlns:cc="http://creativecommons.org/ns#" xmlns:rdf="http://www.w3.org/1999/02/22-rdf-syntax-ns#">
   <cc:Work>
    <dc:type rdf:resource="http://purl.org/dc/dcmitype/StillImage"/>
    <dc:date>2026-04-11T10:16:51.531117</dc:date>
    <dc:format>image/svg+xml</dc:format>
    <dc:creator>
     <cc:Agent>
      <dc:title>Matplotlib v3.10.8, https://matplotlib.org/</dc:title>
     </cc:Agent>
    </dc:creator>
   </cc:Work>
  </rdf:RDF>
 </metadata>
 <defs>
  <style type="text/css">*{stroke-linejoin: round; stroke-linecap: butt}</style>
 </defs>
 <g id="figure_1">
  <g id="patch_1">
   <path d="M 0 551.173625 
L 534.832844 551.173625 
L 534.832844 0 
L 0 0 
z
" style="fill: #ffffff"/>
  </g>
  <g id="axes_1">
   <g id="patch_2">
    <path d="M 43.504844 510.372375 
L 527.632844 510.372375 
L 527.632844 26.244375 
L 43.504844 26.244375 
z
" style="fill: #fffdf8"/>
   </g>
   <g id="matplotlib.axis_1">
    <g id="xtick_1">
     <g id="line2d_1">
      <path d="M 110.886711 510.372375 
L 110.886711 26.244375 
" clip-path="url(#pe43e72bd6d)" style="fill: none; stroke: #cccccc; stroke-opacity: 0.25; stroke-width: 0.8; stroke-linecap: round"/>
     </g>
     <g id="line2d_2"/>
     <g id="text_1">
      <!-- −4 -->
      <g style="fill: #262626" transform="translate(103.475695 523.293312) scale(0.13 -0.13)">
       <defs>
        <path id="LiberationSans-2212" d="M 316 1900 
L 316 2356 
L 3425 2356 
L 3425 1900 
L 316 1900 
z
" transform="scale(0.015625)"/>
        <path id="LiberationSans-34" d="M 2753 997 
L 2753 0 
L 2222 0 
L 2222 997 
L 147 997 
L 147 1434 
L 2163 4403 
L 2753 4403 
L 2753 1441 
L 3372 1441 
L 3372 997 
L 2753 997 
z
M 2222 3769 
Q 2216 3750 2134 3603 
Q 2053 3456 2013 3397 
L 884 1734 
L 716 1503 
L 666 1441 
L 2222 1441 
L 2222 3769 
z
" transform="scale(0.015625)"/>
       </defs>
       <use xlink:href="#LiberationSans-2212"/>
       <use xlink:href="#LiberationSans-34" transform="translate(58.398438 0)"/>
      </g>
     </g>
    </g>
    <g id="xtick_2">
     <g id="line2d_3">
      <path d="M 196.477887 510.372375 
L 196.477887 26.244375 
" clip-path="url(#pe43e72bd6d)" style="fill: none; stroke: #cccccc; stroke-opacity: 0.25; stroke-width: 0.8; stroke-linecap: round"/>
     </g>
     <g id="line2d_4"/>
     <g id="text_2">
      <!-- −2 -->
      <g style="fill: #262626" transform="translate(189.066872 523.293312) scale(0.13 -0.13)">
       <defs>
        <path id="LiberationSans-32" d="M 322 0 
L 322 397 
Q 481 763 711 1042 
Q 941 1322 1194 1548 
Q 1447 1775 1695 1969 
Q 1944 2163 2144 2356 
Q 2344 2550 2467 2762 
Q 2591 2975 2591 3244 
Q 2591 3606 2378 3806 
Q 2166 4006 1788 4006 
Q 1428 4006 1195 3811 
Q 963 3616 922 3263 
L 347 3316 
Q 409 3844 795 4156 
Q 1181 4469 1788 4469 
Q 2453 4469 2811 4155 
Q 3169 3841 3169 3263 
Q 3169 3006 3051 2753 
Q 2934 2500 2703 2247 
Q 2472 1994 1819 1463 
Q 1459 1169 1246 933 
Q 1034 697 941 478 
L 3238 478 
L 3238 0 
L 322 0 
z
" transform="scale(0.015625)"/>
       </defs>
       <use xlink:href="#LiberationSans-2212"/>
       <use xlink:href="#LiberationSans-32" transform="translate(58.398438 0)"/>
      </g>
     </g>
    </g>
    <g id="xtick_3">
     <g id="line2d_5">
      <path d="M 282.069063 510.372375 
L 282.069063 26.244375 
" clip-path="url(#pe43e72bd6d)" style="fill: none; stroke: #cccccc; stroke-opacity: 0.25; stroke-width: 0.8; stroke-linecap: round"/>
     </g>
     <g id="line2d_6"/>
     <g id="text_3">
      <!-- 0 -->
      <g style="fill: #262626" transform="translate(278.454454 523.293312) scale(0.13 -0.13)">
       <defs>
        <path id="LiberationSans-30" d="M 3309 2203 
Q 3309 1100 2920 518 
Q 2531 -63 1772 -63 
Q 1013 -63 631 515 
Q 250 1094 250 2203 
Q 250 3338 620 3903 
Q 991 4469 1791 4469 
Q 2569 4469 2939 3897 
Q 3309 3325 3309 2203 
z
M 2738 2203 
Q 2738 3156 2517 3584 
Q 2297 4013 1791 4013 
Q 1272 4013 1045 3591 
Q 819 3169 819 2203 
Q 819 1266 1048 831 
Q 1278 397 1778 397 
Q 2275 397 2506 840 
Q 2738 1284 2738 2203 
z
" transform="scale(0.015625)"/>
       </defs>
       <use xlink:href="#LiberationSans-30"/>
      </g>
     </g>
    </g>
    <g id="xtick_4">
     <g id="line2d_7">
      <path d="M 367.660239 510.372375 
L 367.660239 26.244375 
" clip-path="url(#pe43e72bd6d)" style="fill: none; stroke: #cccccc; stroke-opacity: 0.25; stroke-width: 0.8; stroke-linecap: round"/>
     </g>
     <g id="line2d_8"/>
     <g id="text_4">
      <!-- 2 -->
      <g style="fill: #262626" transform="translate(364.04563 523.293312) scale(0.13 -0.13)">
       <use xlink:href="#LiberationSans-32"/>
      </g>
     </g>
    </g>
    <g id="xtick_5">
     <g id="line2d_9">
      <path d="M 453.251416 510.372375 
L 453.251416 26.244375 
" clip-path="url(#pe43e72bd6d)" style="fill: none; stroke: #cccccc; stroke-opacity: 0.25; stroke-width: 0.8; stroke-linecap: round"/>
     </g>
     <g id="line2d_10"/>
     <g id="text_5">
      <!-- 4 -->
      <g style="fill: #262626" transform="translate(449.636806 523.293312) scale(0.13 -0.13)">
       <use xlink:href="#LiberationSans-34"/>
      </g>
     </g>
    </g>
    <g id="text_6">
     <!-- X [m] -->
     <g style="fill: #262626" transform="translate(268.068063 540.861125) scale(0.15 -0.15)">
      <defs>
       <path id="LiberationSans-58" d="M 3475 0 
L 2153 1925 
L 803 0 
L 144 0 
L 1819 2288 
L 272 4403 
L 931 4403 
L 2156 2675 
L 3347 4403 
L 4006 4403 
L 2500 2309 
L 4134 0 
L 3475 0 
z
" transform="scale(0.015625)"/>
       <path id="LiberationSans-20" transform="scale(0.015625)"/>
       <path id="LiberationSans-5b" d="M 456 -1328 
L 456 4638 
L 1728 4638 
L 1728 4234 
L 1000 4234 
L 1000 -925 
L 1728 -925 
L 1728 -1328 
L 456 -1328 
z
" transform="scale(0.015625)"/>
       <path id="LiberationSans-6d" d="M 2400 0 
L 2400 2144 
Q 2400 2634 2265 2821 
Q 2131 3009 1781 3009 
Q 1422 3009 1212 2734 
Q 1003 2459 1003 1959 
L 1003 0 
L 444 0 
L 444 2659 
Q 444 3250 425 3381 
L 956 3381 
Q 959 3366 962 3297 
Q 966 3228 970 3139 
Q 975 3050 981 2803 
L 991 2803 
Q 1172 3163 1406 3303 
Q 1641 3444 1978 3444 
Q 2363 3444 2586 3291 
Q 2809 3138 2897 2803 
L 2906 2803 
Q 3081 3144 3329 3294 
Q 3578 3444 3931 3444 
Q 4444 3444 4676 3166 
Q 4909 2888 4909 2253 
L 4909 0 
L 4353 0 
L 4353 2144 
Q 4353 2634 4218 2821 
Q 4084 3009 3734 3009 
Q 3366 3009 3161 2736 
Q 2956 2463 2956 1959 
L 2956 0 
L 2400 0 
z
" transform="scale(0.015625)"/>
       <path id="LiberationSans-5d" d="M 50 -1328 
L 50 -925 
L 778 -925 
L 778 4234 
L 50 4234 
L 50 4638 
L 1322 4638 
L 1322 -1328 
L 50 -1328 
z
" transform="scale(0.015625)"/>
      </defs>
      <use xlink:href="#LiberationSans-58"/>
      <use xlink:href="#LiberationSans-20" transform="translate(66.699219 0)"/>
      <use xlink:href="#LiberationSans-5b" transform="translate(94.482422 0)"/>
      <use xlink:href="#LiberationSans-6d" transform="translate(122.265625 0)"/>
      <use xlink:href="#LiberationSans-5d" transform="translate(205.566406 0)"/>
     </g>
    </g>
   </g>
   <g id="matplotlib.axis_2">
    <g id="ytick_1">
     <g id="line2d_11">
      <path d="M 43.504844 444.258819 
L 527.632844 444.258819 
" clip-path="url(#pe43e72bd6d)" style="fill: none; stroke: #cccccc; stroke-opacity: 0.25; stroke-width: 0.8; stroke-linecap: round"/>
     </g>
     <g id="line2d_12"/>
     <g id="text_7">
      <!-- −4 -->
      <g style="fill: #262626" transform="translate(25.182813 448.969288) scale(0.13 -0.13)">
       <use xlink:href="#LiberationSans-2212"/>
       <use xlink:href="#LiberationSans-34" transform="translate(58.398438 0)"/>
      </g>
     </g>
    </g>
    <g id="ytick_2">
     <g id="line2d_13">
      <path d="M 43.504844 358.667643 
L 527.632844 358.667643 
" clip-path="url(#pe43e72bd6d)" style="fill: none; stroke: #cccccc; stroke-opacity: 0.25; stroke-width: 0.8; stroke-linecap: round"/>
     </g>
     <g id="line2d_14"/>
     <g id="text_8">
      <!-- −2 -->
      <g style="fill: #262626" transform="translate(25.182813 363.378112) scale(0.13 -0.13)">
       <use xlink:href="#LiberationSans-2212"/>
       <use xlink:href="#LiberationSans-32" transform="translate(58.398438 0)"/>
      </g>
     </g>
    </g>
    <g id="ytick_3">
     <g id="line2d_15">
      <path d="M 43.504844 273.076467 
L 527.632844 273.076467 
" clip-path="url(#pe43e72bd6d)" style="fill: none; stroke: #cccccc; stroke-opacity: 0.25; stroke-width: 0.8; stroke-linecap: round"/>
     </g>
     <g id="line2d_16"/>
     <g id="text_9">
      <!-- 0 -->
      <g style="fill: #262626" transform="translate(32.775625 277.786936) scale(0.13 -0.13)">
       <use xlink:href="#LiberationSans-30"/>
      </g>
     </g>
    </g>
    <g id="ytick_4">
     <g id="line2d_17">
      <path d="M 43.504844 187.485291 
L 527.632844 187.485291 
" clip-path="url(#pe43e72bd6d)" style="fill: none; stroke: #cccccc; stroke-opacity: 0.25; stroke-width: 0.8; stroke-linecap: round"/>
     </g>
     <g id="line2d_18"/>
     <g id="text_10">
      <!-- 2 -->
      <g style="fill: #262626" transform="translate(32.775625 192.195759) scale(0.13 -0.13)">
       <use xlink:href="#LiberationSans-32"/>
      </g>
     </g>
    </g>
    <g id="ytick_5">
     <g id="line2d_19">
      <path d="M 43.504844 101.894115 
L 527.632844 101.894115 
" clip-path="url(#pe43e72bd6d)" style="fill: none; stroke: #cccccc; stroke-opacity: 0.25; stroke-width: 0.8; stroke-linecap: round"/>
     </g>
     <g id="line2d_20"/>
     <g id="text_11">
      <!-- 4 -->
      <g style="fill: #262626" transform="translate(32.775625 106.604583) scale(0.13 -0.13)">
       <use xlink:href="#LiberationSans-34"/>
      </g>
     </g>
    </g>
    <g id="text_12">
     <!-- Y [m] -->
     <g style="fill: #262626" transform="translate(18.070313 285.677906) rotate(-90) scale(0.15 -0.15)">
      <defs>
       <path id="LiberationSans-59" d="M 2428 1825 
L 2428 0 
L 1834 0 
L 1834 1825 
L 141 4403 
L 797 4403 
L 2138 2306 
L 3472 4403 
L 4128 4403 
L 2428 1825 
z
" transform="scale(0.015625)"/>
      </defs>
      <use xlink:href="#LiberationSans-59"/>
      <use xlink:href="#LiberationSans-20" transform="translate(64.949219 0)"/>
      <use xlink:href="#LiberationSans-5b" transform="translate(92.732422 0)"/>
      <use xlink:href="#LiberationSans-6d" transform="translate(120.515625 0)"/>
      <use xlink:href="#LiberationSans-5d" transform="translate(203.816406 0)"/>
     </g>
    </g>
   </g>
   <g id="patch_3">
    <path d="M 281.961818 272.924928 
L 284.414433 270.215796 
L 286.933895 267.490102 
L 289.487807 264.781698 
L 292.060934 262.094648 
L 294.635089 259.414189 
L 297.206933 256.735571 
L 299.764525 254.046125 
L 302.312404 251.349746 
L 304.837857 248.635307 
L 307.339088 245.901397 
L 309.814684 243.147757 
L 312.25797 240.365873 
L 314.679002 237.565544 
L 317.064599 234.735215 
L 319.430853 231.886141 
L 321.774981 229.018495 
L 324.097712 226.131376 
L 326.402639 223.228251 
L 328.690235 220.310577 
L 330.96191 217.377881 
L 333.220233 214.431447 
L 335.470725 211.47684 
L 337.713727 208.514101 
L 339.954761 205.547468 
L 342.192927 202.576599 
L 344.435759 199.606071 
L 346.687876 196.640422 
L 348.951891 193.680551 
L 351.239615 190.733947 
L 353.558408 187.808868 
L 355.911438 184.903647 
L 358.31946 182.035016 
L 360.785471 179.209138 
L 363.318242 176.431618 
L 365.932239 173.716837 
L 368.632127 171.071514 
L 371.433184 168.519656 
L 374.336993 166.058995 
L 377.365081 163.727106 
L 380.507389 161.527456 
L 383.779198 159.481227 
L 387.175755 157.617779 
L 390.686705 155.956026 
L 394.310678 154.51313 
L 398.049472 153.30852 
L 401.886225 152.370526 
L 405.786187 151.719135 
L 409.736476 151.35871 
L 413.699048 151.297213 
L 417.640693 151.51714 
L 421.55512 152.008989 
L 425.421915 152.757399 
L 429.222249 153.746833 
L 432.94508 154.955893 
L 436.580223 156.364425 
L 440.123955 157.94401 
L 443.578885 159.674321 
L 446.951948 161.539567 
L 450.24524 163.524383 
L 453.458675 165.615247 
L 456.600213 167.800647 
L 459.666731 170.074205 
L 462.669997 172.419104 
L 465.612536 174.838424 
L 468.492422 177.324848 
L 471.310555 179.86973 
L 474.077589 182.466781 
L 476.79207 185.122375 
L 479.451559 187.832406 
L 482.057896 190.590496 
L 484.610567 193.398742 
L 487.108931 196.255776 
L 489.556068 199.157402 
L 491.948299 202.10482 
L 494.285794 205.096232 
L 496.56988 208.132878 
L 498.798674 211.214546 
L 500.967598 214.341448 
L 503.073397 217.512729 
L 505.124547 220.730016 
L 507.10457 224.003066 
L 509.00953 227.322762 
L 510.837458 230.688079 
L 512.590451 234.106291 
L 514.251819 237.579923 
L 515.820106 241.100331 
L 517.293216 244.669397 
L 518.66567 248.285239 
L 519.929253 251.952094 
L 521.077416 255.670089 
L 522.10053 259.435288 
L 522.991619 263.244566 
L 523.745164 267.096811 
L 524.345158 270.984105 
L 524.797208 274.89973 
L 525.086677 278.842231 
L 525.209972 282.798084 
L 525.165849 286.757018 
L 524.957392 290.715738 
L 524.578394 294.662305 
L 524.037843 298.590383 
L 523.329662 302.495866 
L 522.459841 306.365785 
L 521.433475 310.194921 
L 520.257024 313.977665 
L 518.933827 317.713249 
L 517.46076 321.392386 
L 515.849207 325.009769 
L 514.099039 328.561161 
L 512.216589 332.044679 
L 510.202671 335.458055 
L 508.06041 338.795084 
L 505.791345 342.050587 
L 503.396804 345.219857 
L 500.880594 348.297074 
L 498.245884 351.276075 
L 495.498022 354.155105 
L 492.638849 356.930056 
L 489.671317 359.595794 
L 486.595641 362.148764 
L 483.409937 364.583149 
L 480.117074 366.885637 
L 476.72364 369.050452 
L 473.231306 371.071217 
L 469.642554 372.940143 
L 465.964401 374.645461 
L 462.209987 376.180539 
L 458.383762 377.543621 
L 454.493172 378.726962 
L 450.54498 379.724613 
L 446.552109 380.528956 
L 442.535186 381.145469 
L 438.491474 381.577448 
L 434.423925 381.820398 
L 430.350854 381.869057 
L 426.284033 381.725991 
L 422.235869 381.393598 
L 418.219076 380.880094 
L 414.236818 380.197033 
L 410.291321 379.348482 
L 406.400175 378.339748 
L 402.565905 377.190857 
L 398.784016 375.904508 
L 395.063581 374.488145 
L 391.404387 372.955464 
L 387.810243 371.313696 
L 384.282003 369.58009 
L 380.811324 367.75871 
L 377.39752 365.856745 
L 374.042902 363.882414 
L 370.742378 361.844274 
L 367.492181 359.74866 
L 364.296292 357.604344 
L 361.137293 355.420656 
L 358.013344 353.184458 
L 354.93266 350.908075 
L 351.896485 348.602463 
L 348.890351 346.271002 
L 345.911436 343.908001 
L 342.960423 341.520007 
L 340.037656 339.107962 
L 337.143005 336.679612 
L 334.267398 334.236284 
L 331.408097 331.773055 
L 328.569551 329.294934 
L 325.746283 326.804616 
L 322.941075 324.301587 
L 320.150675 321.791198 
L 317.372171 319.269383 
L 314.605993 316.74042 
L 311.850171 314.204867 
L 309.103849 311.663152 
L 306.366558 309.114674 
L 303.637869 306.561832 
L 300.917439 304.005865 
L 298.201802 301.446646 
L 295.4913 298.884774 
L 292.784394 296.318922 
L 290.084163 293.750716 
L 287.390524 291.18435 
L 284.698424 288.617342 
L 282.007994 286.049136 
L 279.320046 283.481957 
L 276.634623 280.917132 
L 273.950869 278.353976 
L 271.269811 275.796597 
L 268.587683 273.244183 
L 265.901832 270.692453 
L 263.216965 268.146629 
L 260.529616 265.606668 
L 257.838458 263.071072 
L 255.147258 260.542923 
L 252.451735 258.024531 
L 249.750563 255.512002 
L 247.045924 253.00769 
L 244.335423 250.514633 
L 241.618631 248.029407 
L 238.898286 245.557192 
L 236.168484 243.096745 
L 233.432092 240.646569 
L 230.685128 238.209403 
L 227.911546 235.76616 
L 225.160004 233.334515 
L 222.426906 230.95752 
L 219.663595 228.60817 
L 216.868787 226.267808 
L 214.064263 223.949742 
L 211.252679 221.667068 
L 208.429026 219.419273 
L 205.579696 217.207683 
L 202.696086 215.021641 
L 199.791378 212.862646 
L 196.878967 210.743024 
L 193.946314 208.669364 
L 190.993675 206.63867 
L 188.01797 204.661 
L 185.015988 202.733915 
L 181.993079 200.867899 
L 178.948044 199.070613 
L 175.876819 197.347919 
L 172.77401 195.704654 
L 169.64026 194.145055 
L 166.485156 192.679948 
L 163.294231 191.317079 
L 160.072494 190.054524 
L 156.835179 188.910384 
L 153.575567 187.89386 
L 150.294686 187.010302 
L 147.017571 186.273833 
L 143.729971 185.699474 
L 140.427051 185.282602 
L 137.123745 185.034345 
L 133.822835 184.953333 
L 130.543923 185.043246 
L 127.298776 185.310804 
L 124.082731 185.758232 
L 120.899723 186.379624 
L 117.76118 187.17391 
L 114.66676 188.139421 
L 111.61445 189.271065 
L 108.606049 190.559769 
L 105.630814 192.010453 
L 102.767318 193.571594 
L 100.016075 195.265529 
L 97.286402 197.122986 
L 94.641506 199.094749 
L 92.137065 201.149023 
L 89.692496 203.361341 
L 87.277455 205.714542 
L 84.985323 208.127999 
L 82.791921 210.652468 
L 80.658475 213.291458 
L 78.622989 216.001147 
L 76.687173 218.781661 
L 74.848589 221.631591 
L 73.114598 224.539252 
L 71.492046 227.502375 
L 69.979692 230.524129 
L 68.577452 233.602672 
L 67.283142 236.742456 
L 66.099245 239.912539 
L 65.045233 243.114077 
L 64.108608 246.357255 
L 63.29776 249.625298 
L 62.615898 252.923768 
L 62.058443 256.257501 
L 61.621842 259.606342 
L 61.314698 262.966908 
L 61.132689 266.333508 
L 61.086127 269.71008 
L 61.158837 273.090247 
L 61.361731 276.460956 
L 61.689802 279.830081 
L 62.143478 283.190049 
L 62.721989 286.539531 
L 63.423237 289.875832 
L 64.242687 293.190864 
L 65.179696 296.477608 
L 66.229344 299.724081 
L 67.403997 302.931354 
L 68.698949 306.115474 
L 70.09952 309.265914 
L 71.604384 312.369878 
L 73.210331 315.42437 
L 74.915564 318.421902 
L 76.724534 321.361488 
L 78.627568 324.239106 
L 80.629717 327.04778 
L 82.729868 329.792775 
L 84.921772 332.465103 
L 87.19777 335.053808 
L 89.55739 337.547678 
L 92.005426 339.942647 
L 94.541364 342.234308 
L 97.166146 344.414658 
L 99.876219 346.478946 
L 102.662041 348.412108 
L 105.521899 350.199808 
L 108.453525 351.832931 
L 111.454651 353.297653 
L 114.521084 354.583617 
L 117.650126 355.679355 
L 120.848754 356.583369 
L 124.150305 357.30041 
L 127.413083 357.855126 
L 130.649628 358.133297 
L 133.938597 358.1808 
L 137.2048 358.003627 
L 140.491886 357.565186 
L 143.826432 356.931255 
L 147.132862 356.121434 
L 150.398508 355.134011 
L 153.624183 353.975064 
L 156.810143 352.653665 
L 159.957416 351.182652 
L 163.065189 349.576961 
L 166.13757 347.847206 
L 169.162234 346.022403 
L 172.130835 344.092493 
L 175.067126 342.066592 
L 177.966399 339.962162 
L 180.827241 337.788061 
L 183.654532 335.546299 
L 186.453748 333.248604 
L 189.222537 330.900881 
L 191.964194 328.508437 
L 194.682997 326.073582 
L 197.382714 323.605218 
L 200.060306 321.106169 
L 202.720736 318.579047 
L 205.365333 316.027232 
L 207.994009 313.454233 
L 210.609076 310.85868 
L 213.214257 308.247507 
L 215.806729 305.618746 
L 218.392866 302.97599 
L 220.971471 300.321936 
L 223.544941 297.657696 
L 226.114303 294.985497 
L 228.681054 292.305766 
L 231.247762 289.621969 
L 233.813058 286.934919 
L 236.378696 284.245302 
L 238.945661 281.554102 
L 241.515108 278.862259 
L 244.087808 276.171315 
L 246.664231 273.48234 
L 249.245104 270.795505 
L 251.831755 268.112735 
L 254.42367 265.43356 
L 257.023373 262.759221 
L 259.631251 260.090873 
L 262.247688 257.429886 
L 264.873839 254.776217 
L 267.510903 252.132135 
L 270.15888 249.49751 
L 272.819011 246.874483 
L 275.491253 244.262069 
L 278.179116 241.662151 
L 280.881828 239.076613 
L 283.59999 236.508322 
L 286.330819 233.955222 
L 289.078082 231.417187 
L 291.842977 228.896099 
L 294.62653 226.393071 
L 297.431567 223.908872 
L 300.25599 221.451079 
L 303.098088 219.010532 
L 305.968687 216.595406 
L 308.861626 214.207712 
L 311.781013 211.847278 
L 314.726591 209.51877 
L 317.697803 207.221503 
L 320.697003 204.957274 
L 323.722352 202.728523 
L 326.778342 200.532895 
L 329.867028 198.380063 
L 332.983959 196.267459 
L 336.136795 194.198035 
L 339.32481 192.177656 
L 342.548002 190.20846 
L 345.809497 188.29049 
L 349.112888 186.432562 
L 352.453555 184.639983 
L 355.835562 182.909715 
L 359.261135 181.255751 
L 362.725908 179.674368 
L 366.240282 178.177293 
L 369.795568 176.774625 
L 373.39074 175.463111 
L 377.031018 174.253152 
L 380.714862 173.151764 
L 384.435896 172.170248 
L 388.192236 171.304578 
L 391.983283 170.573116 
L 395.800864 169.971068 
L 399.62221 169.515081 
L 403.460118 169.154656 
L 407.344246 168.95279 
L 411.229486 168.923004 
L 415.105226 169.045185 
L 418.981736 169.321046 
L 422.851056 169.767404 
L 426.675527 170.380921 
L 430.460112 171.118418 
L 434.223085 171.993117 
L 437.951565 173.006302 
L 441.63909 174.153738 
L 445.277699 175.432855 
L 448.863798 176.830987 
L 452.399955 178.344752 
L 455.883858 179.97137 
L 459.309687 181.707458 
L 462.677229 183.544545 
L 465.986484 185.480489 
L 469.23668 187.513365 
L 472.422684 189.640733 
L 475.543809 191.855919 
L 478.599328 194.155967 
L 481.590526 196.538098 
L 484.513892 199.00214 
L 487.367074 201.543256 
L 490.149986 204.158109 
L 492.862199 206.84563 
L 495.503671 209.605175 
L 498.068154 212.437344 
L 500.554235 215.337473 
L 502.959946 218.303378 
L 505.287127 221.336815 
L 507.525593 224.440864 
L 509.671493 227.608594 
L 511.723883 230.839918 
L 513.679214 234.135263 
L 515.530679 237.494246 
L 517.273102 240.915754 
L 518.899291 244.396618 
L 520.406723 247.93346 
L 521.788379 251.524224 
L 523.043359 255.165144 
L 524.162036 258.858489 
L 525.13234 262.597882 
L 525.955813 266.376989 
L 526.62167 270.1932 
L 527.125502 274.037356 
L 527.462945 277.902311 
L 527.632844 281.781817 
L 527.629891 285.668555 
L 527.453188 289.553881 
L 527.099054 293.428422 
L 526.573225 297.282122 
L 525.879722 301.107235 
L 525.023511 304.901791 
L 523.999156 308.654279 
L 522.819667 312.35537 
L 521.490607 316.002581 
L 520.017882 319.592489 
L 518.4065 323.121242 
L 516.665447 326.573776 
L 514.821856 329.959977 
L 512.857496 333.309288 
L 510.733936 336.569585 
L 508.50527 339.740567 
L 506.149287 342.838967 
L 503.655032 345.840778 
L 501.051135 348.716984 
L 498.374527 351.503833 
L 495.596152 354.210397 
L 492.716052 356.817376 
L 489.740988 359.319976 
L 486.667709 361.714304 
L 483.499851 363.99013 
L 480.242764 366.143647 
L 476.89632 368.16852 
L 473.461974 370.059229 
L 469.941823 371.803278 
L 466.342586 373.394461 
L 462.665546 374.824946 
L 458.91738 376.082922 
L 455.103694 377.161928 
L 451.23493 378.044715 
L 447.326966 378.737233 
L 443.383352 379.232164 
L 439.417314 379.522019 
L 435.437666 379.604186 
L 431.459474 379.473916 
L 427.497673 379.138699 
L 423.566256 378.596136 
L 419.678277 377.861421 
L 415.842722 376.943285 
L 412.060491 375.853452 
L 408.33689 374.594535 
L 404.687453 373.179413 
L 401.110855 371.629057 
L 397.607137 369.951941 
L 394.177884 368.164797 
L 390.813936 366.278068 
L 387.515467 364.298472 
L 384.279007 362.238806 
L 381.103361 360.102237 
L 377.986045 357.90096 
L 374.918714 355.640326 
L 371.90385 353.325299 
L 368.935762 350.967262 
L 366.005634 348.564931 
L 363.117659 346.122459 
L 360.267173 343.649558 
L 357.448827 341.146958 
L 354.660352 338.617482 
L 351.899951 336.063741 
L 349.165142 333.490656 
L 346.452543 330.900111 
L 343.759631 328.294116 
L 341.084222 325.675197 
L 338.424305 323.04451 
L 335.778468 320.404578 
L 333.143629 317.756601 
L 330.519446 315.100836 
L 327.904807 312.440191 
L 325.297358 309.775224 
L 322.696327 307.106791 
L 320.100304 304.436475 
L 317.508133 301.764874 
L 314.918957 299.09306 
L 312.331578 296.421674 
L 309.745826 293.751657 
L 307.159817 291.08438 
L 304.573508 288.419798 
L 301.985189 285.759453 
L 299.394643 283.10296 
L 296.801145 280.452072 
L 294.203838 277.807134 
L 291.602637 275.169513 
L 288.99493 272.539553 
L 286.382816 269.917981 
L 283.762142 267.307065 
L 281.134365 264.704409 
L 278.498028 262.113521 
L 275.852362 259.532434 
L 273.20002 256.964441 
L 270.534454 254.410529 
L 267.859687 251.867573 
L 265.172638 249.340065 
L 262.475061 246.825995 
L 259.765287 244.329172 
L 257.041947 241.848398 
L 254.303457 239.382602 
L 251.557435 236.932811 
L 248.79528 234.509211 
L 246.014636 232.102815 
L 243.219528 229.717475 
L 240.406959 227.35473 
L 237.579198 225.014069 
L 234.734104 222.700796 
L 231.868555 220.413543 
L 228.983747 218.15415 
L 226.078996 215.9239 
L 223.154988 213.724507 
L 220.209624 211.559735 
L 217.240509 209.429242 
L 214.248584 207.33474 
L 211.234576 205.280766 
L 208.194335 203.271128 
L 205.127689 201.305099 
L 202.035451 199.387043 
L 198.914839 197.521327 
L 195.767053 195.709618 
L 192.593332 193.959707 
L 189.38576 192.276728 
L 186.1499 190.659354 
L 182.885024 189.120681 
L 179.593915 187.665375 
L 176.265702 186.306829 
L 172.903852 185.03841 
L 169.518207 183.876339 
L 166.105002 182.831527 
L 162.658588 181.90894 
L 159.182217 181.110246 
L 155.690268 180.441351 
L 152.185695 179.918774 
L 148.669952 179.546238 
L 145.150442 179.333715 
L 141.628494 179.285399 
L 138.112494 179.401846 
L 134.607963 179.686865 
L 131.11901 180.136818 
L 127.655221 180.74918 
L 124.224726 181.52027 
L 120.827185 182.44932 
L 117.465249 183.529823 
L 114.148548 184.753049 
L 110.882646 186.114077 
L 107.675116 187.607215 
L 104.525703 189.234047 
L 101.43231 190.982889 
L 98.40495 192.846808 
L 95.444009 194.825547 
L 92.548844 196.908751 
L 89.729428 199.091069 
L 86.987044 201.373615 
L 84.32135 203.748812 
L 81.739064 206.215079 
L 79.23732 208.769848 
L 76.809141 211.418509 
L 74.448023 214.145573 
L 72.208144 216.888855 
L 70.110347 219.729669 
L 68.084747 222.66014 
L 66.184237 225.659212 
L 64.392686 228.727185 
L 62.725583 231.873046 
L 61.164529 235.076338 
L 59.73614 238.33274 
L 58.426339 241.643749 
L 57.243212 244.995714 
L 56.192922 248.387478 
L 55.277097 251.815875 
L 54.502112 255.274144 
L 53.874985 258.762584 
L 53.392294 262.275117 
L 53.060542 265.804384 
L 52.879217 269.34084 
L 52.858547 272.880677 
L 52.995279 276.420129 
L 53.290825 279.948796 
L 53.748952 283.463427 
L 54.364181 286.959698 
L 55.134416 290.430934 
L 56.051611 293.8708 
L 57.114697 297.270482 
L 58.323629 300.626298 
L 59.672075 303.93598 
L 61.153359 307.194051 
L 62.764613 310.396317 
L 64.496936 313.540423 
L 66.345448 316.622176 
L 68.306813 319.638067 
L 70.376365 322.582574 
L 72.554018 325.452147 
L 74.832584 328.244687 
L 77.215699 330.953263 
L 79.692964 333.58134 
L 82.261213 336.12327 
L 84.91715 338.578495 
L 87.65748 340.938929 
L 90.48293 343.198236 
L 93.390206 345.354749 
L 96.37691 347.40102 
L 99.441031 349.330972 
L 102.578761 351.141354 
L 105.786675 352.827372 
L 109.062292 354.379311 
L 112.401461 355.789939 
L 115.800244 357.05288 
L 119.252949 358.164024 
L 122.75534 359.114386 
L 126.296375 359.908801 
L 129.869807 360.533745 
L 133.469344 360.984254 
L 137.085229 361.256262 
L 140.708474 361.343266 
L 144.331549 361.240171 
L 147.94662 360.946251 
L 151.545259 360.465186 
L 155.118048 359.797361 
L 158.657072 358.946371 
L 162.155654 357.91765 
L 165.610756 356.726863 
L 169.018612 355.387746 
L 172.376097 353.912754 
L 175.682099 352.312498 
L 178.93666 350.59892 
L 182.139482 348.781263 
L 185.29142 346.868942 
L 188.39303 344.868805 
L 191.448721 342.79155 
L 194.461488 340.648047 
L 197.432528 338.443518 
L 200.365139 336.184981 
L 203.260646 333.87663 
L 206.124184 331.526724 
L 208.956054 329.137831 
L 211.761647 326.717099 
L 214.543959 324.269277 
L 217.306329 321.799586 
L 220.050339 319.310338 
L 222.778815 316.805213 
L 225.494965 314.287762 
L 228.202085 311.761924 
L 230.904071 309.232619 
L 233.605585 306.704555 
L 236.312149 304.182954 
L 239.032921 301.677272 
L 241.778772 299.198337 
L 244.568402 296.764082 
L 247.430571 294.401936 
L 250.423138 292.16484 
L 253.704319 290.183276 
L 257.715678 289.26454 
L 260.461485 291.915384 
L 259.699895 292.739713 
L 257.381358 290.711716 
L 254.342915 291.67299 
L 251.343885 293.52544 
L 248.442986 295.69248 
L 245.621901 298.008064 
L 242.85675 300.413561 
L 240.12913 302.877645 
L 237.425776 305.38093 
L 234.735774 307.908994 
L 232.050179 310.450153 
L 229.362573 312.996191 
L 226.668078 315.541159 
L 223.96421 318.08142 
L 221.246476 320.611752 
L 218.511624 323.128304 
L 215.756914 325.627224 
L 212.979438 328.10496 
L 210.176541 330.558217 
L 207.344115 332.981774 
L 204.479678 335.370966 
L 201.581218 337.72284 
L 198.642873 340.028667 
L 195.664044 342.285749 
L 192.638481 344.483388 
L 189.567127 346.620171 
L 186.444162 348.686556 
L 183.265177 350.670346 
L 180.03013 352.56542 
L 176.736026 354.360353 
L 173.382906 356.049067 
L 169.967903 357.615428 
L 166.494014 359.053488 
L 162.961196 360.350922 
L 159.370518 361.494377 
L 155.725703 362.467806 
L 152.034969 363.26299 
L 148.305804 363.872785 
L 144.546939 364.292395 
L 140.767789 364.518485 
L 136.977769 364.552978 
L 133.187107 364.394463 
L 129.405774 364.051628 
L 125.641774 363.528537 
L 121.905462 362.828016 
L 118.20313 361.959137 
L 114.539999 360.928149 
L 110.9239 359.738003 
L 107.361253 358.39328 
L 103.856979 356.902453 
L 100.414888 355.271813 
L 97.04007 353.503157 
L 93.73762 351.600594 
L 90.510105 349.57281 
L 87.360821 347.424942 
L 84.291564 345.160713 
L 81.308926 342.78222 
L 78.413162 340.298963 
L 75.606756 337.710344 
L 72.897667 335.017517 
L 70.283541 332.227544 
L 67.772339 329.340383 
L 65.366499 326.362623 
L 63.071372 323.294992 
L 60.890209 320.143611 
L 58.824295 316.91126 
L 56.882445 313.598882 
L 55.064916 310.211525 
L 53.37907 306.75056 
L 51.830469 303.220566 
L 50.425746 299.623426 
L 49.173761 295.964574 
L 48.080206 292.25287 
L 47.146534 288.493064 
L 46.37861 284.689392 
L 45.782083 280.848659 
L 45.364312 276.98028 
L 45.126497 273.096795 
L 45.065128 269.203167 
L 45.186325 265.311635 
L 45.480374 261.432943 
L 45.945177 257.572524 
L 46.576411 253.735514 
L 47.37502 249.931543 
L 48.331758 246.170624 
L 49.440549 242.455111 
L 50.696728 238.792023 
L 52.088269 235.184312 
L 53.612862 231.624446 
L 55.275086 228.132112 
L 57.053413 224.692117 
L 58.977717 221.320467 
L 61.029166 218.023195 
L 63.215422 214.827905 
L 65.517653 211.680932 
L 67.999541 208.6935 
L 70.507062 205.808136 
L 73.092301 202.968777 
L 75.781062 200.202513 
L 78.566755 197.527147 
L 81.444887 194.951366 
L 84.411221 192.474443 
L 87.467254 190.105237 
L 90.603528 187.846614 
L 93.821799 185.698061 
L 97.123778 183.669893 
L 100.501763 181.76917 
L 103.957849 179.996448 
L 107.491352 178.370344 
L 111.088535 176.892869 
L 114.746531 175.567447 
L 118.460803 174.398913 
L 122.230923 173.390179 
L 126.049188 172.563667 
L 129.899635 171.916299 
L 133.775418 171.448543 
L 137.67003 171.159245 
L 141.571747 171.054652 
L 145.470468 171.125094 
L 149.358062 171.371896 
L 153.222375 171.784873 
L 157.059513 172.353156 
L 160.859633 173.070667 
L 164.621279 173.917164 
L 168.351642 174.889522 
L 172.042591 175.989583 
L 175.684067 177.205705 
L 179.275045 178.521327 
L 182.830032 179.92682 
L 186.339356 181.429715 
L 189.802803 183.009215 
L 193.221229 184.663778 
L 196.602636 186.380951 
L 199.946641 188.164628 
L 203.250717 190.003939 
L 206.520813 191.89452 
L 209.757572 193.834701 
L 212.962363 195.819732 
L 216.137581 197.849141 
L 219.282458 199.920062 
L 222.397206 202.027873 
L 225.48585 204.170306 
L 228.549029 206.348216 
L 231.585291 208.558609 
L 234.597073 210.797674 
L 237.586002 213.065412 
L 240.552935 215.359427 
L 243.500139 217.678734 
L 246.423677 220.023333 
L 249.329069 222.387875 
L 252.214733 224.776467 
L 255.082465 227.183719 
L 257.935733 229.613824 
L 260.766147 232.063786 
L 263.580813 234.525944 
L 266.3808 237.008302 
L 269.167221 239.506067 
L 271.936523 242.020222 
L 274.693629 244.546788 
L 277.435713 247.088504 
L 280.166799 249.641988 
L 282.884619 252.210494 
L 285.58853 254.788543 
L 288.283068 257.377077 
L 290.965282 259.976481 
L 293.639279 262.583802 
L 296.30202 265.201522 
L 298.95616 267.824507 
L 301.602125 270.455194 
L 304.240345 273.090761 
L 306.872188 275.730949 
L 309.498125 278.374689 
L 312.119655 281.021382 
L 314.736476 283.670686 
L 317.350003 286.320888 
L 319.960491 288.971733 
L 322.569053 291.621379 
L 325.176674 294.269484 
L 327.784295 296.914679 
L 330.392686 299.556066 
L 333.002703 302.192317 
L 335.615374 304.82232 
L 338.231682 307.445004 
L 340.851799 310.05836 
L 343.478592 312.660717 
L 346.112147 315.251947 
L 348.753534 317.828541 
L 351.404293 320.389557 
L 354.065451 322.932728 
L 356.739019 325.455357 
L 359.425213 327.955689 
L 362.126299 330.428889 
L 364.844889 332.873073 
L 367.582437 335.286059 
L 370.341469 337.663611 
L 373.120186 340.00055 
L 375.92518 342.290456 
L 378.760687 344.534914 
L 381.620374 346.726775 
L 384.511345 348.855813 
L 387.436594 350.922455 
L 390.393427 352.917671 
L 393.386764 354.835512 
L 396.415793 356.669603 
L 399.484836 358.408772 
L 402.591796 360.050497 
L 405.733634 361.580525 
L 408.914544 362.98897 
L 412.132601 364.266847 
L 415.386307 365.403283 
L 418.684478 366.392033 
L 422.019195 367.233437 
L 425.381602 367.915427 
L 428.766861 368.432013 
L 432.172106 368.778272 
L 435.591773 368.95031 
L 439.020727 368.944361 
L 442.453704 368.767145 
L 445.87872 368.417248 
L 449.289785 367.89343 
L 452.673761 367.200441 
L 456.023799 366.338581 
L 459.33836 365.312899 
L 462.608329 364.126691 
L 465.830152 362.787018 
L 468.995484 361.302525 
L 472.099834 359.676549 
L 475.14123 357.916837 
L 478.113898 356.030622 
L 481.012914 354.025477 
L 483.83387 351.903886 
L 486.578865 349.671368 
L 489.243618 347.33888 
L 491.824577 344.904282 
L 494.330301 342.369885 
L 496.743673 339.767014 
L 499.037645 337.09015 
L 501.230534 334.316654 
L 503.330984 331.452088 
L 505.324146 328.530348 
L 507.195939 325.525199 
L 508.979146 322.432704 
L 510.654251 319.291294 
L 512.204007 316.100755 
L 513.627988 312.853383 
L 514.922725 309.554827 
L 516.081587 306.20941 
L 517.098667 302.824622 
L 517.964208 299.398878 
L 518.680178 295.936287 
L 519.239516 292.447205 
L 519.638756 288.937368 
L 519.875887 285.411739 
L 519.950394 281.876395 
L 519.860052 278.337585 
L 519.60927 274.802541 
L 519.198005 271.279395 
L 518.629765 267.774136 
L 517.906006 264.290361 
L 517.037212 260.834061 
L 516.02698 257.412554 
L 514.880957 254.026139 
L 513.606076 250.681279 
L 512.206061 247.383108 
L 510.687289 244.134281 
L 509.052027 240.938778 
L 507.30678 237.796982 
L 505.456384 234.710778 
L 503.506403 231.681236 
L 501.463727 228.710537 
L 499.332806 225.802877 
L 497.111501 222.958297 
L 494.809312 220.172518 
L 492.431804 217.451746 
L 489.979531 214.799018 
L 487.455319 212.213523 
L 484.859937 209.696714 
L 482.200448 207.248208 
L 479.477451 204.873908 
L 476.693683 202.575229 
L 473.847006 200.355636 
L 470.942384 198.213717 
L 467.9817 196.155591 
L 464.967393 194.18387 
L 461.898906 192.303389 
L 458.776882 190.514191 
L 455.606286 188.818416 
L 452.389769 187.222954 
L 449.129131 185.730843 
L 445.823385 184.346791 
L 442.477498 183.070712 
L 439.098615 181.909882 
L 435.685367 180.872944 
L 432.239338 179.958103 
L 428.761426 179.170536 
L 425.251118 178.503823 
L 421.738414 177.95574 
L 418.226779 177.563776 
L 414.691863 177.323093 
L 411.140386 177.220855 
L 407.595328 177.255947 
L 404.061482 177.438256 
L 400.503328 177.769109 
L 396.945774 178.199076 
L 393.423397 178.759228 
L 389.919166 179.440234 
L 386.436333 180.247187 
L 382.97524 181.164768 
L 379.54436 182.197254 
L 376.139244 183.333391 
L 372.761688 184.571296 
L 369.414302 185.897917 
L 366.103978 187.314964 
L 362.821941 188.8197 
L 359.570889 190.398814 
L 356.354672 192.056544 
L 353.166529 193.780779 
L 350.013522 195.569335 
L 346.891198 197.420928 
L 343.797248 199.330468 
L 340.732614 201.290848 
L 337.69755 203.301513 
L 334.687951 205.360879 
L 331.705055 207.460174 
L 328.751347 209.604747 
L 325.819121 211.788135 
L 322.91313 214.007043 
L 320.032174 216.263312 
L 317.173771 218.550608 
L 314.340617 220.871456 
L 311.527792 223.223544 
L 308.736877 225.602465 
L 305.964879 228.013055 
L 303.207217 230.444786 
L 300.472065 232.899541 
L 297.75279 235.378818 
L 295.048152 237.878166 
L 292.358578 240.397413 
L 289.681585 242.934079 
L 287.019357 245.486408 
L 284.372108 248.054742 
L 281.738296 250.63951 
L 279.116339 253.241268 
L 276.503882 255.855565 
L 273.903109 258.483385 
L 271.311023 261.122375 
L 268.728566 263.773091 
L 266.153213 266.433821 
L 263.585392 269.103795 
L 261.023905 271.782328 
L 258.46704 274.46865 
L 255.91424 277.160835 
L 253.365249 279.858412 
L 250.818569 282.560568 
L 248.273944 285.266319 
L 245.730174 287.975066 
L 243.18619 290.686295 
L 240.640366 293.398294 
L 238.092146 296.110379 
L 235.54063 298.820495 
L 232.984792 301.52967 
L 230.421336 304.235378 
L 227.850648 306.936892 
L 225.269646 309.63233 
L 222.677988 312.319807 
L 220.072678 314.999966 
L 217.451791 317.667373 
L 214.815412 320.323138 
L 212.157848 322.963541 
L 209.480942 325.586225 
L 206.780925 328.190037 
L 204.054675 330.772452 
L 201.301421 333.329274 
L 198.518595 335.861703 
L 195.69828 338.363619 
L 192.840262 340.830613 
L 189.941032 343.257765 
L 186.995198 345.642891 
L 183.995056 347.977519 
L 180.939751 350.251334 
L 177.824446 352.461769 
L 174.63365 354.602576 
L 171.373525 356.642427 
L 168.054941 358.594163 
L 164.651964 360.446228 
L 161.163439 362.179706 
L 157.585899 363.777137 
L 153.920927 365.218021 
L 150.176185 366.486525 
L 146.365837 367.568655 
L 142.492879 368.462355 
L 138.498767 369.156756 
L 134.424713 369.543115 
L 130.348732 369.656181 
L 126.237959 369.48457 
L 122.22797 369.011765 
L 118.279093 368.372398 
L 114.316478 367.491537 
L 110.401752 366.363231 
L 106.568294 364.997153 
L 102.83057 363.417568 
L 99.198123 361.638042 
L 95.67549 359.680786 
L 92.266864 357.561206 
L 88.968822 355.29963 
L 85.775202 352.899397 
L 82.689939 350.368808 
L 79.714704 347.718135 
L 76.852664 344.955765 
L 74.105016 342.096892 
L 71.465341 339.149089 
L 68.927178 336.11287 
L 66.490226 332.984384 
L 64.165698 329.770992 
L 61.95231 326.481081 
L 59.850875 323.114951 
L 57.865075 319.68129 
L 55.994522 316.181039 
L 54.241486 312.618178 
L 52.605411 308.987614 
L 51.092416 305.280318 
L 49.71825 301.516146 
L 48.483126 297.710206 
L 47.385804 293.859374 
L 46.427954 289.965318 
L 45.613468 286.028423 
L 44.949623 282.053954 
L 44.441468 278.050812 
L 44.092513 274.020923 
L 43.908962 269.983373 
L 43.882472 265.936451 
L 44.022028 261.886191 
L 44.319329 257.847229 
L 44.779981 253.825171 
L 45.395082 249.826266 
L 46.169211 245.843452 
L 47.103568 241.894104 
L 48.191046 237.993243 
L 49.429165 234.132781 
L 50.816299 230.338353 
L 52.332332 226.605594 
L 53.993144 222.920466 
L 55.794624 219.298632 
L 57.734034 215.748781 
L 59.803415 212.282381 
L 61.994849 208.900588 
L 64.309919 205.599807 
L 66.745159 202.389154 
L 69.290812 199.271666 
L 71.978118 196.211739 
L 74.819959 193.278059 
L 77.742598 190.489113 
L 80.820286 187.761836 
L 84.097615 185.199878 
L 87.452361 182.847704 
L 90.899631 180.640821 
L 94.509909 178.583081 
L 98.207277 176.776765 
L 101.930579 175.1335 
L 105.760527 173.65825 
L 109.67367 172.378277 
L 113.659181 171.305862 
L 117.697843 170.452475 
L 121.767875 169.820599 
L 125.859817 169.40638 
L 129.958907 169.209906 
L 134.040066 169.220604 
L 138.095675 169.422043 
L 142.129844 169.806091 
L 146.132387 170.367954 
L 150.104545 171.097234 
L 154.020898 171.996968 
L 157.867665 173.031594 
L 161.664104 174.193024 
L 165.403882 175.475351 
L 169.078697 176.859703 
L 172.711571 178.339446 
L 176.29429 179.919972 
L 179.818849 181.58104 
L 183.294492 183.319568 
L 186.721435 185.129522 
L 190.098392 187.003755 
L 193.426262 188.933408 
L 196.709155 190.911035 
L 199.957853 192.935608 
L 203.16688 195.005289 
L 206.343169 197.111559 
L 209.483381 199.255704 
L 212.587516 201.424071 
L 215.67188 203.623079 
L 218.743576 205.858977 
L 221.787583 208.130696 
L 224.799751 210.427535 
L 227.777553 212.744146 
L 230.736825 215.074879 
L 233.692674 217.442117 
L 236.629393 219.841794 
L 239.506925 222.238004 
L 242.366869 224.620435 
L 245.237254 227.029356 
L 248.095914 229.453426 
L 250.944902 231.88734 
L 253.782635 234.335162 
L 256.607871 236.789617 
L 259.424634 239.254643 
L 262.231297 241.727714 
L 265.029529 244.207333 
L 267.820358 246.697095 
L 270.60267 249.192335 
L 273.375268 251.692325 
L 276.143672 254.197578 
L 278.904544 256.70908 
L 281.658482 259.222123 
L 284.41071 261.741371 
L 287.155362 264.265925 
L 289.894237 266.788811 
L 292.628661 269.31375 
L 295.359704 271.838005 
L 298.088736 274.361319 
L 300.817425 276.884803 
L 303.545259 279.40863 
L 306.268385 281.928905 
L 308.991597 284.444644 
L 311.716135 286.959142 
L 314.441914 289.469402 
L 317.169662 291.975469 
L 319.896811 294.476315 
L 322.625971 296.969672 
L 325.357057 299.457508 
L 328.091182 301.937169 
L 330.828602 304.407673 
L 333.569445 306.86705 
L 336.31628 309.316798 
L 339.065297 311.753664 
L 341.820007 314.174696 
L 344.581478 316.581007 
L 347.349453 318.968786 
L 350.12877 321.341673 
L 352.915961 323.695345 
L 355.707218 326.023297 
L 358.507333 328.325913 
L 361.318704 330.601868 
L 364.145823 332.85099 
L 366.983984 335.069385 
L 369.827451 337.246183 
L 372.684142 339.381084 
L 375.565013 341.479865 
L 378.464114 343.533625 
L 381.373743 345.532179 
L 384.302117 347.4742 
L 387.249578 349.354681 
L 390.214456 351.168529 
L 393.20437 352.908512 
L 396.218506 354.572533 
L 399.252413 356.14801 
L 402.309901 357.629251 
L 405.393837 359.010564 
L 408.503279 360.285059 
L 411.645759 361.44589 
L 414.811263 362.484795 
L 417.999534 363.391976 
L 421.218148 364.162725 
L 424.460555 364.789552 
L 427.718155 365.268349 
L 430.991676 365.590343 
L 434.278377 365.752624 
L 437.575092 365.748601 
L 440.882849 365.575578 
L 444.186925 365.239975 
L 447.468747 364.738497 
L 450.728273 364.069174 
L 453.961651 363.23834 
L 457.158353 362.242401 
L 460.311489 361.087648 
L 463.409548 359.777418 
L 466.45026 358.313809 
L 469.430972 356.702598 
L 472.345138 354.951146 
L 475.186123 353.067797 
L 477.950975 351.057774 
L 480.638709 348.924885 
L 483.24496 346.679871 
L 485.76301 344.329409 
L 488.190333 341.878848 
L 490.523291 339.334051 
L 492.760302 336.701951 
L 494.898156 333.985373 
L 496.935825 331.188253 
L 498.871213 328.316199 
L 500.699911 325.372162 
L 502.42162 322.36008 
L 504.034115 319.287742 
L 505.534315 316.160198 
L 506.916783 312.98224 
L 508.178868 309.754811 
L 509.318857 306.480691 
L 510.32956 303.167072 
L 511.20978 299.818189 
L 511.955707 296.439349 
L 512.564389 293.029054 
L 513.03698 289.596548 
L 513.365351 286.146411 
L 513.551983 282.68031 
L 513.594564 279.207491 
L 513.492882 275.730863 
L 513.246764 272.249742 
L 512.861519 268.772215 
L 512.339712 265.30436 
L 511.685153 261.845236 
L 510.904134 258.401475 
L 510.003073 254.976287 
L 508.984923 251.570828 
L 507.863122 248.18681 
L 506.637114 244.832406 
L 505.309296 241.5089 
L 503.88861 238.219931 
L 502.371678 234.964 
L 500.768512 231.736271 
L 499.087031 228.545646 
L 497.325607 225.395548 
L 495.486467 222.278789 
L 493.574489 219.195409 
L 491.601698 216.149048 
L 489.565013 213.142059 
L 487.46636 210.173757 
L 485.307408 207.244827 
L 483.095946 204.35514 
L 480.826924 201.510389 
L 478.502696 198.710017 
L 476.122533 195.957148 
L 473.691402 193.249428 
L 471.204379 190.596273 
L 468.66292 187.996441 
L 466.065741 185.449633 
L 463.418406 182.95893 
L 460.720444 180.535373 
L 457.966633 178.183413 
L 455.153166 175.905532 
L 452.286589 173.707166 
L 449.363222 171.602136 
L 446.380199 169.595879 
L 443.339144 167.70089 
L 440.233554 165.932833 
L 437.068649 164.294875 
L 433.849094 162.804262 
L 430.575061 161.484532 
L 427.246762 160.354086 
L 423.868008 159.428375 
L 420.447313 158.722162 
L 416.991827 158.24987 
L 413.513701 158.008546 
L 410.042251 157.998103 
L 406.585651 158.270112 
L 403.145485 158.785927 
L 399.747473 159.541612 
L 396.395337 160.545939 
L 393.079792 161.742332 
L 389.817612 163.112519 
L 386.61984 164.644173 
L 383.498501 166.348464 
L 380.444223 168.209388 
L 377.459916 170.203962 
L 374.547248 172.329062 
L 371.697233 174.565645 
L 368.912695 176.900016 
L 366.196245 179.331576 
L 363.541506 181.84603 
L 360.948308 184.437902 
L 358.412455 187.09538 
L 355.934248 189.818592 
L 353.502346 192.592773 
L 351.119873 195.414885 
L 348.77981 198.279579 
L 346.476423 201.179323 
L 344.204662 204.108253 
L 341.956268 207.060292 
L 339.722295 210.027096 
L 337.496754 213.003915 
L 335.267531 215.981632 
L 333.030221 218.95631 
L 330.77699 221.922729 
L 328.498724 224.8731 
L 326.189389 227.800446 
L 323.851081 230.706909 
L 321.473015 233.583543 
L 319.055279 236.427481 
L 316.592435 239.235085 
L 314.084657 242.002034 
L 311.535366 244.729525 
L 308.940884 247.41298 
L 306.308784 250.054751 
L 303.645829 252.661046 
L 300.961347 255.240378 
L 298.256067 257.793306 
L 295.543468 260.333524 
L 292.836177 262.874726 
L 290.153064 265.438353 
L 287.522548 268.056416 
L 284.926482 270.711112 
L 282.251758 273.210331 
z
" clip-path="url(#pe43e72bd6d)" style="fill: #6a3d9a; opacity: 0.19"/>
   </g>
   <g id="line2d_21">
    <path d="M 282.069063 273.076467 
L 293.337356 256.951046 
L 300.325062 247.344164 
L 307.544849 237.89263 
L 312.503531 231.697456 
L 317.586363 225.599255 
L 322.803573 219.612923 
L 328.159997 213.750056 
L 333.668945 208.029955 
L 339.349375 202.480394 
L 345.214809 197.128635 
L 351.268288 191.993592 
L 357.52419 187.111257 
L 363.990432 182.516167 
L 370.672364 178.245595 
L 377.585135 174.363479 
L 381.134388 172.599059 
L 384.735807 170.943854 
L 388.395515 169.421829 
L 392.112141 168.042613 
L 395.882132 166.81438 
L 399.701082 165.745046 
L 403.562999 164.840861 
L 407.46938 164.146546 
L 411.401182 163.610616 
L 415.358661 163.317509 
L 419.326197 163.197425 
L 423.294461 163.291575 
L 427.253481 163.591958 
L 431.193072 164.086675 
L 435.100908 164.79002 
L 438.969287 165.68402 
L 442.790804 166.761142 
L 446.559213 168.010046 
L 450.262015 169.442671 
L 453.912051 171.005138 
L 457.469006 172.768573 
L 460.96562 174.648797 
L 464.381992 176.670503 
L 467.714741 178.828043 
L 470.96605 181.106352 
L 474.126547 183.508853 
L 477.204449 186.016418 
L 480.188371 188.635294 
L 483.085846 191.349647 
L 485.879671 194.170347 
L 488.588332 197.073428 
L 491.197622 200.065781 
L 496.121468 206.295236 
L 498.423785 209.530154 
L 502.739848 216.19531 
L 506.61837 223.124387 
L 508.394815 226.675607 
L 510.063586 230.278739 
L 511.607608 233.936863 
L 513.04524 237.638382 
L 514.361076 241.384579 
L 516.622438 248.996716 
L 517.554483 252.856322 
L 518.358783 256.744815 
L 519.052671 260.654534 
L 519.58676 264.589203 
L 520.008339 268.537481 
L 520.287837 272.498341 
L 520.436509 276.466348 
L 520.450118 280.436966 
L 520.336453 284.406171 
L 520.095257 288.36947 
L 519.220087 296.261961 
L 518.585771 300.18148 
L 516.957527 307.953587 
L 514.803497 315.596366 
L 513.547104 319.362805 
L 512.168102 323.086193 
L 510.6593 326.758653 
L 509.034823 330.381428 
L 507.29484 333.950024 
L 505.412519 337.445653 
L 503.431168 340.885991 
L 501.311503 344.242363 
L 499.08365 347.528379 
L 496.731861 350.726365 
L 494.252328 353.82652 
L 491.665763 356.837661 
L 488.958171 359.740528 
L 486.137386 362.533711 
L 483.194718 365.198121 
L 480.149983 367.745144 
L 476.985078 370.141055 
L 473.727863 372.410547 
L 470.358524 374.508858 
L 466.896532 376.452462 
L 463.34621 378.229121 
L 459.702679 379.807037 
L 455.989221 381.211802 
L 452.204336 382.410935 
L 448.362961 383.414149 
L 444.472457 384.205739 
L 440.546989 384.797388 
L 436.593105 385.151521 
L 432.627409 385.319537 
L 428.6603 385.238396 
L 424.702008 384.975888 
L 420.76537 384.503981 
L 416.858775 383.833203 
L 412.987315 382.989745 
L 409.166054 381.949299 
L 405.389343 380.761978 
L 401.668695 379.414217 
L 398.001028 377.932163 
L 394.391862 376.316458 
L 387.339491 372.743839 
L 380.517746 368.751396 
L 373.895942 364.436959 
L 367.460042 359.84756 
L 361.203883 355.012087 
L 355.096525 349.985702 
L 349.124828 344.793741 
L 343.276298 339.458116 
L 337.535698 334.001593 
L 329.094696 325.632958 
L 320.827872 317.082314 
L 310.026223 305.45899 
L 299.401662 293.662429 
L 283.662985 275.778709 
L 257.473027 245.937473 
L 246.833744 234.158844 
L 238.729757 225.447331 
L 230.476029 216.886972 
L 222.038365 208.518424 
L 216.287409 203.075424 
L 210.418636 197.764919 
L 204.416084 192.611175 
L 198.250737 187.658784 
L 191.919644 182.923837 
L 185.384458 178.476092 
L 182.041609 176.367083 
L 175.173559 172.452613 
L 171.649599 170.660548 
L 168.064356 168.99259 
L 164.422152 167.44998 
L 160.713529 166.068281 
L 156.951326 164.835683 
L 153.130193 163.792626 
L 149.269004 162.902777 
L 145.356246 162.265166 
L 141.41764 161.801176 
L 137.458149 161.557926 
L 133.489287 161.536357 
L 129.524318 161.720378 
L 125.577324 162.148762 
L 121.656948 162.776873 
L 117.780909 163.638562 
L 113.954898 164.698951 
L 110.192781 165.968011 
L 106.49537 167.413304 
L 102.88338 169.061063 
L 99.344014 170.859248 
L 95.90496 172.841967 
L 92.551155 174.966383 
L 89.3025 177.247302 
L 86.151632 179.662043 
L 83.101975 182.202817 
L 80.160206 184.868212 
L 77.321489 187.643121 
L 74.599219 190.532636 
L 71.977433 193.513306 
L 69.476074 196.595915 
L 67.069592 199.753502 
L 64.790214 203.003827 
L 62.621933 206.329686 
L 60.550284 209.7164 
L 58.615581 213.183528 
L 56.781661 216.705048 
L 55.06804 220.286568 
L 53.463677 223.91863 
L 51.988085 227.604871 
L 50.622649 231.333351 
L 49.369637 235.101117 
L 47.244023 242.752198 
L 46.365558 246.624385 
L 44.972732 254.441984 
L 44.479984 258.382131 
L 44.10257 262.334945 
L 43.851702 266.297688 
L 43.728108 270.266594 
L 43.734784 274.237297 
L 43.863556 278.205946 
L 44.112113 282.168946 
L 44.986684 290.061565 
L 45.604823 293.983695 
L 47.184537 301.766116 
L 49.249595 309.43363 
L 50.437344 313.222452 
L 53.178102 320.674661 
L 54.709499 324.337835 
L 56.353278 327.951837 
L 58.116285 331.508835 
L 59.978791 335.014907 
L 61.957959 338.455929 
L 66.246034 345.136491 
L 68.564956 348.358015 
L 70.988085 351.501907 
L 73.520557 354.557811 
L 76.168405 357.514473 
L 78.917594 360.37707 
L 81.78845 363.117785 
L 84.764498 365.743209 
L 87.850788 368.238662 
L 91.032768 370.610608 
L 94.33295 372.815907 
L 97.71791 374.889311 
L 101.213325 376.770476 
L 104.792876 378.487264 
L 108.455151 380.018619 
L 112.196299 381.347892 
L 116.001083 382.480906 
L 119.86407 383.398186 
L 123.771864 384.097466 
L 127.712481 384.581313 
L 131.67317 384.84258 
L 135.642247 384.86616 
L 139.606402 384.696861 
L 143.551 384.287393 
L 147.472959 383.706956 
L 151.356402 382.918405 
L 155.197777 381.948571 
L 158.991135 380.812391 
L 162.732239 379.519408 
L 166.420706 378.08781 
L 170.050456 376.516741 
L 173.632918 374.842364 
L 180.616901 371.137379 
L 187.397862 367.076163 
L 193.988853 362.712126 
L 200.390688 358.072399 
L 206.644279 353.230977 
L 212.749754 348.199115 
L 218.730181 343.014429 
L 224.595787 337.695151 
L 233.207671 329.506558 
L 241.627832 321.110706 
L 249.881774 312.54213 
L 258.010668 303.847736 
L 268.692446 292.101631 
L 281.876141 277.25858 
L 316.025522 238.560884 
L 326.734005 226.852824 
L 334.906936 218.213379 
L 343.247282 209.745887 
L 348.924973 204.225427 
L 354.711108 198.824025 
L 360.626785 193.57001 
L 366.697596 188.501386 
L 372.944553 183.656284 
L 379.38362 179.07155 
L 386.056009 174.833246 
L 389.482009 172.861696 
L 392.976012 171.011386 
L 396.527319 169.271831 
L 400.154502 167.693401 
L 403.840614 166.253972 
L 407.592418 164.989619 
L 411.40054 163.899444 
L 415.265838 163.026713 
L 419.172305 162.351142 
L 423.111339 161.894899 
L 427.073354 161.681563 
L 431.041532 161.672918 
L 435.002607 161.93671 
L 438.945236 162.401727 
L 442.850804 163.116327 
L 446.712421 164.039599 
L 450.514895 165.18267 
L 454.252961 166.520588 
L 457.911941 168.0614 
L 461.500565 169.759444 
L 464.990331 171.651479 
L 468.403621 173.67892 
L 471.715016 175.867744 
L 474.934613 178.190517 
L 478.058435 180.640393 
L 481.074368 183.22208 
L 483.994996 185.910969 
L 486.812614 188.707747 
L 489.532231 191.600129 
L 492.133262 194.5998 
L 494.644293 197.675263 
L 497.033528 200.845988 
L 499.324204 204.089251 
L 501.50404 207.407707 
L 505.526483 214.253931 
L 507.363313 217.774125 
L 509.087718 221.350852 
L 510.70261 224.978249 
L 512.193907 228.658412 
L 513.567646 232.383854 
L 515.959748 239.955849 
L 517.83642 247.671636 
L 518.595614 251.568988 
L 519.712322 259.43088 
L 520.071676 263.385235 
L 520.303158 267.349262 
L 520.420632 271.318253 
L 520.387722 275.288913 
L 520.241061 279.256834 
L 519.95784 283.217481 
L 519.559285 287.168241 
L 519.02939 291.103338 
L 518.381294 295.020932 
L 517.620345 298.918026 
L 515.72664 306.629791 
L 514.607964 310.43954 
L 512.028032 317.949652 
L 508.989245 325.285715 
L 507.29989 328.878961 
L 505.505085 332.420638 
L 503.595161 335.901289 
L 501.576921 339.320442 
L 499.45319 342.674803 
L 497.203383 345.945713 
L 494.860924 349.150931 
L 492.40052 352.266108 
L 489.825809 355.287776 
L 487.147019 358.217005 
L 484.352467 361.036165 
L 481.455035 363.749234 
L 478.447789 366.340336 
L 475.333511 368.801638 
L 472.108436 371.115852 
L 468.793532 373.299497 
L 465.366761 375.302759 
L 461.858935 377.1615 
L 458.252893 378.820385 
L 454.56952 380.301883 
L 450.812495 381.584509 
L 446.98918 382.655383 
L 443.112841 383.514376 
L 439.194392 384.15554 
L 435.244958 384.561541 
L 431.279176 384.746932 
L 427.310699 384.6999 
L 423.351936 384.421728 
L 419.4138 383.94644 
L 415.512597 383.236462 
L 411.648113 382.355215 
L 407.839348 381.263927 
L 404.086432 379.998419 
L 400.393386 378.573754 
L 396.760512 377.006023 
L 393.192986 375.29865 
L 386.234809 371.544407 
L 379.525445 367.364134 
L 373.026678 362.863451 
L 366.714971 358.101029 
L 360.584246 353.104045 
L 354.599882 347.929374 
L 348.74827 342.600339 
L 340.183204 334.370405 
L 331.820646 325.923797 
L 323.618915 317.310885 
L 312.86143 305.647205 
L 299.596638 290.886236 
L 265.226004 252.374871 
L 254.469375 240.69694 
L 243.533819 229.196653 
L 235.17644 220.731086 
L 226.657636 212.436745 
L 217.932685 204.369948 
L 211.983371 199.144863 
L 205.921461 194.054585 
L 199.721964 189.137115 
L 193.3702 184.421897 
L 186.84888 179.947832 
L 180.150172 175.74522 
L 173.23111 171.913902 
L 169.696836 170.137414 
L 166.094988 168.500398 
L 162.443112 166.977046 
L 158.733206 165.598172 
L 154.965696 164.381579 
L 151.144906 163.339849 
L 147.281106 162.462197 
L 143.374639 161.78945 
L 139.435862 161.321181 
L 135.478383 161.045962 
L 131.509819 161.007703 
L 127.54361 161.158515 
L 123.593278 161.547955 
L 119.666654 162.133826 
L 115.778204 162.935816 
L 111.935973 163.937575 
L 108.156524 165.154382 
L 104.436004 166.541087 
L 100.800048 168.135394 
L 97.236074 169.885391 
L 93.766165 171.813846 
L 90.388566 173.900773 
L 87.099211 176.123875 
L 83.930198 178.515763 
L 80.854051 181.025553 
L 77.896962 183.674301 
L 75.047803 186.438639 
L 72.305718 189.309495 
L 69.674988 192.282976 
L 67.181717 195.372603 
L 64.79475 198.545083 
L 62.528852 201.804737 
L 58.358422 208.561305 
L 56.471522 212.054281 
L 54.692424 215.603789 
L 53.044879 219.216208 
L 51.530942 222.886828 
L 50.140385 226.605722 
L 48.875134 230.36938 
L 47.74533 234.175791 
L 45.871012 241.891835 
L 45.146055 245.795692 
L 44.549527 249.721288 
L 44.067477 253.66242 
L 43.757509 257.621097 
L 43.559708 261.586793 
L 43.504844 265.556854 
L 43.586926 269.526658 
L 43.803043 273.491113 
L 44.147291 277.446581 
L 44.626045 281.388055 
L 45.963536 289.214769 
L 46.832115 293.08901 
L 48.898885 300.756054 
L 51.480272 308.26561 
L 52.927491 311.963149 
L 56.174649 319.20964 
L 57.961279 322.755811 
L 59.855583 326.245577 
L 61.854522 329.676457 
L 63.957497 333.044769 
L 66.162925 336.346534 
L 70.876688 342.737156 
L 73.396321 345.805729 
L 76.001074 348.802789 
L 78.700235 351.714943 
L 81.50677 354.523661 
L 84.394359 357.248926 
L 87.37948 359.867075 
L 90.455969 362.377165 
L 93.620104 364.775472 
L 96.865721 367.062853 
L 100.201765 369.215686 
L 103.62216 371.232171 
L 107.107133 373.134349 
L 110.681036 374.864404 
L 114.316906 376.460422 
L 118.021249 377.888896 
L 121.786362 379.149783 
L 125.600819 380.251555 
L 129.465945 381.160704 
L 133.368988 381.888871 
L 137.304042 382.416027 
L 141.258398 382.761645 
L 145.225206 382.896066 
L 149.193684 382.867221 
L 153.152447 382.604028 
L 157.095718 382.176073 
L 161.014082 381.571371 
L 164.899066 380.780123 
L 168.752637 379.848977 
L 172.55755 378.735735 
L 176.32292 377.495519 
L 180.039374 376.114891 
L 183.712819 374.622266 
L 190.899867 371.268504 
L 194.421773 369.443786 
L 201.311649 365.507662 
L 208.001156 361.235635 
L 214.496584 356.670373 
L 220.804825 351.847267 
L 226.928489 346.790883 
L 232.872282 341.524971 
L 238.644637 336.07414 
L 244.236308 330.443097 
L 249.65637 324.654266 
L 254.90589 318.720615 
L 259.979907 312.649975 
L 264.86789 306.447525 
L 269.556104 300.118528 
L 274.007145 293.659775 
L 276.101775 290.371234 
L 276.101775 290.371234 
" clip-path="url(#pe43e72bd6d)" style="fill: none; stroke-dasharray: 8.14,3.52; stroke-dashoffset: 0; stroke: #222222; stroke-width: 2.2"/>
   </g>
   <g id="line2d_22">
    <path d="M 282.106809 273.067651 
L 310.675004 243.938663 
L 315.63574 238.400315 
L 320.451913 232.734821 
L 327.450703 224.050697 
L 334.243861 215.206561 
L 347.733843 197.460001 
L 352.371002 191.663381 
L 357.161968 185.999514 
L 362.163489 180.527584 
L 367.422467 175.308448 
L 370.16468 172.818558 
L 372.990216 170.424359 
L 375.898433 168.131457 
L 378.904652 165.968268 
L 382.002967 163.93796 
L 385.19954 162.0627 
L 388.496684 160.365127 
L 391.88327 158.849179 
L 395.353008 157.529535 
L 398.898451 156.425066 
L 402.515876 155.578227 
L 406.185941 154.994623 
L 409.889385 154.678407 
L 413.606353 154.652901 
L 417.31626 154.883526 
L 421.001217 155.365576 
L 424.644962 156.092887 
L 428.234484 157.050438 
L 431.76007 158.220213 
L 435.214659 159.584365 
L 438.59628 161.119442 
L 441.90622 162.803577 
L 445.145546 164.620207 
L 448.312719 166.560131 
L 451.410949 168.608713 
L 454.443401 170.753928 
L 460.318294 175.301258 
L 465.955414 180.14191 
L 471.370254 185.231632 
L 476.571459 190.540939 
L 481.556632 196.05438 
L 486.325986 201.756293 
L 490.876098 207.634994 
L 495.200165 213.681797 
L 499.279954 219.895759 
L 503.095779 226.274356 
L 506.604547 232.826018 
L 509.780536 239.544412 
L 512.578169 246.428125 
L 513.825275 249.928034 
L 514.966163 253.46419 
L 515.990775 257.035782 
L 516.89282 260.64024 
L 517.665666 264.274441 
L 518.303363 267.934534 
L 518.795983 271.616923 
L 519.145024 275.315318 
L 519.340599 279.02484 
L 519.380998 282.739197 
L 519.265579 286.451714 
L 518.997165 290.156143 
L 518.571392 293.845679 
L 517.996775 297.514887 
L 517.269721 301.157006 
L 516.39468 304.766429 
L 515.376187 308.337806 
L 514.217968 311.866259 
L 512.925284 315.347723 
L 511.497538 318.776292 
L 509.941661 322.148755 
L 508.260308 325.46062 
L 506.458229 328.70842 
L 504.536964 331.887148 
L 502.498096 334.991669 
L 500.344751 338.018001 
L 498.078553 340.960926 
L 495.701943 343.815563 
L 493.21813 346.577461 
L 490.630494 349.242257 
L 487.941904 351.804985 
L 485.155013 354.260339 
L 482.273329 356.603269 
L 479.298009 358.825473 
L 476.231106 360.918391 
L 473.077285 362.876503 
L 469.840783 364.692534 
L 466.526051 366.35878 
L 463.137924 367.866555 
L 459.684192 369.211492 
L 456.172685 370.390981 
L 452.610723 371.398047 
L 449.006864 372.231533 
L 445.369495 372.884466 
L 441.709018 373.360524 
L 438.033304 373.663046 
L 434.351129 373.786511 
L 430.671265 373.729721 
L 427.001115 373.49717 
L 423.348212 373.091596 
L 419.71859 372.521431 
L 416.118155 371.794505 
L 412.551271 370.916639 
L 409.022988 369.892797 
L 405.534592 368.737958 
L 402.088905 367.457557 
L 398.686741 366.058698 
L 392.014353 362.943093 
L 385.51289 359.463641 
L 379.172509 355.678286 
L 372.978148 351.641164 
L 366.910718 347.400891 
L 360.958322 342.988709 
L 352.209363 336.116979 
L 343.635909 329.010643 
L 335.194779 321.734794 
L 324.100408 311.838528 
L 310.403765 299.268651 
L 288.683849 278.943571 
L 266.952463 258.649518 
L 253.235279 246.131166 
L 242.132178 236.275086 
L 230.894698 226.588176 
L 222.32317 219.505977 
L 213.586322 212.639125 
L 207.641801 208.222877 
L 201.61109 203.92727 
L 195.475743 199.787139 
L 189.221125 195.83364 
L 182.834739 192.100067 
L 176.296429 188.642826 
L 169.598364 185.509718 
L 162.738188 182.764937 
L 159.249663 181.551682 
L 155.721595 180.462749 
L 152.157792 179.503614 
L 148.56108 178.685534 
L 144.931158 178.033714 
L 141.278426 177.544346 
L 137.609731 177.228173 
L 133.931451 177.086947 
L 130.251415 177.126576 
L 126.579297 177.358614 
L 122.925281 177.789437 
L 119.298783 178.41605 
L 115.710202 179.239908 
L 112.170194 180.258828 
L 108.687489 181.464679 
L 105.268335 182.846634 
L 101.919024 184.393609 
L 98.638614 186.077359 
L 95.457832 187.953175 
L 92.36936 189.985323 
L 89.36956 192.147314 
L 86.478675 194.455408 
L 83.717547 196.925227 
L 81.048686 199.4963 
L 78.481721 202.169869 
L 76.041345 204.962067 
L 73.701839 207.840327 
L 71.466454 210.800455 
L 69.341011 213.841125 
L 67.326024 216.956986 
L 65.424316 220.144016 
L 63.643335 223.400504 
L 61.986418 226.722297 
L 60.454892 230.104133 
L 59.049742 233.540405 
L 57.764205 237.022639 
L 56.618139 240.55366 
L 55.606109 244.125679 
L 54.733507 247.734375 
L 54.005512 251.375038 
L 53.419212 255.041336 
L 52.970586 258.726764 
L 52.668363 262.426571 
L 52.50758 266.13498 
L 52.497566 269.846727 
L 52.625653 273.555563 
L 52.901599 277.255884 
L 53.319712 280.941996 
L 53.878451 284.609236 
L 54.574992 288.252424 
L 55.404542 291.867624 
L 56.362907 295.450557 
L 57.448973 298.996856 
L 58.660901 302.5022 
L 60.004683 305.959484 
L 61.470218 309.366826 
L 63.047021 312.723498 
L 64.734751 316.025605 
L 66.530582 319.269639 
L 68.433916 322.451491 
L 70.445137 325.56624 
L 72.558897 328.611745 
L 74.778447 331.580347 
L 77.097583 334.470932 
L 79.513394 337.280976 
L 82.025195 340.004787 
L 84.636069 342.632906 
L 87.347683 345.155706 
L 90.158283 347.566853 
L 93.067484 349.857144 
L 96.071563 352.020076 
L 99.168766 354.046447 
L 102.360033 355.918925 
L 105.642026 357.625271 
L 109.011494 359.147381 
L 112.461418 360.473403 
L 115.983323 361.585446 
L 119.563945 362.477905 
L 123.189116 363.156087 
L 126.8255 363.669848 
L 130.499159 363.894739 
L 134.181634 363.861957 
L 137.851783 363.580191 
L 141.492404 363.013792 
L 145.096135 362.249933 
L 148.654545 361.30398 
L 152.159718 360.176016 
L 155.605062 358.8761 
L 158.986812 357.416685 
L 162.304711 355.814418 
L 165.560043 354.085562 
L 171.897942 350.312489 
L 178.003417 346.158963 
L 183.91122 341.715497 
L 189.647027 337.039609 
L 195.241394 332.185091 
L 200.718673 327.188835 
L 208.76159 319.495386 
L 216.643468 311.623737 
L 226.983139 300.946537 
L 268.092409 257.949296 
L 278.614775 247.450768 
L 286.640788 239.7212 
L 294.797883 232.13748 
L 303.110413 224.732088 
L 311.6011 217.539605 
L 317.379361 212.89102 
L 323.258062 208.372705 
L 329.241699 203.996513 
L 335.340755 199.784486 
L 341.561051 195.75404 
L 347.911531 191.929912 
L 354.404135 188.348264 
L 361.041559 185.037725 
L 367.827271 182.037584 
L 374.764992 179.398251 
L 378.287668 178.225224 
L 381.845051 177.158245 
L 385.436114 176.208739 
L 389.05568 175.372385 
L 392.703319 174.666172 
L 396.373297 174.085093 
L 403.7608 173.296456 
L 407.469808 173.104347 
L 411.184936 173.071951 
L 414.898523 173.184161 
L 418.604279 173.442389 
L 422.294713 173.861572 
L 425.963322 174.442351 
L 429.61079 175.144498 
L 433.231212 175.975589 
L 436.818466 176.939645 
L 440.368831 178.031788 
L 443.877598 179.251762 
L 447.34357 180.588867 
L 450.764564 182.037798 
L 454.136814 183.597183 
L 457.458008 185.262959 
L 463.942695 188.891939 
L 470.202192 192.898162 
L 476.223189 197.255823 
L 481.995671 201.938003 
L 487.504961 206.927412 
L 492.741601 212.202097 
L 497.681795 217.754995 
L 502.309967 223.569846 
L 506.588969 229.644894 
L 508.590134 232.775348 
L 510.492997 235.966144 
L 512.291353 239.216512 
L 513.980195 242.525039 
L 515.552676 245.889842 
L 517.0064 249.307369 
L 518.334689 252.775181 
L 519.535148 256.288828 
L 520.599603 259.846254 
L 521.519194 263.444121 
L 522.292767 267.075541 
L 522.909837 270.736318 
L 523.367407 274.419949 
L 523.661499 278.119927 
L 523.791597 281.829106 
L 523.752867 285.540168 
L 523.545951 289.245624 
L 523.169264 292.937814 
L 522.626701 296.609204 
L 521.921987 300.253035 
L 521.061068 303.863185 
L 520.04035 307.431866 
L 518.871175 310.955099 
L 517.559319 314.427961 
L 516.110945 317.846601 
L 514.530375 321.206268 
L 512.822275 324.50324 
L 511.008898 327.74261 
L 509.090799 330.919797 
L 507.03246 334.010837 
L 504.867902 337.02861 
L 502.593488 339.964559 
L 500.199374 342.803918 
L 497.690739 345.543434 
L 495.099552 348.204036 
L 492.419906 350.774639 
L 489.647437 353.244372 
L 486.787451 355.61191 
L 483.84029 357.86989 
L 480.806896 360.010397 
L 477.692019 362.030263 
L 474.498098 363.922556 
L 471.228729 365.680856 
L 467.885966 367.295148 
L 464.475457 368.760554 
L 461.001953 370.068901 
L 457.47059 371.210773 
L 453.888727 372.181163 
L 450.262358 372.969073 
L 446.602821 373.577241 
L 442.918549 373.999676 
L 439.218999 374.233169 
L 435.514699 374.277248 
L 431.81579 374.126094 
L 428.132246 373.785356 
L 424.473908 373.255803 
L 420.848736 372.547408 
L 417.263621 371.667659 
L 413.723399 370.628368 
L 410.234746 369.430691 
L 406.800999 368.084213 
L 403.422244 366.604812 
L 400.099466 365.001219 
L 396.831381 363.286785 
L 390.451115 359.566992 
L 384.269978 355.512324 
L 378.269523 351.183551 
L 372.43045 346.628859 
L 366.729564 341.893014 
L 361.146879 337.010037 
L 352.952081 329.473006 
L 344.918878 321.751869 
L 334.375586 311.272899 
L 318.743984 295.357219 
L 297.903003 274.131164 
L 284.708738 261.040764 
L 273.985105 250.749538 
L 265.821119 243.166031 
L 257.534823 235.723194 
L 249.114663 228.439641 
L 240.539668 221.346401 
L 231.79041 214.475912 
L 225.852009 210.03634 
L 219.818858 205.728579 
L 213.686079 201.564954 
L 207.44263 197.5699 
L 201.082778 193.762633 
L 194.598005 190.170329 
L 187.976372 186.834284 
L 181.211973 183.796097 
L 174.293938 181.122058 
L 170.780378 179.932982 
L 167.228344 178.860525 
L 163.639934 177.913073 
L 160.020925 177.090456 
L 156.374912 176.397253 
L 152.704035 175.851824 
L 149.013985 175.459046 
L 145.310455 175.229405 
L 141.60012 175.170004 
L 137.891284 175.280545 
L 134.191691 175.567704 
L 130.509301 176.026558 
L 126.852204 176.656424 
L 123.227803 177.455203 
L 119.644015 178.424138 
L 116.10589 179.548635 
L 112.61852 180.822959 
L 109.186999 182.242232 
L 105.816504 183.801832 
L 102.513712 185.501587 
L 99.278065 187.326391 
L 96.113375 189.272434 
L 93.02379 191.336081 
L 90.00807 193.507015 
L 87.070324 195.782756 
L 84.215987 198.16249 
L 81.444074 200.638001 
L 78.760063 203.208818 
L 76.16481 205.869334 
L 71.22376 211.419536 
L 68.862899 214.284872 
L 66.662906 217.278809 
L 64.556978 220.341646 
L 62.580977 223.489861 
L 60.723049 226.70963 
L 59.000356 230.002579 
L 57.388717 233.350392 
L 55.912226 236.758547 
L 54.561512 240.217886 
L 53.34188 243.725412 
L 52.262319 247.279072 
L 51.326037 250.873688 
L 50.53924 254.504808 
L 49.910102 258.167554 
L 49.436355 261.854051 
L 49.123434 265.55801 
L 48.972151 269.271982 
L 48.992522 272.988736 
L 49.179795 276.700226 
L 49.536454 280.398706 
L 50.063781 284.076388 
L 50.755358 287.726381 
L 51.607332 291.341923 
L 52.612686 294.917666 
L 53.770221 298.446933 
L 55.07707 301.923432 
L 56.525573 305.34327 
L 58.109138 308.702767 
L 59.823529 311.997599 
L 61.660615 315.225842 
L 63.617829 318.382915 
L 65.689092 321.466551 
L 67.871453 324.472599 
L 70.163157 327.396265 
L 72.558041 330.236094 
L 75.056661 332.985369 
L 77.64986 335.645842 
L 80.337166 338.211095 
L 83.113059 340.680358 
L 85.974543 343.049821 
L 88.921876 345.311611 
L 91.950134 347.463758 
L 95.057265 349.500828 
L 98.240529 351.417043 
L 101.496846 353.206584 
L 104.821849 354.864913 
L 108.211773 356.386296 
L 111.662681 357.763971 
L 115.170122 358.990536 
L 118.728061 360.061581 
L 122.33038 360.971201 
L 125.969075 361.718669 
L 129.637812 362.292686 
L 133.328247 362.689358 
L 137.031477 362.90462 
L 140.738132 362.930897 
L 144.439222 362.766262 
L 148.126191 362.409518 
L 151.790092 361.864088 
L 155.421897 361.132583 
L 159.013774 360.220395 
L 162.558404 359.134286 
L 166.052407 357.890176 
L 169.493258 356.501587 
L 172.879501 354.980889 
L 176.209084 353.336425 
L 179.483417 351.582191 
L 185.867791 347.777749 
L 192.04358 343.63749 
L 198.037701 339.236092 
L 203.87014 334.623798 
L 209.566319 329.848024 
L 217.908976 322.463945 
L 228.782308 312.379036 
L 239.581004 302.277437 
L 245.095173 297.386073 
L 247.9368 295.047208 
L 250.883533 292.845161 
L 254.023617 290.928133 
L 257.548518 289.988128 
L 260.08069 292.327549 
L 260.08069 292.327549 
" clip-path="url(#pe43e72bd6d)" style="fill: none; stroke: #6a3d9a; stroke-width: 2.6; stroke-linecap: round"/>
   </g>
   <g id="patch_4">
    <path d="M 43.504844 510.372375 
L 43.504844 26.244375 
" style="fill: none; stroke: #cccccc; stroke-linejoin: miter; stroke-linecap: square"/>
   </g>
   <g id="patch_5">
    <path d="M 527.632844 510.372375 
L 527.632844 26.244375 
" style="fill: none; stroke: #cccccc; stroke-linejoin: miter; stroke-linecap: square"/>
   </g>
   <g id="patch_6">
    <path d="M 43.504844 510.372375 
L 527.632844 510.372375 
" style="fill: none; stroke: #cccccc; stroke-linejoin: miter; stroke-linecap: square"/>
   </g>
   <g id="patch_7">
    <path d="M 43.504844 26.244375 
L 527.632844 26.244375 
" style="fill: none; stroke: #cccccc; stroke-linejoin: miter; stroke-linecap: square"/>
   </g>
   <g id="text_13">
    <!-- lemniscate: 10-run mean path + 1σ corridor -->
    <g style="fill: #262626" transform="translate(112.6915 20.244375) scale(0.18 -0.18)">
     <defs>
      <path id="LiberationSans-6c" d="M 431 0 
L 431 4638 
L 994 4638 
L 994 0 
L 431 0 
z
" transform="scale(0.015625)"/>
      <path id="LiberationSans-65" d="M 863 1572 
Q 863 991 1103 675 
Q 1344 359 1806 359 
Q 2172 359 2392 506 
Q 2613 653 2691 878 
L 3184 738 
Q 2881 -63 1806 -63 
Q 1056 -63 664 384 
Q 272 831 272 1713 
Q 272 2550 664 2997 
Q 1056 3444 1784 3444 
Q 3275 3444 3275 1647 
L 3275 1572 
L 863 1572 
z
M 2694 2003 
Q 2647 2538 2422 2783 
Q 2197 3028 1775 3028 
Q 1366 3028 1127 2754 
Q 888 2481 869 2003 
L 2694 2003 
z
" transform="scale(0.015625)"/>
      <path id="LiberationSans-6e" d="M 2578 0 
L 2578 2144 
Q 2578 2478 2512 2662 
Q 2447 2847 2303 2928 
Q 2159 3009 1881 3009 
Q 1475 3009 1240 2731 
Q 1006 2453 1006 1959 
L 1006 0 
L 444 0 
L 444 2659 
Q 444 3250 425 3381 
L 956 3381 
Q 959 3366 962 3297 
Q 966 3228 970 3139 
Q 975 3050 981 2803 
L 991 2803 
Q 1184 3153 1439 3298 
Q 1694 3444 2072 3444 
Q 2628 3444 2886 3167 
Q 3144 2891 3144 2253 
L 3144 0 
L 2578 0 
z
" transform="scale(0.015625)"/>
      <path id="LiberationSans-69" d="M 428 4100 
L 428 4638 
L 991 4638 
L 991 4100 
L 428 4100 
z
M 428 0 
L 428 3381 
L 991 3381 
L 991 0 
L 428 0 
z
" transform="scale(0.015625)"/>
      <path id="LiberationSans-73" d="M 2969 934 
Q 2969 456 2608 196 
Q 2247 -63 1597 -63 
Q 966 -63 623 145 
Q 281 353 178 794 
L 675 891 
Q 747 619 972 492 
Q 1197 366 1597 366 
Q 2025 366 2223 497 
Q 2422 628 2422 891 
Q 2422 1091 2284 1216 
Q 2147 1341 1841 1422 
L 1438 1528 
Q 953 1653 748 1773 
Q 544 1894 428 2066 
Q 313 2238 313 2488 
Q 313 2950 642 3192 
Q 972 3434 1603 3434 
Q 2163 3434 2492 3237 
Q 2822 3041 2909 2606 
L 2403 2544 
Q 2356 2769 2151 2889 
Q 1947 3009 1603 3009 
Q 1222 3009 1040 2893 
Q 859 2778 859 2544 
Q 859 2400 934 2306 
Q 1009 2213 1156 2147 
Q 1303 2081 1775 1966 
Q 2222 1853 2419 1758 
Q 2616 1663 2730 1547 
Q 2844 1431 2906 1279 
Q 2969 1128 2969 934 
z
" transform="scale(0.015625)"/>
      <path id="LiberationSans-63" d="M 859 1706 
Q 859 1031 1071 706 
Q 1284 381 1713 381 
Q 2013 381 2214 543 
Q 2416 706 2463 1044 
L 3031 1006 
Q 2966 519 2616 228 
Q 2266 -63 1728 -63 
Q 1019 -63 645 385 
Q 272 834 272 1694 
Q 272 2547 647 2995 
Q 1022 3444 1722 3444 
Q 2241 3444 2583 3175 
Q 2925 2906 3013 2434 
L 2434 2391 
Q 2391 2672 2212 2837 
Q 2034 3003 1706 3003 
Q 1259 3003 1059 2706 
Q 859 2409 859 1706 
z
" transform="scale(0.015625)"/>
      <path id="LiberationSans-61" d="M 1294 -63 
Q 784 -63 528 206 
Q 272 475 272 944 
Q 272 1469 617 1750 
Q 963 2031 1731 2050 
L 2491 2063 
L 2491 2247 
Q 2491 2659 2316 2837 
Q 2141 3016 1766 3016 
Q 1388 3016 1216 2887 
Q 1044 2759 1009 2478 
L 422 2531 
Q 566 3444 1778 3444 
Q 2416 3444 2737 3151 
Q 3059 2859 3059 2306 
L 3059 850 
Q 3059 600 3125 473 
Q 3191 347 3375 347 
Q 3456 347 3559 369 
L 3559 19 
Q 3347 -31 3125 -31 
Q 2813 -31 2670 133 
Q 2528 297 2509 647 
L 2491 647 
Q 2275 259 1989 98 
Q 1703 -63 1294 -63 
z
M 1422 359 
Q 1731 359 1972 500 
Q 2213 641 2352 886 
Q 2491 1131 2491 1391 
L 2491 1669 
L 1875 1656 
Q 1478 1650 1273 1575 
Q 1069 1500 959 1344 
Q 850 1188 850 934 
Q 850 659 998 509 
Q 1147 359 1422 359 
z
" transform="scale(0.015625)"/>
      <path id="LiberationSans-74" d="M 1731 25 
Q 1453 -50 1163 -50 
Q 488 -50 488 716 
L 488 2972 
L 97 2972 
L 97 3381 
L 509 3381 
L 675 4138 
L 1050 4138 
L 1050 3381 
L 1675 3381 
L 1675 2972 
L 1050 2972 
L 1050 838 
Q 1050 594 1129 495 
Q 1209 397 1406 397 
Q 1519 397 1731 441 
L 1731 25 
z
" transform="scale(0.015625)"/>
      <path id="LiberationSans-3a" d="M 584 2734 
L 584 3381 
L 1194 3381 
L 1194 2734 
L 584 2734 
z
M 584 0 
L 584 647 
L 1194 647 
L 1194 0 
L 584 0 
z
" transform="scale(0.015625)"/>
      <path id="LiberationSans-31" d="M 488 0 
L 488 478 
L 1609 478 
L 1609 3866 
L 616 3156 
L 616 3688 
L 1656 4403 
L 2175 4403 
L 2175 478 
L 3247 478 
L 3247 0 
L 488 0 
z
" transform="scale(0.015625)"/>
      <path id="LiberationSans-2d" d="M 284 1450 
L 284 1950 
L 1847 1950 
L 1847 1450 
L 284 1450 
z
" transform="scale(0.015625)"/>
      <path id="LiberationSans-72" d="M 444 0 
L 444 2594 
Q 444 2950 425 3381 
L 956 3381 
Q 981 2806 981 2691 
L 994 2691 
Q 1128 3125 1303 3284 
Q 1478 3444 1797 3444 
Q 1909 3444 2025 3413 
L 2025 2897 
Q 1913 2928 1725 2928 
Q 1375 2928 1190 2626 
Q 1006 2325 1006 1763 
L 1006 0 
L 444 0 
z
" transform="scale(0.015625)"/>
      <path id="LiberationSans-75" d="M 981 3381 
L 981 1238 
Q 981 903 1047 718 
Q 1113 534 1256 453 
Q 1400 372 1678 372 
Q 2084 372 2318 650 
Q 2553 928 2553 1422 
L 2553 3381 
L 3116 3381 
L 3116 722 
Q 3116 131 3134 0 
L 2603 0 
Q 2600 16 2597 84 
Q 2594 153 2589 242 
Q 2584 331 2578 578 
L 2569 578 
Q 2375 228 2120 82 
Q 1866 -63 1488 -63 
Q 931 -63 673 214 
Q 416 491 416 1128 
L 416 3381 
L 981 3381 
z
" transform="scale(0.015625)"/>
      <path id="LiberationSans-70" d="M 3291 1706 
Q 3291 -63 2047 -63 
Q 1266 -63 997 525 
L 981 525 
Q 994 500 994 -6 
L 994 -1328 
L 431 -1328 
L 431 2691 
Q 431 3213 413 3381 
L 956 3381 
Q 959 3369 965 3292 
Q 972 3216 980 3056 
Q 988 2897 988 2838 
L 1000 2838 
Q 1150 3150 1397 3295 
Q 1644 3441 2047 3441 
Q 2672 3441 2981 3022 
Q 3291 2603 3291 1706 
z
M 2700 1694 
Q 2700 2400 2509 2703 
Q 2319 3006 1903 3006 
Q 1569 3006 1380 2865 
Q 1191 2725 1092 2426 
Q 994 2128 994 1650 
Q 994 984 1206 668 
Q 1419 353 1897 353 
Q 2316 353 2508 661 
Q 2700 969 2700 1694 
z
" transform="scale(0.015625)"/>
      <path id="LiberationSans-68" d="M 991 2803 
Q 1172 3134 1426 3289 
Q 1681 3444 2072 3444 
Q 2622 3444 2883 3170 
Q 3144 2897 3144 2253 
L 3144 0 
L 2578 0 
L 2578 2144 
Q 2578 2500 2512 2673 
Q 2447 2847 2297 2928 
Q 2147 3009 1881 3009 
Q 1484 3009 1245 2734 
Q 1006 2459 1006 1994 
L 1006 0 
L 444 0 
L 444 4638 
L 1006 4638 
L 1006 3431 
Q 1006 3241 995 3037 
Q 984 2834 981 2803 
L 991 2803 
z
" transform="scale(0.015625)"/>
      <path id="LiberationSans-2b" d="M 2097 1900 
L 2097 563 
L 1638 563 
L 1638 1900 
L 313 1900 
L 313 2356 
L 1638 2356 
L 1638 3694 
L 2097 3694 
L 2097 2356 
L 3422 2356 
L 3422 1900 
L 2097 1900 
z
" transform="scale(0.015625)"/>
      <path id="LiberationSans-3c3" d="M 3350 1534 
Q 3350 781 2942 359 
Q 2534 -63 1819 -63 
Q 1069 -63 669 376 
Q 269 816 269 1638 
Q 269 2466 737 2923 
Q 1206 3381 2075 3381 
L 3853 3381 
L 3853 2972 
L 3338 2972 
L 2875 2991 
L 2875 2978 
Q 3128 2600 3239 2253 
Q 3350 1906 3350 1534 
z
M 2759 1525 
Q 2759 2322 2372 2972 
L 2094 2972 
Q 1519 2972 1191 2622 
Q 863 2272 863 1644 
Q 863 353 1794 353 
Q 2266 353 2512 654 
Q 2759 956 2759 1525 
z
" transform="scale(0.015625)"/>
      <path id="LiberationSans-6f" d="M 3291 1694 
Q 3291 806 2900 371 
Q 2509 -63 1766 -63 
Q 1025 -63 647 389 
Q 269 841 269 1694 
Q 269 3444 1784 3444 
Q 2559 3444 2925 3017 
Q 3291 2591 3291 1694 
z
M 2700 1694 
Q 2700 2394 2492 2711 
Q 2284 3028 1794 3028 
Q 1300 3028 1079 2704 
Q 859 2381 859 1694 
Q 859 1025 1076 689 
Q 1294 353 1759 353 
Q 2266 353 2483 678 
Q 2700 1003 2700 1694 
z
" transform="scale(0.015625)"/>
      <path id="LiberationSans-64" d="M 2566 544 
Q 2409 219 2151 78 
Q 1894 -63 1513 -63 
Q 872 -63 570 368 
Q 269 800 269 1675 
Q 269 3444 1513 3444 
Q 1897 3444 2153 3303 
Q 2409 3163 2566 2856 
L 2572 2856 
L 2566 3234 
L 2566 4638 
L 3128 4638 
L 3128 697 
Q 3128 169 3147 0 
L 2609 0 
Q 2600 50 2589 231 
Q 2578 413 2578 544 
L 2566 544 
z
M 859 1694 
Q 859 984 1046 678 
Q 1234 372 1656 372 
Q 2134 372 2350 703 
Q 2566 1034 2566 1731 
Q 2566 2403 2350 2715 
Q 2134 3028 1663 3028 
Q 1238 3028 1048 2714 
Q 859 2400 859 1694 
z
" transform="scale(0.015625)"/>
     </defs>
     <use xlink:href="#LiberationSans-6c"/>
     <use xlink:href="#LiberationSans-65" transform="translate(22.216797 0)"/>
     <use xlink:href="#LiberationSans-6d" transform="translate(77.832031 0)"/>
     <use xlink:href="#LiberationSans-6e" transform="translate(161.132812 0)"/>
     <use xlink:href="#LiberationSans-69" transform="translate(216.748047 0)"/>
     <use xlink:href="#LiberationSans-73" transform="translate(238.964844 0)"/>
     <use xlink:href="#LiberationSans-63" transform="translate(288.964844 0)"/>
     <use xlink:href="#LiberationSans-61" transform="translate(338.964844 0)"/>
     <use xlink:href="#LiberationSans-74" transform="translate(394.580078 0)"/>
     <use xlink:href="#LiberationSans-65" transform="translate(422.363281 0)"/>
     <use xlink:href="#LiberationSans-3a" transform="translate(477.978516 0)"/>
     <use xlink:href="#LiberationSans-20" transform="translate(505.761719 0)"/>
     <use xlink:href="#LiberationSans-31" transform="translate(533.544922 0)"/>
     <use xlink:href="#LiberationSans-30" transform="translate(589.160156 0)"/>
     <use xlink:href="#LiberationSans-2d" transform="translate(644.775391 0)"/>
     <use xlink:href="#LiberationSans-72" transform="translate(678.076172 0)"/>
     <use xlink:href="#LiberationSans-75" transform="translate(711.376953 0)"/>
     <use xlink:href="#LiberationSans-6e" transform="translate(766.992188 0)"/>
     <use xlink:href="#LiberationSans-20" transform="translate(822.607422 0)"/>
     <use xlink:href="#LiberationSans-6d" transform="translate(850.390625 0)"/>
     <use xlink:href="#LiberationSans-65" transform="translate(933.691406 0)"/>
     <use xlink:href="#LiberationSans-61" transform="translate(989.306641 0)"/>
     <use xlink:href="#LiberationSans-6e" transform="translate(1044.921875 0)"/>
     <use xlink:href="#LiberationSans-20" transform="translate(1100.537109 0)"/>
     <use xlink:href="#LiberationSans-70" transform="translate(1128.320312 0)"/>
     <use xlink:href="#LiberationSans-61" transform="translate(1183.935547 0)"/>
     <use xlink:href="#LiberationSans-74" transform="translate(1239.550781 0)"/>
     <use xlink:href="#LiberationSans-68" transform="translate(1267.333984 0)"/>
     <use xlink:href="#LiberationSans-20" transform="translate(1322.949219 0)"/>
     <use xlink:href="#LiberationSans-2b" transform="translate(1350.732422 0)"/>
     <use xlink:href="#LiberationSans-20" transform="translate(1409.130859 0)"/>
     <use xlink:href="#LiberationSans-31" transform="translate(1436.914062 0)"/>
     <use xlink:href="#LiberationSans-3c3" transform="translate(1492.529297 0)"/>
     <use xlink:href="#LiberationSans-20" transform="translate(1554.248047 0)"/>
     <use xlink:href="#LiberationSans-63" transform="translate(1582.03125 0)"/>
     <use xlink:href="#LiberationSans-6f" transform="translate(1632.03125 0)"/>
     <use xlink:href="#LiberationSans-72" transform="translate(1687.646484 0)"/>
     <use xlink:href="#LiberationSans-72" transform="translate(1720.947266 0)"/>
     <use xlink:href="#LiberationSans-69" transform="translate(1754.248047 0)"/>
     <use xlink:href="#LiberationSans-64" transform="translate(1776.464844 0)"/>
     <use xlink:href="#LiberationSans-6f" transform="translate(1832.080078 0)"/>
     <use xlink:href="#LiberationSans-72" transform="translate(1887.695312 0)"/>
    </g>
   </g>
   <g id="legend_1">
    <g id="patch_8">
     <path d="M 345.146281 66.5525 
L 519.932844 66.5525 
Q 522.132844 66.5525 522.132844 64.3525 
L 522.132844 33.944375 
Q 522.132844 31.744375 519.932844 31.744375 
L 345.146281 31.744375 
Q 342.946281 31.744375 342.946281 33.944375 
L 342.946281 64.3525 
Q 342.946281 66.5525 345.146281 66.5525 
z
" style="fill: #ffffff; opacity: 0.8; stroke: #cccccc; stroke-linejoin: miter"/>
    </g>
    <g id="line2d_23">
     <path d="M 347.346281 40.265937 
L 358.346281 40.265937 
L 369.346281 40.265937 
" style="fill: none; stroke-dasharray: 8.14,3.52; stroke-dashoffset: 0; stroke: #222222; stroke-width: 2.2"/>
    </g>
    <g id="text_14">
     <!-- Reference -->
     <g style="fill: #262626" transform="translate(378.146281 44.115937) scale(0.11 -0.11)">
      <defs>
       <path id="LiberationSans-52" d="M 3638 0 
L 2494 1828 
L 1122 1828 
L 1122 0 
L 525 0 
L 525 4403 
L 2597 4403 
Q 3341 4403 3745 4070 
Q 4150 3738 4150 3144 
Q 4150 2653 3864 2318 
Q 3578 1984 3075 1897 
L 4325 0 
L 3638 0 
z
M 3550 3138 
Q 3550 3522 3289 3723 
Q 3028 3925 2538 3925 
L 1122 3925 
L 1122 2300 
L 2563 2300 
Q 3034 2300 3292 2520 
Q 3550 2741 3550 3138 
z
" transform="scale(0.015625)"/>
       <path id="LiberationSans-66" d="M 1128 2972 
L 1128 0 
L 566 0 
L 566 2972 
L 91 2972 
L 91 3381 
L 566 3381 
L 566 3763 
Q 566 4225 769 4428 
Q 972 4631 1391 4631 
Q 1625 4631 1788 4594 
L 1788 4166 
Q 1647 4191 1538 4191 
Q 1322 4191 1225 4081 
Q 1128 3972 1128 3684 
L 1128 3381 
L 1788 3381 
L 1788 2972 
L 1128 2972 
z
" transform="scale(0.015625)"/>
      </defs>
      <use xlink:href="#LiberationSans-52"/>
      <use xlink:href="#LiberationSans-65" transform="translate(72.216797 0)"/>
      <use xlink:href="#LiberationSans-66" transform="translate(127.832031 0)"/>
      <use xlink:href="#LiberationSans-65" transform="translate(155.615234 0)"/>
      <use xlink:href="#LiberationSans-72" transform="translate(211.230469 0)"/>
      <use xlink:href="#LiberationSans-65" transform="translate(244.53125 0)"/>
      <use xlink:href="#LiberationSans-6e" transform="translate(300.146484 0)"/>
      <use xlink:href="#LiberationSans-63" transform="translate(355.761719 0)"/>
      <use xlink:href="#LiberationSans-65" transform="translate(405.761719 0)"/>
     </g>
    </g>
    <g id="line2d_24">
     <path d="M 347.346281 56.02 
L 358.346281 56.02 
L 369.346281 56.02 
" style="fill: none; stroke: #6a3d9a; stroke-width: 2.6; stroke-linecap: round"/>
    </g>
    <g id="text_15">
     <!-- Re-identified from SITL ident -->
     <g style="fill: #262626" transform="translate(378.146281 59.87) scale(0.11 -0.11)">
      <defs>
       <path id="LiberationSans-53" d="M 3975 1216 
Q 3975 606 3498 271 
Q 3022 -63 2156 -63 
Q 547 -63 291 1056 
L 869 1172 
Q 969 775 1294 589 
Q 1619 403 2178 403 
Q 2756 403 3070 601 
Q 3384 800 3384 1184 
Q 3384 1400 3286 1534 
Q 3188 1669 3009 1756 
Q 2831 1844 2584 1903 
Q 2338 1963 2038 2031 
Q 1516 2147 1245 2262 
Q 975 2378 819 2520 
Q 663 2663 580 2853 
Q 497 3044 497 3291 
Q 497 3856 930 4162 
Q 1363 4469 2169 4469 
Q 2919 4469 3316 4239 
Q 3713 4009 3872 3456 
L 3284 3353 
Q 3188 3703 2916 3861 
Q 2644 4019 2163 4019 
Q 1634 4019 1356 3844 
Q 1078 3669 1078 3322 
Q 1078 3119 1186 2986 
Q 1294 2853 1497 2761 
Q 1700 2669 2306 2534 
Q 2509 2488 2711 2439 
Q 2913 2391 3097 2323 
Q 3281 2256 3442 2165 
Q 3603 2075 3722 1944 
Q 3841 1813 3908 1634 
Q 3975 1456 3975 1216 
z
" transform="scale(0.015625)"/>
       <path id="LiberationSans-49" d="M 591 0 
L 591 4403 
L 1188 4403 
L 1188 0 
L 591 0 
z
" transform="scale(0.015625)"/>
       <path id="LiberationSans-54" d="M 2250 3916 
L 2250 0 
L 1656 0 
L 1656 3916 
L 144 3916 
L 144 4403 
L 3763 4403 
L 3763 3916 
L 2250 3916 
z
" transform="scale(0.015625)"/>
       <path id="LiberationSans-4c" d="M 525 0 
L 525 4403 
L 1122 4403 
L 1122 488 
L 3347 488 
L 3347 0 
L 525 0 
z
" transform="scale(0.015625)"/>
      </defs>
      <use xlink:href="#LiberationSans-52"/>
      <use xlink:href="#LiberationSans-65" transform="translate(72.216797 0)"/>
      <use xlink:href="#LiberationSans-2d" transform="translate(127.832031 0)"/>
      <use xlink:href="#LiberationSans-69" transform="translate(161.132812 0)"/>
      <use xlink:href="#LiberationSans-64" transform="translate(183.349609 0)"/>
      <use xlink:href="#LiberationSans-65" transform="translate(238.964844 0)"/>
      <use xlink:href="#LiberationSans-6e" transform="translate(294.580078 0)"/>
      <use xlink:href="#LiberationSans-74" transform="translate(350.195312 0)"/>
      <use xlink:href="#LiberationSans-69" transform="translate(377.978516 0)"/>
      <use xlink:href="#LiberationSans-66" transform="translate(400.195312 0)"/>
      <use xlink:href="#LiberationSans-69" transform="translate(427.978516 0)"/>
      <use xlink:href="#LiberationSans-65" transform="translate(450.195312 0)"/>
      <use xlink:href="#LiberationSans-64" transform="translate(505.810547 0)"/>
      <use xlink:href="#LiberationSans-20" transform="translate(561.425781 0)"/>
      <use xlink:href="#LiberationSans-66" transform="translate(589.208984 0)"/>
      <use xlink:href="#LiberationSans-72" transform="translate(616.992188 0)"/>
      <use xlink:href="#LiberationSans-6f" transform="translate(650.292969 0)"/>
      <use xlink:href="#LiberationSans-6d" transform="translate(705.908203 0)"/>
      <use xlink:href="#LiberationSans-20" transform="translate(789.208984 0)"/>
      <use xlink:href="#LiberationSans-53" transform="translate(816.992188 0)"/>
      <use xlink:href="#LiberationSans-49" transform="translate(883.691406 0)"/>
      <use xlink:href="#LiberationSans-54" transform="translate(911.474609 0)"/>
      <use xlink:href="#LiberationSans-4c" transform="translate(972.558594 0)"/>
      <use xlink:href="#LiberationSans-20" transform="translate(1024.423828 0)"/>
      <use xlink:href="#LiberationSans-69" transform="translate(1052.207031 0)"/>
      <use xlink:href="#LiberationSans-64" transform="translate(1074.423828 0)"/>
      <use xlink:href="#LiberationSans-65" transform="translate(1130.039062 0)"/>
      <use xlink:href="#LiberationSans-6e" transform="translate(1185.654297 0)"/>
      <use xlink:href="#LiberationSans-74" transform="translate(1241.269531 0)"/>
     </g>
    </g>
   </g>
  </g>
 </g>
 <defs>
  <clipPath id="pe43e72bd6d">
   <rect x="43.504844" y="26.244375" width="484.128" height="484.128"/>
  </clipPath>
 </defs>
</svg>
